<svg
  width="554"
  height="153"
  viewBox="0 0 554 153"
  fill="none"
  xmlns="http://www.w3.org/2000/svg"
>
  <path
    fill-rule="evenodd"
    clip-rule="evenodd"
    d="M16.0946 78.5544V89.649C16.0946 90.7536 15.1992 91.649 14.0946 91.649L3 91.649C1.89543 91.649 1 90.7536 1 89.649L1 78.5544C1 77.4499 1.89543 76.5544 3 76.5544H14.0946C15.1992 76.5544 16.0946 77.4499 16.0946 78.5544ZM17.0946 89.649C17.0946 91.3059 15.7515 92.649 14.0946 92.649L3 92.649C1.34315 92.649 -1.97578e-08 91.3059 0 89.649L1.32302e-07 78.5544C1.5206e-07 76.8976 1.34314 75.5544 3 75.5544H14.0946C15.7514 75.5544 17.0946 76.8976 17.0946 78.5544V89.649Z"
    fill="url(#paint0_radial_1872_23315)"></path>
  <path
    fill-rule="evenodd"
    clip-rule="evenodd"
    d="M23.6026 80.7809C22.9657 80.7809 22.4494 80.2646 22.4494 79.6277C22.4494 78.9908 22.9657 78.4745 23.6026 78.4745C24.2394 78.4745 24.7557 78.9908 24.7557 79.6277C24.7557 80.2646 24.2394 80.7809 23.6026 80.7809ZM25.7557 79.6277C25.7557 80.8168 24.7917 81.7809 23.6026 81.7809C22.4134 81.7809 21.4494 80.8168 21.4494 79.6277C21.4494 78.4385 22.4134 77.4745 23.6026 77.4745C24.7917 77.4745 25.7557 78.4385 25.7557 79.6277Z"
    fill="url(#paint1_radial_1872_23315)"></path>
  <path
    fill-rule="evenodd"
    clip-rule="evenodd"
    d="M29.6309 80.7809C28.994 80.7809 28.4777 80.2646 28.4777 79.6277C28.4777 78.9908 28.994 78.4745 29.6309 78.4745C30.2678 78.4745 30.784 78.9908 30.784 79.6277C30.784 80.2646 30.2678 80.7809 29.6309 80.7809ZM31.784 79.6277C31.784 80.8168 30.82 81.7809 29.6309 81.7809C28.4417 81.7809 27.4777 80.8168 27.4777 79.6277C27.4777 78.4385 28.4417 77.4745 29.6309 77.4745C30.82 77.4745 31.784 78.4385 31.784 79.6277Z"
    fill="url(#paint2_radial_1872_23315)"></path>
  <path
    fill-rule="evenodd"
    clip-rule="evenodd"
    d="M61.8256 68.5H111.021V67.5H61.8256C56.8673 67.5 52.1166 69.4903 48.639 73.0245L38.8776 82.9446C35.588 86.2878 31.0941 88.1705 26.4038 88.1705H16.2815V89.1705H26.4038C31.3621 89.1705 36.1128 87.1802 39.5904 83.646L49.3518 73.7259C52.6414 70.3827 57.1353 68.5 61.8256 68.5Z"
    fill="url(#paint3_radial_1872_23315)"></path>
  <path
    fill-rule="evenodd"
    clip-rule="evenodd"
    d="M50.1528 87.5799H54.4591C55.096 87.5799 55.6123 88.0962 55.6123 88.733C55.6123 89.3699 55.096 89.8862 54.4591 89.8862H50.1528C49.5159 89.8862 48.9996 89.3699 48.9996 88.733C48.9996 88.0962 49.5159 87.5799 50.1528 87.5799ZM56.6123 88.733C56.6123 89.9222 55.6483 90.8862 54.4591 90.8862H50.1528C48.9636 90.8862 47.9996 89.9222 47.9996 88.733C47.9996 87.5439 48.9636 86.5799 50.1528 86.5799H54.4591C55.6483 86.5799 56.6123 87.5439 56.6123 88.733Z"
    fill="url(#paint4_radial_1872_23315)"></path>
  <path
    fill-rule="evenodd"
    clip-rule="evenodd"
    d="M61.8256 68.5H111.021V67.5H61.8256C56.8673 67.5 52.1166 69.4903 48.639 73.0245L38.8776 82.9446C35.588 86.2878 31.0941 88.1705 26.4038 88.1705H16.2815V89.1705H26.4038C31.3621 89.1705 36.1128 87.1802 39.5904 83.646L49.3518 73.7259C52.6414 70.3827 57.1353 68.5 61.8256 68.5Z"
    fill="url(#paint5_radial_1872_23315)"></path>
  <path
    fill-rule="evenodd"
    clip-rule="evenodd"
    d="M101.89 68.4999H199.426V67.4999H101.89C96.9212 67.4999 92.1611 69.4988 88.6819 73.0464L78.995 82.9238C75.7038 86.2796 71.2011 88.1704 66.5007 88.1704H56.4548V89.1704H66.5007C71.4697 89.1704 76.2297 87.1715 79.7089 83.6239L89.3959 73.7466C92.687 70.3907 97.1898 68.4999 101.89 68.4999Z"
    fill="url(#paint6_radial_1872_23315)"></path>
  <path
    fill-rule="evenodd"
    clip-rule="evenodd"
    d="M322.954 121.983L297.838 146.905L298.542 147.615L323.659 122.693C326.937 119.441 331.367 117.616 335.985 117.616H428.5V116.616H335.985C331.103 116.616 326.42 118.545 322.954 121.983Z"
    fill="url(#paint7_radial_1872_23315)"></path>
  <path
    fill-rule="evenodd"
    clip-rule="evenodd"
    d="M297.676 148.552C297.676 149.189 297.16 149.705 296.523 149.705C295.886 149.705 295.37 149.189 295.37 148.552C295.37 147.915 295.886 147.399 296.523 147.399C297.16 147.399 297.676 147.915 297.676 148.552ZM298.676 148.552C298.676 149.741 297.712 150.705 296.523 150.705C295.334 150.705 294.37 149.741 294.37 148.552C294.37 147.363 295.334 146.399 296.523 146.399C297.712 146.399 298.676 147.363 298.676 148.552Z"
    fill="url(#paint8_radial_1872_23315)"></path>
  <path
    fill-rule="evenodd"
    clip-rule="evenodd"
    d="M110.488 118.7H111.349C112.462 118.7 113.364 117.798 113.364 116.685C113.364 115.573 112.462 114.671 111.349 114.671H110.488C109.376 114.671 108.474 115.573 108.474 116.685C108.474 117.798 109.376 118.7 110.488 118.7ZM114.364 116.685C114.364 115.02 113.014 113.671 111.349 113.671H110.488C108.823 113.671 107.474 115.02 107.474 116.685C107.474 118.35 108.823 119.7 110.488 119.7H111.349C113.014 119.7 114.364 118.35 114.364 116.685Z"
    fill="url(#paint9_radial_1872_23315)"></path>
  <path
    fill-rule="evenodd"
    clip-rule="evenodd"
    d="M101.014 118.7H101.876C102.988 118.7 103.89 117.798 103.89 116.685C103.89 115.573 102.988 114.671 101.876 114.671H101.014C99.9019 114.671 99 115.573 99 116.685C99 117.798 99.9019 118.7 101.014 118.7ZM104.89 116.685C104.89 115.02 103.541 113.671 101.876 113.671H101.014C99.3496 113.671 98 115.02 98 116.685C98 118.35 99.3496 119.7 101.014 119.7H101.876C103.541 119.7 104.89 118.35 104.89 116.685Z"
    fill="url(#paint10_radial_1872_23315)"></path>
  <path
    fill-rule="evenodd"
    clip-rule="evenodd"
    d="M290.877 116.616L361.549 116.616V117.616L290.877 117.616C285.892 117.616 281.118 115.604 277.636 112.036L264.699 98.7784C261.406 95.4034 256.89 93.5003 252.174 93.5003H201.976C197.265 93.5003 192.754 95.3992 189.461 98.7676L176.48 112.048C173 115.608 168.23 117.616 163.251 117.616H113.503V116.616H163.251C167.961 116.616 172.473 114.717 175.765 111.349L188.746 98.0686C192.227 94.5077 196.996 92.5003 201.976 92.5003H252.174C257.159 92.5003 261.933 94.5121 265.415 98.08L278.352 111.338C281.645 114.713 286.161 116.616 290.877 116.616Z"
    fill="url(#paint11_radial_1872_23315)"></path>
  <path
    fill-rule="evenodd"
    clip-rule="evenodd"
    d="M430.154 118.699H432.737C433.374 118.699 433.891 118.183 433.891 117.546C433.891 116.909 433.374 116.393 432.737 116.393H430.154C429.517 116.393 429 116.909 429 117.546C429 118.183 429.517 118.699 430.154 118.699ZM434.891 117.546C434.891 116.357 433.927 115.393 432.737 115.393H430.154C428.964 115.393 428 116.357 428 117.546C428 118.735 428.964 119.699 430.154 119.699H432.737C433.927 119.699 434.891 118.735 434.891 117.546Z"
    fill="url(#paint12_radial_1872_23315)"></path>
  <path
    fill-rule="evenodd"
    clip-rule="evenodd"
    d="M280.776 7.39079L222.883 7.39079V6.39079L280.776 6.39079C285.645 6.39079 290.317 8.31001 293.78 11.7323L313.765 31.4825C317.041 34.7198 321.461 36.5353 326.066 36.5353L374.467 36.5353V37.5353L326.066 37.5353C321.197 37.5353 316.525 35.6161 313.062 32.1938L293.077 12.4435C289.801 9.20627 285.381 7.39079 280.776 7.39079Z"
    fill="url(#paint13_radial_1872_23315)"></path>
  <path
    fill-rule="evenodd"
    clip-rule="evenodd"
    d="M285.636 7.39079L216.854 7.39079V6.39079L285.636 6.39079C290.518 6.39079 295.203 8.32078 298.668 11.76L318.514 31.4563C321.792 34.7096 326.223 36.5353 330.841 36.5353L370.591 36.5353V37.5353L330.841 37.5353C325.959 37.5353 321.274 35.6053 317.809 32.166L297.964 12.4698C294.686 9.21645 290.255 7.39079 285.636 7.39079Z"
    fill="url(#paint14_radial_1872_23315)"></path>
  <path
    fill-rule="evenodd"
    clip-rule="evenodd"
    d="M174.84 7.39079L116.947 7.39079V6.39079L174.84 6.39079C179.709 6.39079 184.381 8.31001 187.844 11.7323L207.829 31.4825C211.105 34.7198 215.525 36.5353 220.13 36.5353L268.531 36.5353V37.5353L220.13 37.5353C215.262 37.5353 210.589 35.6161 207.126 32.1938L187.141 12.4435C183.866 9.20627 179.446 7.39079 174.84 7.39079Z"
    fill="url(#paint15_radial_1872_23315)"></path>
  <path
    fill-rule="evenodd"
    clip-rule="evenodd"
    d="M179.702 7.39079L110.919 7.39079V6.39079L179.702 6.39079C184.584 6.39079 189.268 8.32078 192.734 11.76L212.579 31.4563C215.857 34.7096 220.288 36.5353 224.907 36.5353L264.656 36.5353V37.5353L224.907 37.5353C220.024 37.5353 215.34 35.6053 211.875 32.166L192.029 12.4698C188.751 9.21645 184.32 7.39079 179.702 7.39079Z"
    fill="url(#paint16_radial_1872_23315)"></path>
  <path
    fill-rule="evenodd"
    clip-rule="evenodd"
    d="M109.919 3V9.91907C109.919 11.0236 109.024 11.9191 107.919 11.9191H101C99.8954 11.9191 99 11.0236 99 9.91907V3C99 1.89543 99.8954 1 101 1L107.919 1C109.024 1 109.919 1.89543 109.919 3ZM110.919 9.91907C110.919 11.5759 109.576 12.9191 107.919 12.9191H101C99.3431 12.9191 98 11.5759 98 9.91907V3C98 1.34315 99.3431 6.1126e-10 101 2.0369e-08L107.919 1.02877e-07C109.576 1.22635e-07 110.919 1.34315 110.919 3V9.91907Z"
    fill="url(#paint17_radial_1872_23315)"></path>
  <path
    fill-rule="evenodd"
    clip-rule="evenodd"
    d="M377.726 34.2721H380.31C381.66 34.2721 382.755 35.3668 382.755 36.7171C382.755 38.0675 381.66 39.1622 380.31 39.1622H377.726C376.376 39.1622 375.281 38.0675 375.281 36.7171C375.281 35.3668 376.376 34.2721 377.726 34.2721ZM383.755 36.7171C383.755 38.6198 382.213 40.1622 380.31 40.1622H377.726C375.823 40.1622 374.281 38.6198 374.281 36.7171C374.281 34.8145 375.823 33.2721 377.726 33.2721H380.31C382.213 33.2721 383.755 34.8145 383.755 36.7171Z"
    fill="url(#paint18_radial_1872_23315)"></path>
  <path
    fill-rule="evenodd"
    clip-rule="evenodd"
    d="M271.115 34.5899H273.699C275.049 34.5899 276.144 35.6846 276.144 37.035C276.144 38.3854 275.049 39.4801 273.699 39.4801H271.115C269.764 39.4801 268.67 38.3854 268.67 37.035C268.67 35.6846 269.764 34.5899 271.115 34.5899ZM277.144 37.035C277.144 38.9377 275.601 40.4801 273.699 40.4801H271.115C269.212 40.4801 267.67 38.9377 267.67 37.035C267.67 35.1324 269.212 33.5899 271.115 33.5899H273.699C275.601 33.5899 277.144 35.1324 277.144 37.035Z"
    fill="url(#paint19_radial_1872_23315)"></path>
  <path
    fill-rule="evenodd"
    clip-rule="evenodd"
    d="M284.757 36.1737V37.8963C284.757 38.771 284.048 39.4801 283.173 39.4801C282.298 39.4801 281.589 38.771 281.589 37.8963V36.1737C281.589 35.299 282.298 34.5899 283.173 34.5899C284.048 34.5899 284.757 35.299 284.757 36.1737ZM285.757 37.8963C285.757 39.3233 284.6 40.4801 283.173 40.4801C281.746 40.4801 280.589 39.3233 280.589 37.8963V36.1737C280.589 34.7467 281.746 33.5899 283.173 33.5899C284.6 33.5899 285.757 34.7467 285.757 36.1737V37.8963Z"
    fill="url(#paint20_radial_1872_23315)"></path>
  <path
    fill-rule="evenodd"
    clip-rule="evenodd"
    d="M212.969 5.34025H215.553C216.19 5.34025 216.706 5.85655 216.706 6.49343C216.706 7.13031 216.19 7.64661 215.553 7.64661H212.969C212.332 7.64661 211.816 7.13031 211.816 6.49343C211.816 5.85655 212.332 5.34025 212.969 5.34025ZM217.706 6.49343C217.706 7.6826 216.742 8.64661 215.553 8.64661H212.969C211.78 8.64661 210.816 7.6826 210.816 6.49343C210.816 5.30426 211.78 4.34025 212.969 4.34025H215.553C216.742 4.34025 217.706 5.30426 217.706 6.49343Z"
    fill="url(#paint21_radial_1872_23315)"></path>
  <path
    fill-rule="evenodd"
    clip-rule="evenodd"
    d="M136.07 20.4648V29.5346C136.07 30.6392 135.174 31.5346 134.07 31.5346H125C123.895 31.5346 123 30.6392 123 29.5346V20.4648C123 19.3603 123.895 18.4648 125 18.4648H134.07C135.174 18.4648 136.07 19.3603 136.07 20.4648ZM137.07 29.5346C137.07 31.1915 135.727 32.5346 134.07 32.5346L125 32.5346C123.343 32.5346 122 31.1915 122 29.5346V20.4648C122 18.808 123.343 17.4648 125 17.4648H134.07C135.727 17.4648 137.07 18.808 137.07 20.4648V29.5346Z"
    fill="url(#paint22_radial_1872_23315)"></path>
  <path
    fill-rule="evenodd"
    clip-rule="evenodd"
    d="M132.721 23.8137V26.1858C132.721 27.2903 131.825 28.1858 130.721 28.1858H128.348C127.244 28.1858 126.348 27.2903 126.348 26.1858V23.8137C126.348 22.7091 127.244 21.8137 128.348 21.8137H130.721C131.825 21.8137 132.721 22.7091 132.721 23.8137ZM133.721 26.1858C133.721 27.8426 132.377 29.1858 130.721 29.1858H128.348C126.692 29.1858 125.348 27.8426 125.348 26.1858V23.8137C125.348 22.1568 126.692 20.8137 128.348 20.8137H130.721C132.377 20.8137 133.721 22.1568 133.721 23.8137V26.1858Z"
    fill="url(#paint23_radial_1872_23315)"></path>
  <path
    fill-rule="evenodd"
    clip-rule="evenodd"
    d="M233.072 18.4033C233.072 17.4214 232.276 16.6255 231.294 16.6255C230.313 16.6255 229.517 17.4214 229.517 18.4033C229.517 19.3852 230.313 20.1811 231.294 20.1811C232.276 20.1811 233.072 19.3852 233.072 18.4033ZM234.072 18.4033C234.072 16.8692 232.829 15.6255 231.294 15.6255C229.76 15.6255 228.517 16.8692 228.517 18.4033C228.517 19.9375 229.76 21.1811 231.294 21.1811C232.829 21.1811 234.072 19.9375 234.072 18.4033Z"
    fill="url(#paint24_radial_1872_23315)"></path>
  <path
    fill-rule="evenodd"
    clip-rule="evenodd"
    d="M238.627 25.0699C238.627 24.088 237.831 23.2921 236.849 23.2921C235.867 23.2921 235.071 24.088 235.071 25.0699C235.071 26.0518 235.867 26.8477 236.849 26.8477C237.831 26.8477 238.627 26.0518 238.627 25.0699ZM239.627 25.0699C239.627 23.5357 238.383 22.2921 236.849 22.2921C235.315 22.2921 234.071 23.5357 234.071 25.0699C234.071 26.604 235.315 27.8477 236.849 27.8477C238.383 27.8477 239.627 26.604 239.627 25.0699Z"
    fill="url(#paint25_radial_1872_23315)"></path>
  <path
    fill-rule="evenodd"
    clip-rule="evenodd"
    d="M224.183 18.4033C224.183 17.4214 223.387 16.6255 222.405 16.6255C221.423 16.6255 220.627 17.4214 220.627 18.4033C220.627 19.3852 221.423 20.1811 222.405 20.1811C223.387 20.1811 224.183 19.3852 224.183 18.4033ZM225.183 18.4033C225.183 16.8692 223.939 15.6255 222.405 15.6255C220.871 15.6255 219.627 16.8692 219.627 18.4033C219.627 19.9375 220.871 21.1811 222.405 21.1811C223.939 21.1811 225.183 19.9375 225.183 18.4033Z"
    fill="url(#paint26_radial_1872_23315)"></path>
  <path
    fill-rule="evenodd"
    clip-rule="evenodd"
    d="M229.739 25.0699C229.739 24.088 228.943 23.2921 227.961 23.2921C226.979 23.2921 226.183 24.088 226.183 25.0699C226.183 26.0518 226.979 26.8477 227.961 26.8477C228.943 26.8477 229.739 26.0518 229.739 25.0699ZM230.739 25.0699C230.739 23.5357 229.495 22.2921 227.961 22.2921C226.427 22.2921 225.183 23.5357 225.183 25.0699C225.183 26.604 226.427 27.8477 227.961 27.8477C229.495 27.8477 230.739 26.604 230.739 25.0699Z"
    fill="url(#paint27_radial_1872_23315)"></path>
  <path
    fill-rule="evenodd"
    clip-rule="evenodd"
    d="M163.348 145.503H165.932C166.569 145.503 167.085 146.019 167.085 146.656C167.085 147.293 166.569 147.809 165.932 147.809H163.348C162.712 147.809 162.195 147.293 162.195 146.656C162.195 146.019 162.712 145.503 163.348 145.503ZM168.085 146.656C168.085 147.845 167.121 148.809 165.932 148.809H163.348C162.159 148.809 161.195 147.845 161.195 146.656C161.195 145.467 162.159 144.503 163.348 144.503H165.932C167.121 144.503 168.085 145.467 168.085 146.656Z"
    fill="url(#paint28_radial_1872_23315)"></path>
  <path
    fill-rule="evenodd"
    clip-rule="evenodd"
    d="M260.674 130H263.257C263.894 130 264.411 130.516 264.411 131.153C264.411 131.79 263.894 132.306 263.257 132.306H260.674C260.037 132.306 259.52 131.79 259.52 131.153C259.52 130.516 260.037 130 260.674 130ZM265.411 131.153C265.411 132.342 264.447 133.306 263.257 133.306H260.674C259.484 133.306 258.52 132.342 258.52 131.153C258.52 129.964 259.484 129 260.674 129H263.257C264.447 129 265.411 129.964 265.411 131.153Z"
    fill="url(#paint29_radial_1872_23315)"></path>
  <path
    fill-rule="evenodd"
    clip-rule="evenodd"
    d="M190.909 130H194.354C194.991 130 195.507 130.516 195.507 131.153C195.507 131.79 194.991 132.306 194.354 132.306H190.909C190.272 132.306 189.756 131.79 189.756 131.153C189.756 130.516 190.272 130 190.909 130ZM196.507 131.153C196.507 132.342 195.543 133.306 194.354 133.306H190.909C189.72 133.306 188.756 132.342 188.756 131.153C188.756 129.964 189.72 129 190.909 129H194.354C195.543 129 196.507 129.964 196.507 131.153Z"
    fill="url(#paint30_radial_1872_23315)"></path>
  <path
    fill-rule="evenodd"
    clip-rule="evenodd"
    d="M183.159 132.306C182.522 132.306 182.006 131.79 182.006 131.153C182.006 130.516 182.522 130 183.159 130C183.796 130 184.312 130.516 184.312 131.153C184.312 131.79 183.796 132.306 183.159 132.306ZM185.312 131.153C185.312 132.342 184.348 133.306 183.159 133.306C181.97 133.306 181.006 132.342 181.006 131.153C181.006 129.964 181.97 129 183.159 129C184.348 129 185.312 129.964 185.312 131.153Z"
    fill="url(#paint31_radial_1872_23315)"></path>
  <path
    fill-rule="evenodd"
    clip-rule="evenodd"
    d="M270.147 132.306C269.51 132.306 268.994 131.79 268.994 131.153C268.994 130.516 269.51 130 270.147 130C270.784 130 271.3 130.516 271.3 131.153C271.3 131.79 270.784 132.306 270.147 132.306ZM272.3 131.153C272.3 132.342 271.336 133.306 270.147 133.306C268.958 133.306 267.994 132.342 267.994 131.153C267.994 129.964 268.958 129 270.147 129C271.336 129 272.3 129.964 272.3 131.153Z"
    fill="url(#paint32_radial_1872_23315)"></path>
  <path
    fill-rule="evenodd"
    clip-rule="evenodd"
    d="M276.174 132.306C275.538 132.306 275.021 131.79 275.021 131.153C275.021 130.516 275.538 130 276.174 130C276.811 130 277.328 130.516 277.328 131.153C277.328 131.79 276.811 132.306 276.174 132.306ZM278.328 131.153C278.328 132.342 277.364 133.306 276.174 133.306C274.985 133.306 274.021 132.342 274.021 131.153C274.021 129.964 274.985 129 276.174 129C277.364 129 278.328 129.964 278.328 131.153Z"
    fill="url(#paint33_radial_1872_23315)"></path>
  <path
    fill-rule="evenodd"
    clip-rule="evenodd"
    d="M152.153 145.503H155.598C156.235 145.503 156.751 146.019 156.751 146.656C156.751 147.293 156.235 147.809 155.598 147.809H152.153C151.516 147.809 151 147.293 151 146.656C151 146.019 151.516 145.503 152.153 145.503ZM157.751 146.656C157.751 147.845 156.787 148.809 155.598 148.809H152.153C150.964 148.809 150 147.845 150 146.656C150 145.467 150.964 144.503 152.153 144.503H155.598C156.787 144.503 157.751 145.467 157.751 146.656Z"
    fill="url(#paint34_radial_1872_23315)"></path>
  <path
    fill-rule="evenodd"
    clip-rule="evenodd"
    d="M259.38 130.223H237.363C232.523 130.223 227.876 132.12 224.418 135.506L219.966 139.867C216.695 143.07 212.299 144.864 207.721 144.864H168.086V145.864H207.721C212.561 145.864 217.208 143.968 220.666 140.581L225.118 136.221C228.389 133.017 232.785 131.223 237.363 131.223H259.38V130.223Z"
    fill="url(#paint35_radial_1872_23315)"></path>
  <path
    fill-rule="evenodd"
    clip-rule="evenodd"
    d="M259.38 130.223L195.646 130.222V131.222L259.38 131.223V130.223Z"
    fill="url(#paint36_radial_1872_23315)"></path>
  <path
    fill-rule="evenodd"
    clip-rule="evenodd"
    d="M150.805 23.6659H169.753V24.6659H150.805V23.6659Z"
    fill="url(#paint37_radial_1872_23315)"></path>
  <path
    fill-rule="evenodd"
    clip-rule="evenodd"
    d="M162.102 24.5473C162.102 20.379 165.481 17 169.649 17C173.818 17 177.197 20.379 177.197 24.5473C177.197 28.7156 173.818 32.0946 169.649 32.0946C165.481 32.0946 162.102 28.7156 162.102 24.5473ZM161.102 24.5473C161.102 19.8268 164.929 16 169.649 16C174.37 16 178.197 19.8268 178.197 24.5473C178.197 29.2678 174.37 33.0946 169.649 33.0946C164.929 33.0946 161.102 29.2678 161.102 24.5473Z"
    fill="url(#paint38_radial_1872_23315)"></path>
  <path
    fill-rule="evenodd"
    clip-rule="evenodd"
    d="M165.819 24.5469C165.819 22.4311 167.534 20.7158 169.65 20.7158C171.766 20.7158 173.481 22.4311 173.481 24.5469C173.481 26.6628 171.766 28.378 169.65 28.378C167.534 28.378 165.819 26.6628 165.819 24.5469ZM164.819 24.5469C164.819 21.8788 166.982 19.7158 169.65 19.7158C172.318 19.7158 174.481 21.8788 174.481 24.5469C174.481 27.215 172.318 29.378 169.65 29.378C166.982 29.378 164.819 27.215 164.819 24.5469Z"
    fill="url(#paint39_radial_1872_23315)"></path>
  <path
    fill-rule="evenodd"
    clip-rule="evenodd"
    d="M148.36 24.5964C148.36 22.5325 150.033 20.8594 152.097 20.8594C154.161 20.8594 155.834 22.5325 155.834 24.5964C155.834 26.6603 154.161 28.3334 152.097 28.3334C150.033 28.3334 148.36 26.6603 148.36 24.5964ZM147.36 24.5964C147.36 21.9802 149.481 19.8594 152.097 19.8594C154.714 19.8594 156.834 21.9802 156.834 24.5964C156.834 27.2125 154.714 29.3334 152.097 29.3334C149.481 29.3334 147.36 27.2125 147.36 24.5964Z"
    fill="url(#paint40_radial_1872_23315)"></path>
  <path
    fill-rule="evenodd"
    clip-rule="evenodd"
    d="M495.937 116.5H504V115.5H495.937C490.768 115.5 485.836 117.662 482.333 121.462L479.201 124.86C475.888 128.455 471.222 130.5 466.333 130.5H370V131.5H466.333C471.501 131.5 476.434 129.338 479.936 125.538L483.069 122.14C486.382 118.545 491.048 116.5 495.937 116.5Z"
    fill="url(#paint41_radial_1872_23315)"></path>
  <path
    fill-rule="evenodd"
    clip-rule="evenodd"
    d="M361.685 130.358H364.268C364.905 130.358 365.422 130.875 365.422 131.512C365.422 132.149 364.905 132.665 364.268 132.665H361.685C361.048 132.665 360.531 132.149 360.531 131.512C360.531 130.875 361.048 130.358 361.685 130.358ZM366.422 131.512C366.422 132.701 365.458 133.665 364.268 133.665H361.685C360.495 133.665 359.531 132.701 359.531 131.512C359.531 130.322 360.495 129.358 361.685 129.358H364.268C365.458 129.358 366.422 130.322 366.422 131.512Z"
    fill="url(#paint42_radial_1872_23315)"></path>
  <path
    fill-rule="evenodd"
    clip-rule="evenodd"
    d="M351.351 130.358H354.796C355.433 130.358 355.949 130.875 355.949 131.512C355.949 132.149 355.433 132.665 354.796 132.665H351.351C350.714 132.665 350.197 132.149 350.197 131.512C350.197 130.875 350.714 130.358 351.351 130.358ZM356.949 131.512C356.949 132.701 355.985 133.665 354.796 133.665H351.351C350.161 133.665 349.197 132.701 349.197 131.512C349.197 130.322 350.161 129.358 351.351 129.358H354.796C355.985 129.358 356.949 130.322 356.949 131.512Z"
    fill="url(#paint43_radial_1872_23315)"></path>
  <path
    fill-rule="evenodd"
    clip-rule="evenodd"
    d="M428.864 148.445H431.448C432.085 148.445 432.601 148.962 432.601 149.599C432.601 150.235 432.085 150.752 431.448 150.752H428.864C428.227 150.752 427.711 150.235 427.711 149.599C427.711 148.962 428.227 148.445 428.864 148.445ZM433.601 149.599C433.601 150.788 432.637 151.752 431.448 151.752H428.864C427.675 151.752 426.711 150.788 426.711 149.599C426.711 148.409 427.675 147.445 428.864 147.445H431.448C432.637 147.445 433.601 148.409 433.601 149.599Z"
    fill="url(#paint44_radial_1872_23315)"></path>
  <path
    fill-rule="evenodd"
    clip-rule="evenodd"
    d="M439.2 148.445H442.645C443.282 148.445 443.798 148.962 443.798 149.599C443.798 150.235 443.282 150.752 442.645 150.752H439.2C438.563 150.752 438.047 150.235 438.047 149.599C438.047 148.962 438.563 148.445 439.2 148.445ZM444.798 149.599C444.798 150.788 443.834 151.752 442.645 151.752H439.2C438.011 151.752 437.047 150.788 437.047 149.599C437.047 148.409 438.011 147.445 439.2 147.445H442.645C443.834 147.445 444.798 148.409 444.798 149.599Z"
    fill="url(#paint45_radial_1872_23315)"></path>
  <path
    fill-rule="evenodd"
    clip-rule="evenodd"
    d="M340.153 130.358H341.014C341.651 130.358 342.168 130.875 342.168 131.512C342.168 132.149 341.651 132.665 341.014 132.665H340.153C339.516 132.665 339 132.149 339 131.512C339 130.875 339.516 130.358 340.153 130.358ZM343.168 131.512C343.168 132.701 342.204 133.665 341.014 133.665H340.153C338.964 133.665 338 132.701 338 131.512C338 130.322 338.964 129.358 340.153 129.358H341.014C342.204 129.358 343.168 130.322 343.168 131.512Z"
    fill="url(#paint46_radial_1872_23315)"></path>
  <path
    fill-rule="evenodd"
    clip-rule="evenodd"
    d="M504.723 116H506.445C506.844 116 507.168 116.324 507.168 116.723C507.168 117.122 506.844 117.445 506.445 117.445H504.723C504.324 117.445 504 117.122 504 116.723C504 116.324 504.324 116 504.723 116ZM508.168 116.723C508.168 117.674 507.397 118.445 506.445 118.445H504.723C503.772 118.445 503 117.674 503 116.723C503 115.771 503.772 115 504.723 115H506.445C507.397 115 508.168 115.771 508.168 116.723Z"
    fill="url(#paint47_radial_1872_23315)"></path>
  <path
    fill-rule="evenodd"
    clip-rule="evenodd"
    d="M434.373 130.581H365.562V131.581H434.373C438.924 131.581 443.297 133.354 446.563 136.525L459.954 149.526L460.65 148.809L447.26 135.808C443.807 132.456 439.185 130.581 434.373 130.581Z"
    fill="url(#paint48_radial_1872_23315)"></path>
  <path
    fill-rule="evenodd"
    clip-rule="evenodd"
    d="M380.59 130.581H365.562V131.581H380.59C385.144 131.581 389.52 133.357 392.786 136.531L400.919 144.435C404.372 147.79 408.997 149.668 413.812 149.668H426.712V148.668H413.812C409.257 148.668 404.882 146.892 401.616 143.717L393.483 135.814C390.03 132.458 385.405 130.581 380.59 130.581Z"
    fill="url(#paint49_radial_1872_23315)"></path>
  <path
    fill-rule="evenodd"
    clip-rule="evenodd"
    d="M461.594 151.613C460.957 151.613 460.44 151.096 460.44 150.459C460.44 149.822 460.957 149.306 461.594 149.306C462.23 149.306 462.747 149.822 462.747 150.459C462.747 151.096 462.23 151.613 461.594 151.613ZM463.747 150.459C463.747 151.649 462.783 152.613 461.594 152.613C460.404 152.613 459.44 151.649 459.44 150.459C459.44 149.27 460.404 148.306 461.594 148.306C462.783 148.306 463.747 149.27 463.747 150.459Z"
    fill="url(#paint50_radial_1872_23315)"></path>
  <path
    fill-rule="evenodd"
    clip-rule="evenodd"
    d="M468.483 151.613C467.846 151.613 467.33 151.096 467.33 150.459C467.33 149.822 467.846 149.306 468.483 149.306C469.12 149.306 469.636 149.822 469.636 150.459C469.636 151.096 469.12 151.613 468.483 151.613ZM470.636 150.459C470.636 151.649 469.672 152.613 468.483 152.613C467.294 152.613 466.33 151.649 466.33 150.459C466.33 149.27 467.294 148.306 468.483 148.306C469.672 148.306 470.636 149.27 470.636 150.459Z"
    fill="url(#paint51_radial_1872_23315)"></path>
  <path
    fill-rule="evenodd"
    clip-rule="evenodd"
    d="M474.513 151.613C473.876 151.613 473.359 151.096 473.359 150.459C473.359 149.822 473.876 149.306 474.513 149.306C475.149 149.306 475.666 149.822 475.666 150.459C475.666 151.096 475.149 151.613 474.513 151.613ZM476.666 150.459C476.666 151.649 475.702 152.613 474.513 152.613C473.323 152.613 472.359 151.649 472.359 150.459C472.359 149.27 473.323 148.306 474.513 148.306C475.702 148.306 476.666 149.27 476.666 150.459Z"
    fill="url(#paint52_radial_1872_23315)"></path>
  <path
    fill-rule="evenodd"
    clip-rule="evenodd"
    d="M193.5 112H225.5C227.433 112 229 113.567 229 115.5C229 117.433 227.433 119 225.5 119H193.5C191.567 119 190 117.433 190 115.5C190 113.567 191.567 112 193.5 112ZM230 115.5C230 117.985 227.985 120 225.5 120H193.5C191.015 120 189 117.985 189 115.5C189 113.015 191.015 111 193.5 111H225.5C227.985 111 230 113.015 230 115.5Z"
    fill="url(#paint53_radial_1872_23315)"></path>
  <path
    fill-rule="evenodd"
    clip-rule="evenodd"
    d="M245.5 112H260.5C262.433 112 264 113.567 264 115.5C264 117.433 262.433 119 260.5 119H245.5C243.567 119 242 117.433 242 115.5C242 113.567 243.567 112 245.5 112ZM265 115.5C265 117.985 262.985 120 260.5 120H245.5C243.015 120 241 117.985 241 115.5C241 113.015 243.015 111 245.5 111H260.5C262.985 111 265 113.015 265 115.5Z"
    fill="url(#paint54_radial_1872_23315)"></path>
  <path
    fill-rule="evenodd"
    clip-rule="evenodd"
    d="M487.164 36.022H491.47C492.107 36.022 492.623 35.5057 492.623 34.8688C492.623 34.2319 492.107 33.7156 491.47 33.7156H487.164C486.527 33.7156 486.01 34.2319 486.01 34.8688C486.01 35.5057 486.527 36.022 487.164 36.022ZM493.623 34.8688C493.623 33.6796 492.659 32.7156 491.47 32.7156H487.164C485.974 32.7156 485.01 33.6796 485.01 34.8688C485.01 36.058 485.974 37.022 487.164 37.022H491.47C492.659 37.022 493.623 36.058 493.623 34.8688Z"
    fill="url(#paint55_radial_1872_23315)"></path>
  <path
    fill-rule="evenodd"
    clip-rule="evenodd"
    d="M464.34 25.6876H467.785C468.184 25.6876 468.508 25.3641 468.508 24.965C468.508 24.566 468.184 24.2425 467.785 24.2425H464.34C463.941 24.2425 463.618 24.566 463.618 24.965C463.618 25.3641 463.941 25.6876 464.34 25.6876ZM469.508 24.965C469.508 24.0137 468.737 23.2425 467.785 23.2425H464.34C463.389 23.2425 462.618 24.0137 462.618 24.965C462.618 25.9163 463.389 26.6876 464.34 26.6876H467.785C468.737 26.6876 469.508 25.9163 469.508 24.965Z"
    fill="url(#paint56_radial_1872_23315)"></path>
  <path
    fill-rule="evenodd"
    clip-rule="evenodd"
    d="M476.399 25.6876H478.983C479.382 25.6876 479.705 25.3641 479.705 24.965C479.705 24.566 479.382 24.2425 478.983 24.2425H476.399C476 24.2425 475.676 24.566 475.676 24.965C475.676 25.3641 476 25.6876 476.399 25.6876ZM480.705 24.965C480.705 24.0137 479.934 23.2425 478.983 23.2425H476.399C475.447 23.2425 474.676 24.0137 474.676 24.965C474.676 25.9163 475.447 26.6876 476.399 26.6876H478.983C479.934 26.6876 480.705 25.9163 480.705 24.965Z"
    fill="url(#paint57_radial_1872_23315)"></path>
  <path
    fill-rule="evenodd"
    clip-rule="evenodd"
    d="M435.679 33.9384H485.011V34.9384H435.679C430.852 34.9384 426.217 33.0523 422.762 29.6824L412.938 20.1011C409.669 16.9134 405.285 15.1292 400.719 15.1292L351.743 15.1292V14.1292L400.719 14.1292C405.546 14.1292 410.181 16.0154 413.636 19.3852L423.46 28.9665C426.728 32.1542 431.113 33.9384 435.679 33.9384Z"
    fill="url(#paint58_radial_1872_23315)"></path>
  <path
    fill-rule="evenodd"
    clip-rule="evenodd"
    d="M434.196 25.6876H445.393C445.792 25.6876 446.115 25.3641 446.115 24.965C446.115 24.566 445.792 24.2425 445.393 24.2425H434.196C433.797 24.2425 433.474 24.566 433.474 24.965C433.474 25.3641 433.797 25.6876 434.196 25.6876ZM447.115 24.965C447.115 24.0137 446.344 23.2425 445.393 23.2425H434.196C433.245 23.2425 432.474 24.0137 432.474 24.965C432.474 25.9163 433.245 26.6876 434.196 26.6876H445.393C446.344 26.6876 447.115 25.9163 447.115 24.965Z"
    fill="url(#paint59_radial_1872_23315)"></path>
  <path
    fill-rule="evenodd"
    clip-rule="evenodd"
    d="M339.723 15.4449H350.919C351.318 15.4449 351.642 15.1214 351.642 14.7223C351.642 14.3233 351.318 13.9998 350.919 13.9998H339.723C339.323 13.9998 339 14.3233 339 14.7223C339 15.1214 339.323 15.4449 339.723 15.4449ZM352.642 14.7223C352.642 13.771 351.87 12.9998 350.919 12.9998H339.723C338.771 12.9998 338 13.771 338 14.7223C338 15.6737 338.771 16.4449 339.723 16.4449L350.919 16.4449C351.87 16.4449 352.642 15.6737 352.642 14.7223Z"
    fill="url(#paint60_radial_1872_23315)"></path>
  <path
    fill-rule="evenodd"
    clip-rule="evenodd"
    d="M461.682 19.2113L465.546 22.8793L464.858 23.6045L460.994 19.9366C457.742 16.85 453.429 15.1292 448.946 15.1292L351.514 15.1292V14.1292L448.946 14.1292C453.686 14.1292 458.244 15.9483 461.682 19.2113Z"
    fill="url(#paint61_radial_1872_23315)"></path>
  <path
    fill-rule="evenodd"
    clip-rule="evenodd"
    d="M59.6896 29.0947V18.0001C59.6896 16.8956 60.585 16.0001 61.6896 16.0001L72.7842 16.0001C73.8887 16.0001 74.7842 16.8956 74.7842 18.0001V29.0947C74.7842 30.1993 73.8887 31.0947 72.7842 31.0947L61.6896 31.0947C60.585 31.0947 59.6896 30.1993 59.6896 29.0947ZM58.6896 18.0001C58.6896 16.3433 60.0327 15.0001 61.6896 15.0001L72.7842 15.0001C74.441 15.0001 75.7842 16.3433 75.7842 18.0001V29.0947C75.7842 30.7516 74.441 32.0947 72.7842 32.0947H61.6896C60.0327 32.0947 58.6896 30.7516 58.6896 29.0947V18.0001Z"
    fill="url(#paint62_radial_1872_23315)"></path>
  <path
    fill-rule="evenodd"
    clip-rule="evenodd"
    d="M52.1816 26.8683C52.8185 26.8683 53.3348 27.3846 53.3348 28.0215C53.3348 28.6584 52.8185 29.1747 52.1816 29.1747C51.5447 29.1747 51.0285 28.6584 51.0285 28.0215C51.0285 27.3846 51.5447 26.8683 52.1816 26.8683ZM50.0285 28.0215C50.0285 26.8323 50.9925 25.8683 52.1816 25.8683C53.3708 25.8683 54.3348 26.8323 54.3348 28.0215C54.3348 29.2106 53.3708 30.1747 52.1816 30.1747C50.9925 30.1747 50.0285 29.2106 50.0285 28.0215Z"
    fill="url(#paint63_radial_1872_23315)"></path>
  <path
    fill-rule="evenodd"
    clip-rule="evenodd"
    d="M46.1533 26.8683C46.7902 26.8683 47.3065 27.3846 47.3065 28.0215C47.3065 28.6584 46.7902 29.1746 46.1533 29.1746C45.5164 29.1746 45.0001 28.6584 45.0001 28.0215C45.0001 27.3846 45.5164 26.8683 46.1533 26.8683ZM44.0001 28.0215C44.0001 26.8323 44.9641 25.8683 46.1533 25.8683C47.3425 25.8683 48.3065 26.8323 48.3065 28.0215C48.3065 29.2106 47.3425 30.1746 46.1533 30.1746C44.9641 30.1746 44.0001 29.2106 44.0001 28.0215Z"
    fill="url(#paint64_radial_1872_23315)"></path>
  <path
    fill-rule="evenodd"
    clip-rule="evenodd"
    d="M466.348 85.5027H468.932C469.569 85.5027 470.085 86.019 470.085 86.6559C470.085 87.2928 469.569 87.8091 468.932 87.8091H466.348C465.712 87.8091 465.195 87.2928 465.195 86.6559C465.195 86.019 465.712 85.5027 466.348 85.5027ZM471.085 86.6559C471.085 87.8451 470.121 88.8091 468.932 88.8091H466.348C465.159 88.8091 464.195 87.8451 464.195 86.6559C464.195 85.4667 465.159 84.5027 466.348 84.5027H468.932C470.121 84.5027 471.085 85.4667 471.085 86.6559Z"
    fill="url(#paint65_radial_1872_23315)"></path>
  <path
    fill-rule="evenodd"
    clip-rule="evenodd"
    d="M535.673 70H538.257C538.894 70 539.41 70.5163 539.41 71.1532C539.41 71.7901 538.894 72.3064 538.257 72.3064H535.673C535.036 72.3064 534.52 71.7901 534.52 71.1532C534.52 70.5163 535.036 70 535.673 70ZM540.41 71.1532C540.41 72.3423 539.446 73.3064 538.257 73.3064H535.673C534.484 73.3064 533.52 72.3423 533.52 71.1532C533.52 69.964 534.484 69 535.673 69H538.257C539.446 69 540.41 69.964 540.41 71.1532Z"
    fill="url(#paint66_radial_1872_23315)"></path>
  <path
    fill-rule="evenodd"
    clip-rule="evenodd"
    d="M465.908 70H469.353C469.99 70 470.506 70.5163 470.506 71.1532C470.506 71.7901 469.99 72.3064 469.353 72.3064H465.908C465.271 72.3064 464.755 71.7901 464.755 71.1532C464.755 70.5163 465.271 70 465.908 70ZM471.506 71.1532C471.506 72.3423 470.542 73.3064 469.353 73.3064H465.908C464.719 73.3064 463.755 72.3423 463.755 71.1532C463.755 69.964 464.719 69 465.908 69H469.353C470.542 69 471.506 69.964 471.506 71.1532Z"
    fill="url(#paint67_radial_1872_23315)"></path>
  <path
    fill-rule="evenodd"
    clip-rule="evenodd"
    d="M458.158 72.3064C457.521 72.3064 457.005 71.7901 457.005 71.1532C457.005 70.5163 457.521 70 458.158 70C458.795 70 459.311 70.5163 459.311 71.1532C459.311 71.7901 458.795 72.3064 458.158 72.3064ZM460.311 71.1532C460.311 72.3423 459.347 73.3064 458.158 73.3064C456.969 73.3064 456.005 72.3423 456.005 71.1532C456.005 69.964 456.969 69 458.158 69C459.347 69 460.311 69.964 460.311 71.1532Z"
    fill="url(#paint68_radial_1872_23315)"></path>
  <path
    fill-rule="evenodd"
    clip-rule="evenodd"
    d="M545.146 72.3064C544.509 72.3064 543.993 71.7901 543.993 71.1532C543.993 70.5163 544.509 70 545.146 70C545.783 70 546.299 70.5163 546.299 71.1532C546.299 71.7901 545.783 72.3064 545.146 72.3064ZM547.299 71.1532C547.299 72.3423 546.335 73.3064 545.146 73.3064C543.957 73.3064 542.993 72.3423 542.993 71.1532C542.993 69.964 543.957 69 545.146 69C546.335 69 547.299 69.964 547.299 71.1532Z"
    fill="url(#paint69_radial_1872_23315)"></path>
  <path
    fill-rule="evenodd"
    clip-rule="evenodd"
    d="M551.174 72.3064C550.537 72.3064 550.02 71.7901 550.02 71.1532C550.02 70.5163 550.537 70 551.174 70C551.811 70 552.327 70.5163 552.327 71.1532C552.327 71.7901 551.811 72.3064 551.174 72.3064ZM553.327 71.1532C553.327 72.3423 552.363 73.3064 551.174 73.3064C549.984 73.3064 549.02 72.3423 549.02 71.1532C549.02 69.964 549.984 69 551.174 69C552.363 69 553.327 69.964 553.327 71.1532Z"
    fill="url(#paint70_radial_1872_23315)"></path>
  <path
    fill-rule="evenodd"
    clip-rule="evenodd"
    d="M455.153 85.5027H458.598C459.235 85.5027 459.751 86.019 459.751 86.6559C459.751 87.2928 459.235 87.8091 458.598 87.8091H455.153C454.516 87.8091 454 87.2928 454 86.6559C454 86.019 454.516 85.5027 455.153 85.5027ZM460.751 86.6559C460.751 87.8451 459.787 88.8091 458.598 88.8091H455.153C453.964 88.8091 453 87.8451 453 86.6559C453 85.4667 453.964 84.5027 455.153 84.5027H458.598C459.787 84.5027 460.751 85.4667 460.751 86.6559Z"
    fill="url(#paint71_radial_1872_23315)"></path>
  <path
    fill-rule="evenodd"
    clip-rule="evenodd"
    d="M534.38 70.2229H512.362C507.522 70.2229 502.875 72.1196 499.417 75.5063L494.966 79.8666C491.695 83.0702 487.299 84.8645 482.72 84.8645L470.001 84.8644V85.8644L482.72 85.8645C487.56 85.8645 492.208 83.9677 495.665 80.581L500.117 76.2207C503.388 73.0171 507.784 71.2229 512.362 71.2229H534.38V70.2229Z"
    fill="url(#paint72_radial_1872_23315)"></path>
  <path
    fill-rule="evenodd"
    clip-rule="evenodd"
    d="M534.38 70.2229L470.645 70.2224V71.2224L534.38 71.2229V70.2229Z"
    fill="url(#paint73_radial_1872_23315)"></path>
  <path
    fill-rule="evenodd"
    clip-rule="evenodd"
    d="M64.0728 115H70.1017C70.7386 115 71.2549 115.516 71.2549 116.153C71.2549 116.79 70.7386 117.306 70.1017 117.306H64.0728C63.4359 117.306 62.9196 116.79 62.9196 116.153C62.9196 115.516 63.4359 115 64.0728 115ZM72.2549 116.153C72.2549 117.342 71.2909 118.306 70.1017 118.306H64.0728C62.8836 118.306 61.9196 117.342 61.9196 116.153C61.9196 114.964 62.8836 114 64.0728 114H70.1017C71.2909 114 72.2549 114.964 72.2549 116.153Z"
    fill="url(#paint74_radial_1872_23315)"></path>
  <path
    fill-rule="evenodd"
    clip-rule="evenodd"
    d="M91.1536 129.641H123.021C123.658 129.641 124.174 130.158 124.174 130.795C124.174 131.431 123.658 131.948 123.021 131.948H91.1536C90.5167 131.948 90.0004 131.431 90.0004 130.795C90.0004 130.158 90.5167 129.641 91.1536 129.641ZM125.174 130.795C125.174 131.984 124.21 132.948 123.021 132.948H91.1536C89.9645 132.948 89.0004 131.984 89.0004 130.795C89.0004 129.605 89.9645 128.641 91.1536 128.641H123.021C124.21 128.641 125.174 129.605 125.174 130.795Z"
    fill="url(#paint75_radial_1872_23315)"></path>
  <path
    fill-rule="evenodd"
    clip-rule="evenodd"
    d="M375.153 1L384.627 1C385.264 1 385.78 1.5163 385.78 2.15318C385.78 2.79006 385.264 3.30636 384.627 3.30636H375.153C374.516 3.30636 374 2.79006 374 2.15318C374 1.5163 374.516 1 375.153 1ZM386.78 2.15318C386.78 3.34235 385.816 4.30636 384.627 4.30636H375.153C373.964 4.30636 373 3.34234 373 2.15318C373 0.96401 373.964 -1.41807e-08 375.153 0L384.627 1.12977e-07C385.816 1.27157e-07 386.78 0.964011 386.78 2.15318Z"
    fill="url(#paint76_radial_1872_23315)"></path>
  <path
    fill-rule="evenodd"
    clip-rule="evenodd"
    d="M404.144 2.15318C404.144 1.5163 404.66 1 405.297 1C405.934 1 406.45 1.5163 406.45 2.15318C406.45 2.79006 405.934 3.30636 405.297 3.30636C404.66 3.30636 404.144 2.79006 404.144 2.15318ZM403.144 2.15318C403.144 0.96401 404.108 9.87958e-08 405.297 1.12977e-07C406.486 1.27157e-07 407.45 0.964011 407.45 2.15318C407.45 3.34235 406.486 4.30636 405.297 4.30636C404.108 4.30636 403.144 3.34234 403.144 2.15318Z"
    fill="url(#paint77_radial_1872_23315)"></path>
  <defs>
    <radialGradient
      id="paint0_radial_1872_23315"
      cx="0"
      cy="0"
      r="1"
      gradientUnits="userSpaceOnUse"
      gradientTransform="translate(276.663 71) rotate(90) scale(97 351.692)"
    >
      <stop stop-color="#FF3BD4"></stop>
      <stop offset="0.198965" stop-color="#7000FF"></stop>
      <stop offset="1" stop-color="#090812"></stop>
    </radialGradient>
    <radialGradient
      id="paint1_radial_1872_23315"
      cx="0"
      cy="0"
      r="1"
      gradientUnits="userSpaceOnUse"
      gradientTransform="translate(276.663 71) rotate(90) scale(97 351.692)"
    >
      <stop stop-color="#FF3BD4"></stop>
      <stop offset="0.198965" stop-color="#7000FF"></stop>
      <stop offset="1" stop-color="#090812"></stop>
    </radialGradient>
    <radialGradient
      id="paint2_radial_1872_23315"
      cx="0"
      cy="0"
      r="1"
      gradientUnits="userSpaceOnUse"
      gradientTransform="translate(276.663 71) rotate(90) scale(97 351.692)"
    >
      <stop stop-color="#FF3BD4"></stop>
      <stop offset="0.198965" stop-color="#7000FF"></stop>
      <stop offset="1" stop-color="#090812"></stop>
    </radialGradient>
    <radialGradient
      id="paint3_radial_1872_23315"
      cx="0"
      cy="0"
      r="1"
      gradientUnits="userSpaceOnUse"
      gradientTransform="translate(276.663 71) rotate(90) scale(97 351.692)"
    >
      <stop stop-color="#FF3BD4"></stop>
      <stop offset="0.198965" stop-color="#7000FF"></stop>
      <stop offset="1" stop-color="#090812"></stop>
    </radialGradient>
    <radialGradient
      id="paint4_radial_1872_23315"
      cx="0"
      cy="0"
      r="1"
      gradientUnits="userSpaceOnUse"
      gradientTransform="translate(276.663 71) rotate(90) scale(97 351.692)"
    >
      <stop stop-color="#FF3BD4"></stop>
      <stop offset="0.198965" stop-color="#7000FF"></stop>
      <stop offset="1" stop-color="#090812"></stop>
    </radialGradient>
    <radialGradient
      id="paint5_radial_1872_23315"
      cx="0"
      cy="0"
      r="1"
      gradientUnits="userSpaceOnUse"
      gradientTransform="translate(276.663 71) rotate(90) scale(97 351.692)"
    >
      <stop stop-color="#FF3BD4"></stop>
      <stop offset="0.198965" stop-color="#7000FF"></stop>
      <stop offset="1" stop-color="#090812"></stop>
    </radialGradient>
    <radialGradient
      id="paint6_radial_1872_23315"
      cx="0"
      cy="0"
      r="1"
      gradientUnits="userSpaceOnUse"
      gradientTransform="translate(276.663 71) rotate(90) scale(97 351.692)"
    >
      <stop stop-color="#FF3BD4"></stop>
      <stop offset="0.198965" stop-color="#7000FF"></stop>
      <stop offset="1" stop-color="#090812"></stop>
    </radialGradient>
    <radialGradient
      id="paint7_radial_1872_23315"
      cx="0"
      cy="0"
      r="1"
      gradientUnits="userSpaceOnUse"
      gradientTransform="translate(276.663 71) rotate(90) scale(97 351.692)"
    >
      <stop stop-color="#FF3BD4"></stop>
      <stop offset="0.198965" stop-color="#7000FF"></stop>
      <stop offset="1" stop-color="#090812"></stop>
    </radialGradient>
    <radialGradient
      id="paint8_radial_1872_23315"
      cx="0"
      cy="0"
      r="1"
      gradientUnits="userSpaceOnUse"
      gradientTransform="translate(276.663 71) rotate(90) scale(97 351.692)"
    >
      <stop stop-color="#FF3BD4"></stop>
      <stop offset="0.198965" stop-color="#7000FF"></stop>
      <stop offset="1" stop-color="#090812"></stop>
    </radialGradient>
    <radialGradient
      id="paint9_radial_1872_23315"
      cx="0"
      cy="0"
      r="1"
      gradientUnits="userSpaceOnUse"
      gradientTransform="translate(276.663 71) rotate(90) scale(97 351.692)"
    >
      <stop stop-color="#FF3BD4"></stop>
      <stop offset="0.198965" stop-color="#7000FF"></stop>
      <stop offset="1" stop-color="#090812"></stop>
    </radialGradient>
    <radialGradient
      id="paint10_radial_1872_23315"
      cx="0"
      cy="0"
      r="1"
      gradientUnits="userSpaceOnUse"
      gradientTransform="translate(276.663 71) rotate(90) scale(97 351.692)"
    >
      <stop stop-color="#FF3BD4"></stop>
      <stop offset="0.198965" stop-color="#7000FF"></stop>
      <stop offset="1" stop-color="#090812"></stop>
    </radialGradient>
    <radialGradient
      id="paint11_radial_1872_23315"
      cx="0"
      cy="0"
      r="1"
      gradientUnits="userSpaceOnUse"
      gradientTransform="translate(276.663 71) rotate(90) scale(97 351.692)"
    >
      <stop stop-color="#FF3BD4"></stop>
      <stop offset="0.198965" stop-color="#7000FF"></stop>
      <stop offset="1" stop-color="#090812"></stop>
    </radialGradient>
    <radialGradient
      id="paint12_radial_1872_23315"
      cx="0"
      cy="0"
      r="1"
      gradientUnits="userSpaceOnUse"
      gradientTransform="translate(276.663 71) rotate(90) scale(97 351.692)"
    >
      <stop stop-color="#FF3BD4"></stop>
      <stop offset="0.198965" stop-color="#7000FF"></stop>
      <stop offset="1" stop-color="#090812"></stop>
    </radialGradient>
    <radialGradient
      id="paint13_radial_1872_23315"
      cx="0"
      cy="0"
      r="1"
      gradientUnits="userSpaceOnUse"
      gradientTransform="translate(276.663 71) rotate(90) scale(97 351.692)"
    >
      <stop stop-color="#FF3BD4"></stop>
      <stop offset="0.198965" stop-color="#7000FF"></stop>
      <stop offset="1" stop-color="#090812"></stop>
    </radialGradient>
    <radialGradient
      id="paint14_radial_1872_23315"
      cx="0"
      cy="0"
      r="1"
      gradientUnits="userSpaceOnUse"
      gradientTransform="translate(276.663 71) rotate(90) scale(97 351.692)"
    >
      <stop stop-color="#FF3BD4"></stop>
      <stop offset="0.198965" stop-color="#7000FF"></stop>
      <stop offset="1" stop-color="#090812"></stop>
    </radialGradient>
    <radialGradient
      id="paint15_radial_1872_23315"
      cx="0"
      cy="0"
      r="1"
      gradientUnits="userSpaceOnUse"
      gradientTransform="translate(276.663 71) rotate(90) scale(97 351.692)"
    >
      <stop stop-color="#FF3BD4"></stop>
      <stop offset="0.198965" stop-color="#7000FF"></stop>
      <stop offset="1" stop-color="#090812"></stop>
    </radialGradient>
    <radialGradient
      id="paint16_radial_1872_23315"
      cx="0"
      cy="0"
      r="1"
      gradientUnits="userSpaceOnUse"
      gradientTransform="translate(276.663 71) rotate(90) scale(97 351.692)"
    >
      <stop stop-color="#FF3BD4"></stop>
      <stop offset="0.198965" stop-color="#7000FF"></stop>
      <stop offset="1" stop-color="#090812"></stop>
    </radialGradient>
    <radialGradient
      id="paint17_radial_1872_23315"
      cx="0"
      cy="0"
      r="1"
      gradientUnits="userSpaceOnUse"
      gradientTransform="translate(276.663 71) rotate(90) scale(97 351.692)"
    >
      <stop stop-color="#FF3BD4"></stop>
      <stop offset="0.198965" stop-color="#7000FF"></stop>
      <stop offset="1" stop-color="#090812"></stop>
    </radialGradient>
    <radialGradient
      id="paint18_radial_1872_23315"
      cx="0"
      cy="0"
      r="1"
      gradientUnits="userSpaceOnUse"
      gradientTransform="translate(276.663 71) rotate(90) scale(97 351.692)"
    >
      <stop stop-color="#FF3BD4"></stop>
      <stop offset="0.198965" stop-color="#7000FF"></stop>
      <stop offset="1" stop-color="#090812"></stop>
    </radialGradient>
    <radialGradient
      id="paint19_radial_1872_23315"
      cx="0"
      cy="0"
      r="1"
      gradientUnits="userSpaceOnUse"
      gradientTransform="translate(276.663 71) rotate(90) scale(97 351.692)"
    >
      <stop stop-color="#FF3BD4"></stop>
      <stop offset="0.198965" stop-color="#7000FF"></stop>
      <stop offset="1" stop-color="#090812"></stop>
    </radialGradient>
    <radialGradient
      id="paint20_radial_1872_23315"
      cx="0"
      cy="0"
      r="1"
      gradientUnits="userSpaceOnUse"
      gradientTransform="translate(276.663 71) rotate(90) scale(97 351.692)"
    >
      <stop stop-color="#FF3BD4"></stop>
      <stop offset="0.198965" stop-color="#7000FF"></stop>
      <stop offset="1" stop-color="#090812"></stop>
    </radialGradient>
    <radialGradient
      id="paint21_radial_1872_23315"
      cx="0"
      cy="0"
      r="1"
      gradientUnits="userSpaceOnUse"
      gradientTransform="translate(276.663 71) rotate(90) scale(97 351.692)"
    >
      <stop stop-color="#FF3BD4"></stop>
      <stop offset="0.198965" stop-color="#7000FF"></stop>
      <stop offset="1" stop-color="#090812"></stop>
    </radialGradient>
    <radialGradient
      id="paint22_radial_1872_23315"
      cx="0"
      cy="0"
      r="1"
      gradientUnits="userSpaceOnUse"
      gradientTransform="translate(276.663 71) rotate(90) scale(97 351.692)"
    >
      <stop stop-color="#FF3BD4"></stop>
      <stop offset="0.198965" stop-color="#7000FF"></stop>
      <stop offset="1" stop-color="#090812"></stop>
    </radialGradient>
    <radialGradient
      id="paint23_radial_1872_23315"
      cx="0"
      cy="0"
      r="1"
      gradientUnits="userSpaceOnUse"
      gradientTransform="translate(276.663 71) rotate(90) scale(97 351.692)"
    >
      <stop stop-color="#FF3BD4"></stop>
      <stop offset="0.198965" stop-color="#7000FF"></stop>
      <stop offset="1" stop-color="#090812"></stop>
    </radialGradient>
    <radialGradient
      id="paint24_radial_1872_23315"
      cx="0"
      cy="0"
      r="1"
      gradientUnits="userSpaceOnUse"
      gradientTransform="translate(276.663 71) rotate(90) scale(97 351.692)"
    >
      <stop stop-color="#FF3BD4"></stop>
      <stop offset="0.198965" stop-color="#7000FF"></stop>
      <stop offset="1" stop-color="#090812"></stop>
    </radialGradient>
    <radialGradient
      id="paint25_radial_1872_23315"
      cx="0"
      cy="0"
      r="1"
      gradientUnits="userSpaceOnUse"
      gradientTransform="translate(276.663 71) rotate(90) scale(97 351.692)"
    >
      <stop stop-color="#FF3BD4"></stop>
      <stop offset="0.198965" stop-color="#7000FF"></stop>
      <stop offset="1" stop-color="#090812"></stop>
    </radialGradient>
    <radialGradient
      id="paint26_radial_1872_23315"
      cx="0"
      cy="0"
      r="1"
      gradientUnits="userSpaceOnUse"
      gradientTransform="translate(276.663 71) rotate(90) scale(97 351.692)"
    >
      <stop stop-color="#FF3BD4"></stop>
      <stop offset="0.198965" stop-color="#7000FF"></stop>
      <stop offset="1" stop-color="#090812"></stop>
    </radialGradient>
    <radialGradient
      id="paint27_radial_1872_23315"
      cx="0"
      cy="0"
      r="1"
      gradientUnits="userSpaceOnUse"
      gradientTransform="translate(276.663 71) rotate(90) scale(97 351.692)"
    >
      <stop stop-color="#FF3BD4"></stop>
      <stop offset="0.198965" stop-color="#7000FF"></stop>
      <stop offset="1" stop-color="#090812"></stop>
    </radialGradient>
    <radialGradient
      id="paint28_radial_1872_23315"
      cx="0"
      cy="0"
      r="1"
      gradientUnits="userSpaceOnUse"
      gradientTransform="translate(276.663 71) rotate(90) scale(97 351.692)"
    >
      <stop stop-color="#FF3BD4"></stop>
      <stop offset="0.198965" stop-color="#7000FF"></stop>
      <stop offset="1" stop-color="#090812"></stop>
    </radialGradient>
    <radialGradient
      id="paint29_radial_1872_23315"
      cx="0"
      cy="0"
      r="1"
      gradientUnits="userSpaceOnUse"
      gradientTransform="translate(276.663 71) rotate(90) scale(97 351.692)"
    >
      <stop stop-color="#FF3BD4"></stop>
      <stop offset="0.198965" stop-color="#7000FF"></stop>
      <stop offset="1" stop-color="#090812"></stop>
    </radialGradient>
    <radialGradient
      id="paint30_radial_1872_23315"
      cx="0"
      cy="0"
      r="1"
      gradientUnits="userSpaceOnUse"
      gradientTransform="translate(276.663 71) rotate(90) scale(97 351.692)"
    >
      <stop stop-color="#FF3BD4"></stop>
      <stop offset="0.198965" stop-color="#7000FF"></stop>
      <stop offset="1" stop-color="#090812"></stop>
    </radialGradient>
    <radialGradient
      id="paint31_radial_1872_23315"
      cx="0"
      cy="0"
      r="1"
      gradientUnits="userSpaceOnUse"
      gradientTransform="translate(276.663 71) rotate(90) scale(97 351.692)"
    >
      <stop stop-color="#FF3BD4"></stop>
      <stop offset="0.198965" stop-color="#7000FF"></stop>
      <stop offset="1" stop-color="#090812"></stop>
    </radialGradient>
    <radialGradient
      id="paint32_radial_1872_23315"
      cx="0"
      cy="0"
      r="1"
      gradientUnits="userSpaceOnUse"
      gradientTransform="translate(276.663 71) rotate(90) scale(97 351.692)"
    >
      <stop stop-color="#FF3BD4"></stop>
      <stop offset="0.198965" stop-color="#7000FF"></stop>
      <stop offset="1" stop-color="#090812"></stop>
    </radialGradient>
    <radialGradient
      id="paint33_radial_1872_23315"
      cx="0"
      cy="0"
      r="1"
      gradientUnits="userSpaceOnUse"
      gradientTransform="translate(276.663 71) rotate(90) scale(97 351.692)"
    >
      <stop stop-color="#FF3BD4"></stop>
      <stop offset="0.198965" stop-color="#7000FF"></stop>
      <stop offset="1" stop-color="#090812"></stop>
    </radialGradient>
    <radialGradient
      id="paint34_radial_1872_23315"
      cx="0"
      cy="0"
      r="1"
      gradientUnits="userSpaceOnUse"
      gradientTransform="translate(276.663 71) rotate(90) scale(97 351.692)"
    >
      <stop stop-color="#FF3BD4"></stop>
      <stop offset="0.198965" stop-color="#7000FF"></stop>
      <stop offset="1" stop-color="#090812"></stop>
    </radialGradient>
    <radialGradient
      id="paint35_radial_1872_23315"
      cx="0"
      cy="0"
      r="1"
      gradientUnits="userSpaceOnUse"
      gradientTransform="translate(276.663 71) rotate(90) scale(97 351.692)"
    >
      <stop stop-color="#FF3BD4"></stop>
      <stop offset="0.198965" stop-color="#7000FF"></stop>
      <stop offset="1" stop-color="#090812"></stop>
    </radialGradient>
    <radialGradient
      id="paint36_radial_1872_23315"
      cx="0"
      cy="0"
      r="1"
      gradientUnits="userSpaceOnUse"
      gradientTransform="translate(276.663 71) rotate(90) scale(97 351.692)"
    >
      <stop stop-color="#FF3BD4"></stop>
      <stop offset="0.198965" stop-color="#7000FF"></stop>
      <stop offset="1" stop-color="#090812"></stop>
    </radialGradient>
    <radialGradient
      id="paint37_radial_1872_23315"
      cx="0"
      cy="0"
      r="1"
      gradientUnits="userSpaceOnUse"
      gradientTransform="translate(276.663 71) rotate(90) scale(97 351.692)"
    >
      <stop stop-color="#FF3BD4"></stop>
      <stop offset="0.198965" stop-color="#7000FF"></stop>
      <stop offset="1" stop-color="#090812"></stop>
    </radialGradient>
    <radialGradient
      id="paint38_radial_1872_23315"
      cx="0"
      cy="0"
      r="1"
      gradientUnits="userSpaceOnUse"
      gradientTransform="translate(276.663 71) rotate(90) scale(97 351.692)"
    >
      <stop stop-color="#FF3BD4"></stop>
      <stop offset="0.198965" stop-color="#7000FF"></stop>
      <stop offset="1" stop-color="#090812"></stop>
    </radialGradient>
    <radialGradient
      id="paint39_radial_1872_23315"
      cx="0"
      cy="0"
      r="1"
      gradientUnits="userSpaceOnUse"
      gradientTransform="translate(276.663 71) rotate(90) scale(97 351.692)"
    >
      <stop stop-color="#FF3BD4"></stop>
      <stop offset="0.198965" stop-color="#7000FF"></stop>
      <stop offset="1" stop-color="#090812"></stop>
    </radialGradient>
    <radialGradient
      id="paint40_radial_1872_23315"
      cx="0"
      cy="0"
      r="1"
      gradientUnits="userSpaceOnUse"
      gradientTransform="translate(276.663 71) rotate(90) scale(97 351.692)"
    >
      <stop stop-color="#FF3BD4"></stop>
      <stop offset="0.198965" stop-color="#7000FF"></stop>
      <stop offset="1" stop-color="#090812"></stop>
    </radialGradient>
    <radialGradient
      id="paint41_radial_1872_23315"
      cx="0"
      cy="0"
      r="1"
      gradientUnits="userSpaceOnUse"
      gradientTransform="translate(276.663 71) rotate(90) scale(97 351.692)"
    >
      <stop stop-color="#FF3BD4"></stop>
      <stop offset="0.198965" stop-color="#7000FF"></stop>
      <stop offset="1" stop-color="#090812"></stop>
    </radialGradient>
    <radialGradient
      id="paint42_radial_1872_23315"
      cx="0"
      cy="0"
      r="1"
      gradientUnits="userSpaceOnUse"
      gradientTransform="translate(276.663 71) rotate(90) scale(97 351.692)"
    >
      <stop stop-color="#FF3BD4"></stop>
      <stop offset="0.198965" stop-color="#7000FF"></stop>
      <stop offset="1" stop-color="#090812"></stop>
    </radialGradient>
    <radialGradient
      id="paint43_radial_1872_23315"
      cx="0"
      cy="0"
      r="1"
      gradientUnits="userSpaceOnUse"
      gradientTransform="translate(276.663 71) rotate(90) scale(97 351.692)"
    >
      <stop stop-color="#FF3BD4"></stop>
      <stop offset="0.198965" stop-color="#7000FF"></stop>
      <stop offset="1" stop-color="#090812"></stop>
    </radialGradient>
    <radialGradient
      id="paint44_radial_1872_23315"
      cx="0"
      cy="0"
      r="1"
      gradientUnits="userSpaceOnUse"
      gradientTransform="translate(276.663 71) rotate(90) scale(97 351.692)"
    >
      <stop stop-color="#FF3BD4"></stop>
      <stop offset="0.198965" stop-color="#7000FF"></stop>
      <stop offset="1" stop-color="#090812"></stop>
    </radialGradient>
    <radialGradient
      id="paint45_radial_1872_23315"
      cx="0"
      cy="0"
      r="1"
      gradientUnits="userSpaceOnUse"
      gradientTransform="translate(276.663 71) rotate(90) scale(97 351.692)"
    >
      <stop stop-color="#FF3BD4"></stop>
      <stop offset="0.198965" stop-color="#7000FF"></stop>
      <stop offset="1" stop-color="#090812"></stop>
    </radialGradient>
    <radialGradient
      id="paint46_radial_1872_23315"
      cx="0"
      cy="0"
      r="1"
      gradientUnits="userSpaceOnUse"
      gradientTransform="translate(276.663 71) rotate(90) scale(97 351.692)"
    >
      <stop stop-color="#FF3BD4"></stop>
      <stop offset="0.198965" stop-color="#7000FF"></stop>
      <stop offset="1" stop-color="#090812"></stop>
    </radialGradient>
    <radialGradient
      id="paint47_radial_1872_23315"
      cx="0"
      cy="0"
      r="1"
      gradientUnits="userSpaceOnUse"
      gradientTransform="translate(276.663 71) rotate(90) scale(97 351.692)"
    >
      <stop stop-color="#FF3BD4"></stop>
      <stop offset="0.198965" stop-color="#7000FF"></stop>
      <stop offset="1" stop-color="#090812"></stop>
    </radialGradient>
    <radialGradient
      id="paint48_radial_1872_23315"
      cx="0"
      cy="0"
      r="1"
      gradientUnits="userSpaceOnUse"
      gradientTransform="translate(276.663 71) rotate(90) scale(97 351.692)"
    >
      <stop stop-color="#FF3BD4"></stop>
      <stop offset="0.198965" stop-color="#7000FF"></stop>
      <stop offset="1" stop-color="#090812"></stop>
    </radialGradient>
    <radialGradient
      id="paint49_radial_1872_23315"
      cx="0"
      cy="0"
      r="1"
      gradientUnits="userSpaceOnUse"
      gradientTransform="translate(276.663 71) rotate(90) scale(97 351.692)"
    >
      <stop stop-color="#FF3BD4"></stop>
      <stop offset="0.198965" stop-color="#7000FF"></stop>
      <stop offset="1" stop-color="#090812"></stop>
    </radialGradient>
    <radialGradient
      id="paint50_radial_1872_23315"
      cx="0"
      cy="0"
      r="1"
      gradientUnits="userSpaceOnUse"
      gradientTransform="translate(276.663 71) rotate(90) scale(97 351.692)"
    >
      <stop stop-color="#FF3BD4"></stop>
      <stop offset="0.198965" stop-color="#7000FF"></stop>
      <stop offset="1" stop-color="#090812"></stop>
    </radialGradient>
    <radialGradient
      id="paint51_radial_1872_23315"
      cx="0"
      cy="0"
      r="1"
      gradientUnits="userSpaceOnUse"
      gradientTransform="translate(276.663 71) rotate(90) scale(97 351.692)"
    >
      <stop stop-color="#FF3BD4"></stop>
      <stop offset="0.198965" stop-color="#7000FF"></stop>
      <stop offset="1" stop-color="#090812"></stop>
    </radialGradient>
    <radialGradient
      id="paint52_radial_1872_23315"
      cx="0"
      cy="0"
      r="1"
      gradientUnits="userSpaceOnUse"
      gradientTransform="translate(276.663 71) rotate(90) scale(97 351.692)"
    >
      <stop stop-color="#FF3BD4"></stop>
      <stop offset="0.198965" stop-color="#7000FF"></stop>
      <stop offset="1" stop-color="#090812"></stop>
    </radialGradient>
    <radialGradient
      id="paint53_radial_1872_23315"
      cx="0"
      cy="0"
      r="1"
      gradientUnits="userSpaceOnUse"
      gradientTransform="translate(276.663 71) rotate(90) scale(97 351.692)"
    >
      <stop stop-color="#FF3BD4"></stop>
      <stop offset="0.198965" stop-color="#7000FF"></stop>
      <stop offset="1" stop-color="#090812"></stop>
    </radialGradient>
    <radialGradient
      id="paint54_radial_1872_23315"
      cx="0"
      cy="0"
      r="1"
      gradientUnits="userSpaceOnUse"
      gradientTransform="translate(276.663 71) rotate(90) scale(97 351.692)"
    >
      <stop stop-color="#FF3BD4"></stop>
      <stop offset="0.198965" stop-color="#7000FF"></stop>
      <stop offset="1" stop-color="#090812"></stop>
    </radialGradient>
    <radialGradient
      id="paint55_radial_1872_23315"
      cx="0"
      cy="0"
      r="1"
      gradientUnits="userSpaceOnUse"
      gradientTransform="translate(276.663 71) rotate(90) scale(97 351.692)"
    >
      <stop stop-color="#FF3BD4"></stop>
      <stop offset="0.198965" stop-color="#7000FF"></stop>
      <stop offset="1" stop-color="#090812"></stop>
    </radialGradient>
    <radialGradient
      id="paint56_radial_1872_23315"
      cx="0"
      cy="0"
      r="1"
      gradientUnits="userSpaceOnUse"
      gradientTransform="translate(276.663 71) rotate(90) scale(97 351.692)"
    >
      <stop stop-color="#FF3BD4"></stop>
      <stop offset="0.198965" stop-color="#7000FF"></stop>
      <stop offset="1" stop-color="#090812"></stop>
    </radialGradient>
    <radialGradient
      id="paint57_radial_1872_23315"
      cx="0"
      cy="0"
      r="1"
      gradientUnits="userSpaceOnUse"
      gradientTransform="translate(276.663 71) rotate(90) scale(97 351.692)"
    >
      <stop stop-color="#FF3BD4"></stop>
      <stop offset="0.198965" stop-color="#7000FF"></stop>
      <stop offset="1" stop-color="#090812"></stop>
    </radialGradient>
    <radialGradient
      id="paint58_radial_1872_23315"
      cx="0"
      cy="0"
      r="1"
      gradientUnits="userSpaceOnUse"
      gradientTransform="translate(276.663 71) rotate(90) scale(97 351.692)"
    >
      <stop stop-color="#FF3BD4"></stop>
      <stop offset="0.198965" stop-color="#7000FF"></stop>
      <stop offset="1" stop-color="#090812"></stop>
    </radialGradient>
    <radialGradient
      id="paint59_radial_1872_23315"
      cx="0"
      cy="0"
      r="1"
      gradientUnits="userSpaceOnUse"
      gradientTransform="translate(276.663 71) rotate(90) scale(97 351.692)"
    >
      <stop stop-color="#FF3BD4"></stop>
      <stop offset="0.198965" stop-color="#7000FF"></stop>
      <stop offset="1" stop-color="#090812"></stop>
    </radialGradient>
    <radialGradient
      id="paint60_radial_1872_23315"
      cx="0"
      cy="0"
      r="1"
      gradientUnits="userSpaceOnUse"
      gradientTransform="translate(276.663 71) rotate(90) scale(97 351.692)"
    >
      <stop stop-color="#FF3BD4"></stop>
      <stop offset="0.198965" stop-color="#7000FF"></stop>
      <stop offset="1" stop-color="#090812"></stop>
    </radialGradient>
    <radialGradient
      id="paint61_radial_1872_23315"
      cx="0"
      cy="0"
      r="1"
      gradientUnits="userSpaceOnUse"
      gradientTransform="translate(276.663 71) rotate(90) scale(97 351.692)"
    >
      <stop stop-color="#FF3BD4"></stop>
      <stop offset="0.198965" stop-color="#7000FF"></stop>
      <stop offset="1" stop-color="#090812"></stop>
    </radialGradient>
    <radialGradient
      id="paint62_radial_1872_23315"
      cx="0"
      cy="0"
      r="1"
      gradientUnits="userSpaceOnUse"
      gradientTransform="translate(276.663 71) rotate(90) scale(97 351.692)"
    >
      <stop stop-color="#FF3BD4"></stop>
      <stop offset="0.198965" stop-color="#7000FF"></stop>
      <stop offset="1" stop-color="#090812"></stop>
    </radialGradient>
    <radialGradient
      id="paint63_radial_1872_23315"
      cx="0"
      cy="0"
      r="1"
      gradientUnits="userSpaceOnUse"
      gradientTransform="translate(276.663 71) rotate(90) scale(97 351.692)"
    >
      <stop stop-color="#FF3BD4"></stop>
      <stop offset="0.198965" stop-color="#7000FF"></stop>
      <stop offset="1" stop-color="#090812"></stop>
    </radialGradient>
    <radialGradient
      id="paint64_radial_1872_23315"
      cx="0"
      cy="0"
      r="1"
      gradientUnits="userSpaceOnUse"
      gradientTransform="translate(276.663 71) rotate(90) scale(97 351.692)"
    >
      <stop stop-color="#FF3BD4"></stop>
      <stop offset="0.198965" stop-color="#7000FF"></stop>
      <stop offset="1" stop-color="#090812"></stop>
    </radialGradient>
    <radialGradient
      id="paint65_radial_1872_23315"
      cx="0"
      cy="0"
      r="1"
      gradientUnits="userSpaceOnUse"
      gradientTransform="translate(276.663 71) rotate(90) scale(97 351.692)"
    >
      <stop stop-color="#FF3BD4"></stop>
      <stop offset="0.198965" stop-color="#7000FF"></stop>
      <stop offset="1" stop-color="#090812"></stop>
    </radialGradient>
    <radialGradient
      id="paint66_radial_1872_23315"
      cx="0"
      cy="0"
      r="1"
      gradientUnits="userSpaceOnUse"
      gradientTransform="translate(276.663 71) rotate(90) scale(97 351.692)"
    >
      <stop stop-color="#FF3BD4"></stop>
      <stop offset="0.198965" stop-color="#7000FF"></stop>
      <stop offset="1" stop-color="#090812"></stop>
    </radialGradient>
    <radialGradient
      id="paint67_radial_1872_23315"
      cx="0"
      cy="0"
      r="1"
      gradientUnits="userSpaceOnUse"
      gradientTransform="translate(276.663 71) rotate(90) scale(97 351.692)"
    >
      <stop stop-color="#FF3BD4"></stop>
      <stop offset="0.198965" stop-color="#7000FF"></stop>
      <stop offset="1" stop-color="#090812"></stop>
    </radialGradient>
    <radialGradient
      id="paint68_radial_1872_23315"
      cx="0"
      cy="0"
      r="1"
      gradientUnits="userSpaceOnUse"
      gradientTransform="translate(276.663 71) rotate(90) scale(97 351.692)"
    >
      <stop stop-color="#FF3BD4"></stop>
      <stop offset="0.198965" stop-color="#7000FF"></stop>
      <stop offset="1" stop-color="#090812"></stop>
    </radialGradient>
    <radialGradient
      id="paint69_radial_1872_23315"
      cx="0"
      cy="0"
      r="1"
      gradientUnits="userSpaceOnUse"
      gradientTransform="translate(276.663 71) rotate(90) scale(97 351.692)"
    >
      <stop stop-color="#FF3BD4"></stop>
      <stop offset="0.198965" stop-color="#7000FF"></stop>
      <stop offset="1" stop-color="#090812"></stop>
    </radialGradient>
    <radialGradient
      id="paint70_radial_1872_23315"
      cx="0"
      cy="0"
      r="1"
      gradientUnits="userSpaceOnUse"
      gradientTransform="translate(276.663 71) rotate(90) scale(97 351.692)"
    >
      <stop stop-color="#FF3BD4"></stop>
      <stop offset="0.198965" stop-color="#7000FF"></stop>
      <stop offset="1" stop-color="#090812"></stop>
    </radialGradient>
    <radialGradient
      id="paint71_radial_1872_23315"
      cx="0"
      cy="0"
      r="1"
      gradientUnits="userSpaceOnUse"
      gradientTransform="translate(276.663 71) rotate(90) scale(97 351.692)"
    >
      <stop stop-color="#FF3BD4"></stop>
      <stop offset="0.198965" stop-color="#7000FF"></stop>
      <stop offset="1" stop-color="#090812"></stop>
    </radialGradient>
    <radialGradient
      id="paint72_radial_1872_23315"
      cx="0"
      cy="0"
      r="1"
      gradientUnits="userSpaceOnUse"
      gradientTransform="translate(276.663 71) rotate(90) scale(97 351.692)"
    >
      <stop stop-color="#FF3BD4"></stop>
      <stop offset="0.198965" stop-color="#7000FF"></stop>
      <stop offset="1" stop-color="#090812"></stop>
    </radialGradient>
    <radialGradient
      id="paint73_radial_1872_23315"
      cx="0"
      cy="0"
      r="1"
      gradientUnits="userSpaceOnUse"
      gradientTransform="translate(276.663 71) rotate(90) scale(97 351.692)"
    >
      <stop stop-color="#FF3BD4"></stop>
      <stop offset="0.198965" stop-color="#7000FF"></stop>
      <stop offset="1" stop-color="#090812"></stop>
    </radialGradient>
    <radialGradient
      id="paint74_radial_1872_23315"
      cx="0"
      cy="0"
      r="1"
      gradientUnits="userSpaceOnUse"
      gradientTransform="translate(276.663 71) rotate(90) scale(97 351.692)"
    >
      <stop stop-color="#FF3BD4"></stop>
      <stop offset="0.198965" stop-color="#7000FF"></stop>
      <stop offset="1" stop-color="#090812"></stop>
    </radialGradient>
    <radialGradient
      id="paint75_radial_1872_23315"
      cx="0"
      cy="0"
      r="1"
      gradientUnits="userSpaceOnUse"
      gradientTransform="translate(276.663 71) rotate(90) scale(97 351.692)"
    >
      <stop stop-color="#FF3BD4"></stop>
      <stop offset="0.198965" stop-color="#7000FF"></stop>
      <stop offset="1" stop-color="#090812"></stop>
    </radialGradient>
    <radialGradient
      id="paint76_radial_1872_23315"
      cx="0"
      cy="0"
      r="1"
      gradientUnits="userSpaceOnUse"
      gradientTransform="translate(276.663 71) rotate(90) scale(97 351.692)"
    >
      <stop stop-color="#FF3BD4"></stop>
      <stop offset="0.198965" stop-color="#7000FF"></stop>
      <stop offset="1" stop-color="#090812"></stop>
    </radialGradient>
    <radialGradient
      id="paint77_radial_1872_23315"
      cx="0"
      cy="0"
      r="1"
      gradientUnits="userSpaceOnUse"
      gradientTransform="translate(276.663 71) rotate(90) scale(97 351.692)"
    >
      <stop stop-color="#FF3BD4"></stop>
      <stop offset="0.198965" stop-color="#7000FF"></stop>
      <stop offset="1" stop-color="#090812"></stop>
    </radialGradient>
  </defs>
</svg>
