<svg width="73" height="2394" viewBox="0 0 73 2394" fill="none" xmlns="http://www.w3.org/2000/svg">
<rect x="0.25" y="-0.25" width="26.5" height="26.5" rx="2.75" transform="matrix(1 0 0 -1 27 1993.85)" stroke="#37397D" stroke-width="0.5"/>
<rect x="0.25" y="-0.25" width="19.3481" height="19.3481" rx="2.75" transform="matrix(1 0 0 -1 7 2393.5)" stroke="#37397D" stroke-width="0.5"/>
<rect x="0.25" y="-0.25" width="11.5" height="11.5" rx="2.75" transform="matrix(1 0 0 -1 11 2389.5)" stroke="#37397D" stroke-width="0.5"/>
<rect x="0.25" y="-0.25" width="17.5" height="16.5" rx="2.75" transform="matrix(1 0 0 -1 31 1988.85)" stroke="#37397D" stroke-width="0.5"/>
<rect x="0.25" y="-0.25" width="7.5" height="6.5" rx="2.75" transform="matrix(1 0 0 -1 36 1983.85)" stroke="#37397D" stroke-width="0.5"/>
<rect x="0.25" y="-0.25" width="4.5" height="16.5" rx="2.25" transform="matrix(1 0 0 -1 0 1410.5)" stroke="#37397D" stroke-width="0.5"/>
<rect x="0.25" y="-0.25" width="4.5" height="24.5" rx="2.25" transform="matrix(1 0 0 -1 53 2380.5)" stroke="#37397D" stroke-width="0.5"/>
<rect x="0.25" y="-0.25" width="4.5" height="5.5" rx="2.25" transform="matrix(1 0 0 -1 53 2393.5)" stroke="#37397D" stroke-width="0.5"/>
<rect x="0.25" y="-0.25" width="4.5" height="5.5" rx="2.25" transform="matrix(1 0 0 -1 40 2393.5)" stroke="#37397D" stroke-width="0.5"/>
<rect x="0.25" y="-0.25" width="3.5" height="5.5" rx="1.75" transform="matrix(1 0 0 -1 15 2356.5)" stroke="#37397D" stroke-width="0.5"/>
<rect x="0.25" y="-0.25" width="3.5" height="5.5" rx="1.75" transform="matrix(1 0 0 -1 15 2321.5)" stroke="#37397D" stroke-width="0.5"/>
<rect x="0.25" y="-0.25" width="7.5" height="6.5" rx="3.25" transform="matrix(1 0 0 -1 0 1762.5)" stroke="#37397D" stroke-width="0.5"/>
<rect x="0.25" y="-0.25" width="6.5" height="6.5" rx="3.25" transform="matrix(1 0 0 -1 13 1789.5)" stroke="#37397D" stroke-width="0.5"/>
<circle cx="2.5" cy="2.5" r="2.25" transform="matrix(1 0 0 -1 14 2339)" stroke="#37397D" stroke-width="0.5"/>
<circle cx="14.2658" cy="14.2658" r="14.0158" transform="matrix(1 0 0 -1 26.5312 1418)" stroke="#37397D" stroke-width="0.5"/>
<circle cx="8.06329" cy="8.06329" r="7.81329" transform="matrix(1 0 0 -1 32.7339 1411.8)" stroke="#37397D" stroke-width="0.5"/>
<circle cx="1.86076" cy="1.86076" r="1.61076" transform="matrix(1 0 0 -1 38.9363 1405.59)" stroke="#37397D" stroke-width="0.5"/>
<rect x="0.25" y="-0.25" width="4.5" height="11.5" rx="2.25" transform="matrix(1 0 0 -1 4 2144.5)" stroke="#37397D" stroke-width="0.5"/>
<path d="M42 2383V2314.59C42 2309.85 40.1327 2305.31 36.8029 2301.94L12.1971 2277.04C8.86735 2273.67 7 2269.12 7 2264.39V2150" stroke="#37397D" stroke-width="0.5"/>
<path d="M42 2389V2308.71C42 2303.98 40.1346 2299.43 36.8079 2296.06L12.1921 2271.14C8.86541 2267.77 7 2263.22 7 2258.49V2144" stroke="#37397D" stroke-width="0.5"/>
<path d="M42 1968.35V1932.25C42 1927.5 40.1233 1922.94 36.7788 1919.57L10.2213 1892.8C6.87671 1889.43 5 1884.87 5 1880.12V1853.35" stroke="#37397D" stroke-width="0.5"/>
<path d="M38 1967.35V1928.26C38 1923.53 36.1374 1918.99 32.8151 1915.62L10.1849 1892.68C6.86264 1889.31 5 1884.77 5 1880.04V1853.35" stroke="#37397D" stroke-width="0.5"/>
<path d="M42 2374V2292.37C42 2287.56 40.0715 2282.94 36.6453 2279.56L30 2273" stroke="#37397D" stroke-width="0.5"/>
<path d="M30.75 2272.5C30.75 2271.2 29.9173 2270.25 29 2270.25C28.0827 2270.25 27.25 2271.2 27.25 2272.5C27.25 2273.8 28.0827 2274.75 29 2274.75C29.9173 2274.75 30.75 2273.8 30.75 2272.5Z" stroke="#37397D" stroke-width="0.5"/>
<circle cx="2.5" cy="2.5" r="2.25" transform="matrix(1 0 0 -1 20 2270)" stroke="#37397D" stroke-width="0.5"/>
<rect x="0.25" y="-0.25" width="4.5" height="24.5" rx="2.25" transform="matrix(1 0 0 -1 53 2231.5)" stroke="#37397D" stroke-width="0.5"/>
<rect y="-0.353553" width="4.46203" height="16.8671" rx="2.23101" transform="matrix(0.707107 -0.707107 -0.707107 -0.707107 43.5234 2138.48)" stroke="#37397D" stroke-width="0.5"/>
<rect x="0.25" y="-0.25" width="4.5" height="26.5" rx="2.25" transform="matrix(1 0 0 -1 14 2020.5)" stroke="#37397D" stroke-width="0.5"/>
<path d="M17 2036V2117.2C17 2121.94 18.8698 2126.49 22.2035 2129.86L49.7965 2157.75C53.1302 2161.12 55 2165.67 55 2170.41V2207" stroke="#37397D" stroke-width="0.5"/>
<path d="M17 2020V2101.3C17 2106.01 18.8455 2110.53 22.1406 2113.89L34 2126" stroke="#37397D" stroke-width="0.5"/>
<circle cx="2.5" cy="2.5" r="2.25" transform="matrix(1 0 0 -1 46 2144)" stroke="#37397D" stroke-width="0.5"/>
<rect x="43.6719" y="1614.96" width="4.46203" height="16.8671" rx="2.23101" transform="rotate(45 43.6719 1614.96)" stroke="#37397D" stroke-width="0.5"/>
<rect x="33.25" y="356.25" width="4.5" height="8.5" rx="2.25" stroke="#37397D" stroke-width="0.5"/>
<rect x="17.25" y="386.25" width="4.5" height="16.5" rx="2.25" stroke="#37397D" stroke-width="0.5"/>
<rect x="17.25" y="302.25" width="4.5" height="7.5" rx="2.25" stroke="#37397D" stroke-width="0.5"/>
<rect x="17.25" y="337.25" width="4.5" height="7.5" rx="2.25" stroke="#37397D" stroke-width="0.5"/>
<rect x="17.25" y="348.25" width="4.5" height="7.5" rx="2.25" stroke="#37397D" stroke-width="0.5"/>
<rect x="17.25" y="556.75" width="4.5" height="8.5" rx="2.25" stroke="#37397D" stroke-width="0.5"/>
<path d="M52 1141.44L22.2226 1171.45C18.8772 1174.82 17 1179.37 17 1184.12V1287" stroke="#37397D" stroke-width="0.5"/>
<path d="M20 564.5V575.272C20 580.223 22.0399 584.956 25.6394 588.357L31.3605 593.761C34.9601 597.161 37 601.894 37 606.846L37 701" stroke="#37397D" stroke-width="0.5"/>
<path d="M37 392V403.055C37 407.97 34.9904 412.671 31.4377 416.067L25.5623 421.683C22.0096 425.079 20 429.78 20 434.695L20 462" stroke="#37397D" stroke-width="0.5"/>
<path d="M37 364V396.682C37 401.613 34.9766 406.329 31.4024 409.727L25.5976 415.246C22.0234 418.644 20 423.36 20 428.291L20 456" stroke="#37397D" stroke-width="0.5"/>
<path d="M65 1073V1141.41C65 1146.15 63.1327 1150.69 59.8029 1154.06L35.1971 1178.96C31.8673 1182.33 30 1186.88 30 1191.61V1249" stroke="#37397D" stroke-width="0.5"/>
<path d="M65 1066V1147.06C65 1151.81 63.1222 1156.36 59.7759 1159.74L35.2241 1184.47C31.8778 1187.85 30 1192.4 30 1197.15V1244.5" stroke="#37397D" stroke-width="0.5"/>
<path d="M65 950V1018.41C65 1023.15 63.1327 1027.69 59.8029 1031.06L35.1971 1055.96C31.8673 1059.33 30 1063.88 30 1068.61V1126" stroke="#37397D" stroke-width="0.5"/>
<path d="M65 943V1024.06C65 1028.81 63.1222 1033.36 59.7759 1036.74L35.2241 1061.47C31.8778 1064.85 30 1069.4 30 1074.15V1121.5" stroke="#37397D" stroke-width="0.5"/>
<path d="M17 1718V1636.41C17 1631.68 18.8597 1627.15 22.1773 1623.78L49.8227 1595.72C53.1403 1592.35 55 1587.81 55 1583.08V1555" stroke="#37397D" stroke-width="0.5"/>
<circle cx="51.5" cy="1024.5" r="2.25" stroke="#37397D" stroke-width="0.5"/>
<circle cx="53.5" cy="1139.5" r="2.25" stroke="#37397D" stroke-width="0.5"/>
<circle cx="45.5" cy="1029.5" r="2.25" stroke="#37397D" stroke-width="0.5"/>
<circle cx="51.5" cy="1016.5" r="2.25" stroke="#37397D" stroke-width="0.5"/>
<circle cx="45.5" cy="1021.5" r="2.25" stroke="#37397D" stroke-width="0.5"/>
<circle cx="48.5" cy="1612.5" r="2.25" stroke="#37397D" stroke-width="0.5"/>
<circle cx="35.5" cy="335.5" r="2.25" stroke="#37397D" stroke-width="0.5"/>
<rect x="0.25" y="-0.25" width="4.5" height="15.5" rx="2.25" transform="matrix(1 0 0 -1 2 1853.85)" stroke="#37397D" stroke-width="0.5"/>
<rect x="0.25" y="-0.25" width="14.5" height="14.5" rx="2.75" transform="matrix(1 0 0 -1 58 942.5)" stroke="#37397D" stroke-width="0.5"/>
<rect x="0.25" y="-0.25" width="4.5" height="17.5" rx="2.25" transform="matrix(1 0 0 -1 0 322.5)" stroke="#37397D" stroke-width="0.5"/>
<rect x="0.25" y="-0.25" width="7.5" height="10.5" rx="3.75" transform="matrix(1 0 0 -1 12 652.5)" stroke="#37397D" stroke-width="0.5"/>
<rect x="0.25" y="-0.25" width="7.5" height="10.5" rx="3.75" transform="matrix(1 0 0 -1 26 1258.5)" stroke="#37397D" stroke-width="0.5"/>
<rect x="0.25" y="-0.25" width="7.5" height="10.5" rx="3.75" transform="matrix(1 0 0 -1 26 1135.5)" stroke="#37397D" stroke-width="0.5"/>
<rect x="0.25" y="-0.25" width="7.5" height="5.5" rx="2.75" transform="matrix(1 0 0 -1 26 1145.5)" stroke="#37397D" stroke-width="0.5"/>
<rect x="0.25" y="-0.25" width="6.5" height="7.5" rx="3.25" transform="matrix(1 0 0 -1 13 927.5)" stroke="#37397D" stroke-width="0.5"/>
<rect x="0.25" y="-0.25" width="6.5" height="7.5" rx="3.25" transform="matrix(1 0 0 -1 13 1095.5)" stroke="#37397D" stroke-width="0.5"/>
<rect x="0.25" y="-0.25" width="6.5" height="7.5" rx="3.25" transform="matrix(1 0 0 -1 13 1108.5)" stroke="#37397D" stroke-width="0.5"/>
<rect x="0.25" y="-0.25" width="6.5" height="7.5" rx="3.25" transform="matrix(1 0 0 -1 13 737.5)" stroke="#37397D" stroke-width="0.5"/>
<circle cx="2.5" cy="2.5" r="2.25" transform="matrix(1 0 0 -1 7 1598)" stroke="#37397D" stroke-width="0.5"/>
<rect x="0.25" y="-0.25" width="4.5" height="11.5" rx="2.25" transform="matrix(1 0 0 -1 4 1140.5)" stroke="#37397D" stroke-width="0.5"/>
<rect x="0.25" y="-0.25" width="4.5" height="15.5" rx="2.25" transform="matrix(1 0 0 -1 34 715.5)" stroke="#37397D" stroke-width="0.5"/>
<rect x="0.25" y="-0.25" width="4.5" height="15.5" rx="2.25" transform="matrix(1 0 0 -1 52 1554.5)" stroke="#37397D" stroke-width="0.5"/>
<rect x="0.25" y="-0.25" width="4.5" height="6.5" rx="2.25" transform="matrix(1 0 0 -1 15 1724.5)" stroke="#37397D" stroke-width="0.5"/>
<rect x="0.25" y="-0.25" width="4.5" height="7.5" rx="2.25" transform="matrix(1 0 0 -1 15 1296.5)" stroke="#37397D" stroke-width="0.5"/>
<rect x="43.6719" y="75.5645" width="4.46203" height="16.8671" rx="2.23101" transform="rotate(45 43.6719 75.5645)" stroke="#37397D" stroke-width="0.5"/>
<path d="M16.9999 143V61.2789C16.9999 56.6304 18.7982 52.1621 22.0185 48.8096L25.9422 44.7247C29.1625 41.3722 30.9609 36.9039 30.9609 32.2554V4.03818" stroke="#37397D" stroke-width="0.5"/>
<circle cx="48.5" cy="73.1099" r="2.25" stroke="#37397D" stroke-width="0.5"/>
<circle cx="2.5" cy="2.5" r="2.25" transform="matrix(1 0 0 -1 28 5)" stroke="#37397D" stroke-width="0.5"/>
<rect x="0.25" y="-0.25" width="4.5" height="15.5" rx="2.25" transform="matrix(1 0 0 -1 15 188.5)" stroke="#37397D" stroke-width="0.5"/>
<rect x="0.25" y="-0.25" width="4.5" height="6.5" rx="2.25" transform="matrix(1 0 0 -1 15 148.5)" stroke="#37397D" stroke-width="0.5"/>
</svg>
