<svg width="73" height="2394" viewBox="0 0 73 2394" fill="none" xmlns="http://www.w3.org/2000/svg">
<rect x="45.75" y="1994.1" width="26.5" height="26.5" rx="2.75" transform="rotate(180 45.75 1994.1)" stroke="#37397D" stroke-width="0.5"/>
<rect x="65.75" y="2393.75" width="19.3481" height="19.3481" rx="2.75" transform="rotate(180 65.75 2393.75)" stroke="#37397D" stroke-width="0.5"/>
<rect x="61.75" y="2389.75" width="11.5" height="11.5" rx="2.75" transform="rotate(180 61.75 2389.75)" stroke="#37397D" stroke-width="0.5"/>
<rect x="41.75" y="1989.1" width="17.5" height="16.5" rx="2.75" transform="rotate(180 41.75 1989.1)" stroke="#37397D" stroke-width="0.5"/>
<rect x="36.75" y="1984.1" width="7.5" height="6.5" rx="2.75" transform="rotate(180 36.75 1984.1)" stroke="#37397D" stroke-width="0.5"/>
<rect x="72.75" y="1410.75" width="4.5" height="16.5" rx="2.25" transform="rotate(180 72.75 1410.75)" stroke="#37397D" stroke-width="0.5"/>
<rect x="19.75" y="2380.75" width="4.5" height="24.5" rx="2.25" transform="rotate(180 19.75 2380.75)" stroke="#37397D" stroke-width="0.5"/>
<rect x="19.75" y="2393.75" width="4.5" height="5.5" rx="2.25" transform="rotate(180 19.75 2393.75)" stroke="#37397D" stroke-width="0.5"/>
<rect x="32.75" y="2393.75" width="4.5" height="5.5" rx="2.25" transform="rotate(180 32.75 2393.75)" stroke="#37397D" stroke-width="0.5"/>
<rect x="57.75" y="2356.75" width="3.5" height="5.5" rx="1.75" transform="rotate(180 57.75 2356.75)" stroke="#37397D" stroke-width="0.5"/>
<rect x="57.75" y="2321.75" width="3.5" height="5.5" rx="1.75" transform="rotate(180 57.75 2321.75)" stroke="#37397D" stroke-width="0.5"/>
<rect x="72.75" y="1762.75" width="7.5" height="6.5" rx="3.25" transform="rotate(180 72.75 1762.75)" stroke="#37397D" stroke-width="0.5"/>
<rect x="59.75" y="1789.75" width="6.5" height="6.5" rx="3.25" transform="rotate(180 59.75 1789.75)" stroke="#37397D" stroke-width="0.5"/>
<circle cx="56.5" cy="2336.5" r="2.25" transform="rotate(180 56.5 2336.5)" stroke="#37397D" stroke-width="0.5"/>
<circle cx="32.2029" cy="1403.73" r="14.0158" transform="rotate(180 32.2029 1403.73)" stroke="#37397D" stroke-width="0.5"/>
<circle cx="32.2029" cy="1403.73" r="7.81329" transform="rotate(180 32.2029 1403.73)" stroke="#37397D" stroke-width="0.5"/>
<circle cx="32.203" cy="1403.73" r="1.61076" transform="rotate(180 32.203 1403.73)" stroke="#37397D" stroke-width="0.5"/>
<rect x="68.75" y="2144.75" width="4.5" height="11.5" rx="2.25" transform="rotate(180 68.75 2144.75)" stroke="#37397D" stroke-width="0.5"/>
<path d="M31 2383V2314.59C31 2309.85 32.8673 2305.31 36.1971 2301.94L60.8029 2277.04C64.1327 2273.67 66 2269.12 66 2264.39V2150" stroke="#37397D" stroke-width="0.5"/>
<path d="M31 2389V2308.71C31 2303.98 32.8654 2299.43 36.1921 2296.06L60.8079 2271.14C64.1346 2267.77 66 2263.22 66 2258.49V2144" stroke="#37397D" stroke-width="0.5"/>
<path d="M31 1968.35V1932.25C31 1927.5 32.8767 1922.94 36.2212 1919.57L62.7787 1892.8C66.1233 1889.43 68 1884.87 68 1880.12V1853.35" stroke="#37397D" stroke-width="0.5"/>
<path d="M35 1967.35V1928.26C35 1923.53 36.8626 1918.99 40.1849 1915.62L62.8151 1892.68C66.1374 1889.31 68 1884.77 68 1880.04V1853.35" stroke="#37397D" stroke-width="0.5"/>
<path d="M31 2374V2292.37C31 2287.56 32.9285 2282.94 36.3547 2279.56L43 2273" stroke="#37397D" stroke-width="0.5"/>
<path d="M42.25 2272.5C42.25 2271.2 43.0827 2270.25 44 2270.25C44.9173 2270.25 45.75 2271.2 45.75 2272.5C45.75 2273.8 44.9173 2274.75 44 2274.75C43.0827 2274.75 42.25 2273.8 42.25 2272.5Z" stroke="#37397D" stroke-width="0.5"/>
<circle cx="50.5" cy="2267.5" r="2.25" transform="rotate(180 50.5 2267.5)" stroke="#37397D" stroke-width="0.5"/>
<rect x="19.75" y="2231.75" width="4.5" height="24.5" rx="2.25" transform="rotate(180 19.75 2231.75)" stroke="#37397D" stroke-width="0.5"/>
<rect x="29.2266" y="2138.73" width="4.46203" height="16.8671" rx="2.23101" transform="rotate(-135 29.2266 2138.73)" stroke="#37397D" stroke-width="0.5"/>
<rect x="58.75" y="2020.75" width="4.5" height="26.5" rx="2.25" transform="rotate(180 58.75 2020.75)" stroke="#37397D" stroke-width="0.5"/>
<path d="M56 2036V2117.2C56 2121.94 54.1302 2126.49 50.7965 2129.86L23.2035 2157.75C19.8698 2161.12 18 2165.67 18 2170.41V2207" stroke="#37397D" stroke-width="0.5"/>
<path d="M56 2020V2101.3C56 2106.01 54.1545 2110.53 50.8594 2113.89L39 2126" stroke="#37397D" stroke-width="0.5"/>
<circle cx="24.5" cy="2141.5" r="2.25" transform="rotate(180 24.5 2141.5)" stroke="#37397D" stroke-width="0.5"/>
<rect y="0.353553" width="4.46203" height="16.8671" rx="2.23101" transform="matrix(-0.707107 0.707107 0.707107 0.707107 29.0781 1614.71)" stroke="#37397D" stroke-width="0.5"/>
<rect x="-0.25" y="0.25" width="4.5" height="8.5" rx="2.25" transform="matrix(-1 0 0 1 39.5 356)" stroke="#37397D" stroke-width="0.5"/>
<rect x="-0.25" y="0.25" width="4.5" height="16.5" rx="2.25" transform="matrix(-1 0 0 1 55.5 386)" stroke="#37397D" stroke-width="0.5"/>
<rect x="-0.25" y="0.25" width="4.5" height="7.5" rx="2.25" transform="matrix(-1 0 0 1 55.5 302)" stroke="#37397D" stroke-width="0.5"/>
<rect x="-0.25" y="0.25" width="4.5" height="7.5" rx="2.25" transform="matrix(-1 0 0 1 55.5 337)" stroke="#37397D" stroke-width="0.5"/>
<rect x="-0.25" y="0.25" width="4.5" height="7.5" rx="2.25" transform="matrix(-1 0 0 1 55.5 348)" stroke="#37397D" stroke-width="0.5"/>
<rect x="-0.25" y="0.25" width="4.5" height="8.5" rx="2.25" transform="matrix(-1 0 0 1 55.5 556.5)" stroke="#37397D" stroke-width="0.5"/>
<path d="M21 1141.44L50.7774 1171.45C54.1228 1174.82 56 1179.37 56 1184.12V1287" stroke="#37397D" stroke-width="0.5"/>
<path d="M53 564.5V575.272C53 580.223 50.9601 584.956 47.3606 588.357L41.6395 593.761C38.0399 597.161 36 601.894 36 606.846L36 701" stroke="#37397D" stroke-width="0.5"/>
<path d="M36 392V403.055C36 407.97 38.0096 412.671 41.5623 416.067L47.4377 421.683C50.9904 425.079 53 429.78 53 434.695L53 462" stroke="#37397D" stroke-width="0.5"/>
<path d="M36 364V396.682C36 401.613 38.0234 406.329 41.5976 409.727L47.4024 415.246C50.9766 418.644 53 423.36 53 428.291L53 456" stroke="#37397D" stroke-width="0.5"/>
<path d="M8 1073V1141.41C8 1146.15 9.86735 1150.69 13.1971 1154.06L37.8029 1178.96C41.1327 1182.33 43 1186.88 43 1191.61V1249" stroke="#37397D" stroke-width="0.5"/>
<path d="M8 1066V1147.06C8 1151.81 9.87782 1156.36 13.2241 1159.74L37.7759 1184.47C41.1222 1187.85 43 1192.4 43 1197.15V1244.5" stroke="#37397D" stroke-width="0.5"/>
<path d="M8 950V1018.41C8 1023.15 9.86735 1027.69 13.1971 1031.06L37.8029 1055.96C41.1327 1059.33 43 1063.88 43 1068.61V1126" stroke="#37397D" stroke-width="0.5"/>
<path d="M8 943V1024.06C8 1028.81 9.87782 1033.36 13.2241 1036.74L37.7759 1061.47C41.1222 1064.85 43 1069.4 43 1074.15V1121.5" stroke="#37397D" stroke-width="0.5"/>
<path d="M56 1718V1636.41C56 1631.68 54.1403 1627.15 50.8227 1623.78L23.1773 1595.72C19.8597 1592.35 18 1587.81 18 1583.08V1555" stroke="#37397D" stroke-width="0.5"/>
<circle cx="2.5" cy="2.5" r="2.25" transform="matrix(-1 0 0 1 24 1022)" stroke="#37397D" stroke-width="0.5"/>
<circle cx="2.5" cy="2.5" r="2.25" transform="matrix(-1 0 0 1 22 1137)" stroke="#37397D" stroke-width="0.5"/>
<circle cx="2.5" cy="2.5" r="2.25" transform="matrix(-1 0 0 1 30 1027)" stroke="#37397D" stroke-width="0.5"/>
<circle cx="2.5" cy="2.5" r="2.25" transform="matrix(-1 0 0 1 24 1014)" stroke="#37397D" stroke-width="0.5"/>
<circle cx="2.5" cy="2.5" r="2.25" transform="matrix(-1 0 0 1 30 1019)" stroke="#37397D" stroke-width="0.5"/>
<circle cx="2.5" cy="2.5" r="2.25" transform="matrix(-1 0 0 1 27 1610)" stroke="#37397D" stroke-width="0.5"/>
<circle cx="2.5" cy="2.5" r="2.25" transform="matrix(-1 0 0 1 40 333)" stroke="#37397D" stroke-width="0.5"/>
<rect x="70.75" y="1854.1" width="4.5" height="15.5" rx="2.25" transform="rotate(180 70.75 1854.1)" stroke="#37397D" stroke-width="0.5"/>
<rect x="14.75" y="942.75" width="14.5" height="14.5" rx="2.75" transform="rotate(180 14.75 942.75)" stroke="#37397D" stroke-width="0.5"/>
<rect x="72.75" y="322.75" width="4.5" height="17.5" rx="2.25" transform="rotate(180 72.75 322.75)" stroke="#37397D" stroke-width="0.5"/>
<rect x="60.75" y="652.75" width="7.5" height="10.5" rx="3.75" transform="rotate(180 60.75 652.75)" stroke="#37397D" stroke-width="0.5"/>
<rect x="46.75" y="1258.75" width="7.5" height="10.5" rx="3.75" transform="rotate(180 46.75 1258.75)" stroke="#37397D" stroke-width="0.5"/>
<rect x="46.75" y="1135.75" width="7.5" height="10.5" rx="3.75" transform="rotate(180 46.75 1135.75)" stroke="#37397D" stroke-width="0.5"/>
<rect x="46.75" y="1145.75" width="7.5" height="5.5" rx="2.75" transform="rotate(180 46.75 1145.75)" stroke="#37397D" stroke-width="0.5"/>
<rect x="59.75" y="927.75" width="6.5" height="7.5" rx="3.25" transform="rotate(180 59.75 927.75)" stroke="#37397D" stroke-width="0.5"/>
<rect x="59.75" y="1095.75" width="6.5" height="7.5" rx="3.25" transform="rotate(180 59.75 1095.75)" stroke="#37397D" stroke-width="0.5"/>
<rect x="59.75" y="1108.75" width="6.5" height="7.5" rx="3.25" transform="rotate(180 59.75 1108.75)" stroke="#37397D" stroke-width="0.5"/>
<rect x="59.75" y="737.75" width="6.5" height="7.5" rx="3.25" transform="rotate(180 59.75 737.75)" stroke="#37397D" stroke-width="0.5"/>
<circle cx="63.5" cy="1595.5" r="2.25" transform="rotate(180 63.5 1595.5)" stroke="#37397D" stroke-width="0.5"/>
<rect x="68.75" y="1140.75" width="4.5" height="11.5" rx="2.25" transform="rotate(180 68.75 1140.75)" stroke="#37397D" stroke-width="0.5"/>
<rect x="38.75" y="715.75" width="4.5" height="15.5" rx="2.25" transform="rotate(180 38.75 715.75)" stroke="#37397D" stroke-width="0.5"/>
<rect x="20.75" y="1554.75" width="4.5" height="15.5" rx="2.25" transform="rotate(180 20.75 1554.75)" stroke="#37397D" stroke-width="0.5"/>
<rect x="57.75" y="1724.75" width="4.5" height="6.5" rx="2.25" transform="rotate(180 57.75 1724.75)" stroke="#37397D" stroke-width="0.5"/>
<rect x="57.75" y="1296.75" width="4.5" height="7.5" rx="2.25" transform="rotate(180 57.75 1296.75)" stroke="#37397D" stroke-width="0.5"/>
<rect y="0.353553" width="4.46203" height="16.8671" rx="2.23101" transform="matrix(-0.707107 0.707107 0.707107 0.707107 29.0781 75.3145)" stroke="#37397D" stroke-width="0.5"/>
<path d="M56.0001 143V61.2789C56.0001 56.6304 54.2018 52.1621 50.9815 48.8096L47.0578 44.7247C43.8375 41.3722 42.0391 36.9039 42.0391 32.2554V4.03818" stroke="#37397D" stroke-width="0.5"/>
<circle cx="2.5" cy="2.5" r="2.25" transform="matrix(-1 0 0 1 27 70.6099)" stroke="#37397D" stroke-width="0.5"/>
<circle cx="42.5" cy="2.5" r="2.25" transform="rotate(180 42.5 2.5)" stroke="#37397D" stroke-width="0.5"/>
<rect x="57.75" y="188.75" width="4.5" height="15.5" rx="2.25" transform="rotate(180 57.75 188.75)" stroke="#37397D" stroke-width="0.5"/>
<rect x="57.75" y="148.75" width="4.5" height="6.5" rx="2.25" transform="rotate(180 57.75 148.75)" stroke="#37397D" stroke-width="0.5"/>
</svg>
