<svg width="61" height="2585" viewBox="0 0 61 2585" fill="none" xmlns="http://www.w3.org/2000/svg">
<path fill-rule="evenodd" clip-rule="evenodd" d="M31.5 578V556C31.5 553.515 33.5147 551.5 36 551.5C38.4853 551.5 40.5 553.515 40.5 556V578C40.5 580.485 38.4853 582.5 36 582.5C33.5147 582.5 31.5 580.485 31.5 578ZM36 551C38.7614 551 41 553.239 41 556V578C41 580.761 38.7614 583 36 583C33.2386 583 31 580.761 31 578V556C31 553.239 33.2386 551 36 551Z" fill="#5449C2"/>
<path fill-rule="evenodd" clip-rule="evenodd" d="M26 424.5H47C48.3807 424.5 49.5 425.619 49.5 427V449C49.5 450.381 48.3807 451.5 47 451.5H26C24.6193 451.5 23.5 450.381 23.5 449V427C23.5 425.619 24.6193 424.5 26 424.5ZM47 424C48.6569 424 50 425.343 50 427V449C50 450.657 48.6569 452 47 452H26C24.3431 452 23 450.657 23 449V427C23 425.343 24.3431 424 26 424H47Z" fill="#5449C2"/>
<path fill-rule="evenodd" clip-rule="evenodd" d="M32 431.5H41C42.3807 431.5 43.5 432.619 43.5 434V443C43.5 444.381 42.3807 445.5 41 445.5H32C30.6193 445.5 29.5 444.381 29.5 443V434C29.5 432.619 30.6193 431.5 32 431.5ZM41 431C42.6569 431 44 432.343 44 434V443C44 444.657 42.6569 446 41 446H32C30.3431 446 29 444.657 29 443V434C29 432.343 30.3431 431 32 431H41Z" fill="#5449C2"/>
<path fill-rule="evenodd" clip-rule="evenodd" d="M17.5 879.5V877.5C17.5 876.395 18.3954 875.5 19.5 875.5C20.6046 875.5 21.5 876.395 21.5 877.5V879.5C21.5 880.605 20.6046 881.5 19.5 881.5C18.3954 881.5 17.5 880.605 17.5 879.5ZM19.5 875C20.8807 875 22 876.119 22 877.5V879.5C22 880.881 20.8807 882 19.5 882C18.1193 882 17 880.881 17 879.5V877.5C17 876.119 18.1193 875 19.5 875Z" fill="#5449C2"/>
<path fill-rule="evenodd" clip-rule="evenodd" d="M18.5 698.5V694.5C18.5 693.395 19.3954 692.5 20.5 692.5C21.6046 692.5 22.5 693.395 22.5 694.5V698.5C22.5 699.605 21.6046 700.5 20.5 700.5C19.3954 700.5 18.5 699.605 18.5 698.5ZM20.5 692C21.8807 692 23 693.119 23 694.5V698.5C23 699.881 21.8807 701 20.5 701C19.1193 701 18 699.881 18 698.5V694.5C18 693.119 19.1193 692 20.5 692Z" fill="#5449C2"/>
<path fill-rule="evenodd" clip-rule="evenodd" d="M34.5 736.5V724.5C34.5 723.395 35.3954 722.5 36.5 722.5C37.6046 722.5 38.5 723.395 38.5 724.5V736.5C38.5 737.605 37.6046 738.5 36.5 738.5C35.3954 738.5 34.5 737.605 34.5 736.5ZM36.5 722C37.8807 722 39 723.119 39 724.5V736.5C39 737.881 37.8807 739 36.5 739C35.1193 739 34 737.881 34 736.5V724.5C34 723.119 35.1193 722 36.5 722Z" fill="#5449C2"/>
<path fill-rule="evenodd" clip-rule="evenodd" d="M34.5 604.5V591.5C34.5 590.395 35.3954 589.5 36.5 589.5C37.6046 589.5 38.5 590.395 38.5 591.5V604.5C38.5 605.605 37.6046 606.5 36.5 606.5C35.3954 606.5 34.5 605.605 34.5 604.5ZM36.5 589C37.8807 589 39 590.119 39 591.5V604.5C39 605.881 37.8807 607 36.5 607C35.1193 607 34 605.881 34 604.5V591.5C34 590.119 35.1193 589 36.5 589Z" fill="#5449C2"/>
<path fill-rule="evenodd" clip-rule="evenodd" d="M34.5 643.5V640.5C34.5 639.395 35.3954 638.5 36.5 638.5C37.6046 638.5 38.5 639.395 38.5 640.5V643.5C38.5 644.605 37.6046 645.5 36.5 645.5C35.3954 645.5 34.5 644.605 34.5 643.5ZM36.5 638C37.8807 638 39 639.119 39 640.5V643.5C39 644.881 37.8807 646 36.5 646C35.1193 646 34 644.881 34 643.5V640.5C34 639.119 35.1193 638 36.5 638Z" fill="#5449C2"/>
<path fill-rule="evenodd" clip-rule="evenodd" d="M34.5 678.5V675.5C34.5 674.395 35.3954 673.5 36.5 673.5C37.6046 673.5 38.5 674.395 38.5 675.5V678.5C38.5 679.605 37.6046 680.5 36.5 680.5C35.3954 680.5 34.5 679.605 34.5 678.5ZM36.5 673C37.8807 673 39 674.119 39 675.5V678.5C39 679.881 37.8807 681 36.5 681C35.1193 681 34 679.881 34 678.5V675.5C34 674.119 35.1193 673 36.5 673Z" fill="#5449C2"/>
<path fill-rule="evenodd" clip-rule="evenodd" d="M34.5 870.5V853.5C34.5 852.395 35.3954 851.5 36.5 851.5C37.6046 851.5 38.5 852.395 38.5 853.5V870.5C38.5 871.605 37.6046 872.5 36.5 872.5C35.3954 872.5 34.5 871.605 34.5 870.5ZM36.5 851C37.8807 851 39 852.119 39 853.5V870.5C39 871.881 37.8807 873 36.5 873C35.1193 873 34 871.881 34 870.5V853.5C34 852.119 35.1193 851 36.5 851Z" fill="#5449C2"/>
<path fill-rule="evenodd" clip-rule="evenodd" d="M34.5 905.5V888.5C34.5 887.395 35.3954 886.5 36.5 886.5C37.6046 886.5 38.5 887.395 38.5 888.5V905.5C38.5 906.605 37.6046 907.5 36.5 907.5C35.3954 907.5 34.5 906.605 34.5 905.5ZM36.5 886C37.8807 886 39 887.119 39 888.5V905.5C39 906.881 37.8807 908 36.5 908C35.1193 908 34 906.881 34 905.5V888.5C34 887.119 35.1193 886 36.5 886Z" fill="#5449C2"/>
<path fill-rule="evenodd" clip-rule="evenodd" d="M34.5 505.5V501.5C34.5 500.395 35.3954 499.5 36.5 499.5C37.6046 499.5 38.5 500.395 38.5 501.5V505.5C38.5 506.605 37.6046 507.5 36.5 507.5C35.3954 507.5 34.5 506.605 34.5 505.5ZM36.5 499C37.8807 499 39 500.119 39 501.5V505.5C39 506.881 37.8807 508 36.5 508C35.1193 508 34 506.881 34 505.5V501.5C34 500.119 35.1193 499 36.5 499Z" fill="#5449C2"/>
<path fill-rule="evenodd" clip-rule="evenodd" d="M34.5 487.5V483.5C34.5 482.395 35.3954 481.5 36.5 481.5C37.6046 481.5 38.5 482.395 38.5 483.5V487.5C38.5 488.605 37.6046 489.5 36.5 489.5C35.3954 489.5 34.5 488.605 34.5 487.5ZM36.5 481C37.8807 481 39 482.119 39 483.5V487.5C39 488.881 37.8807 490 36.5 490C35.1193 490 34 488.881 34 487.5V483.5C34 482.119 35.1193 481 36.5 481Z" fill="#5449C2"/>
<path fill-rule="evenodd" clip-rule="evenodd" d="M18.5 399.5V395.5C18.5 394.395 19.3954 393.5 20.5 393.5C21.6046 393.5 22.5 394.395 22.5 395.5V399.5C22.5 400.605 21.6046 401.5 20.5 401.5C19.3954 401.5 18.5 400.605 18.5 399.5ZM20.5 393C21.8807 393 23 394.119 23 395.5V399.5C23 400.881 21.8807 402 20.5 402C19.1193 402 18 400.881 18 399.5V395.5C18 394.119 19.1193 393 20.5 393Z" fill="#5449C2"/>
<path fill-rule="evenodd" clip-rule="evenodd" d="M18.5 335.5V331.5C18.5 330.395 19.3954 329.5 20.5 329.5C21.6046 329.5 22.5 330.395 22.5 331.5V335.5C22.5 336.605 21.6046 337.5 20.5 337.5C19.3954 337.5 18.5 336.605 18.5 335.5ZM20.5 329C21.8807 329 23 330.119 23 331.5V335.5C23 336.881 21.8807 338 20.5 338C19.1193 338 18 336.881 18 335.5V331.5C18 330.119 19.1193 329 20.5 329Z" fill="#5449C2"/>
<path fill-rule="evenodd" clip-rule="evenodd" d="M0.5 222.5V218.5C0.5 217.395 1.39543 216.5 2.5 216.5C3.60457 216.5 4.5 217.395 4.5 218.5V222.5C4.5 223.605 3.60457 224.5 2.5 224.5C1.39543 224.5 0.5 223.605 0.5 222.5ZM2.5 216C3.88071 216 5 217.119 5 218.5V222.5C5 223.881 3.88071 225 2.5 225C1.11929 225 0 223.881 0 222.5V218.5C0 217.119 1.11929 216 2.5 216Z" fill="#5449C2"/>
<path fill-rule="evenodd" clip-rule="evenodd" d="M0.5 302.5V299.5C0.5 298.395 1.39543 297.5 2.5 297.5C3.60457 297.5 4.5 298.395 4.5 299.5V302.5C4.5 303.605 3.60457 304.5 2.5 304.5C1.39543 304.5 0.5 303.605 0.5 302.5ZM2.5 297C3.88071 297 5 298.119 5 299.5V302.5C5 303.881 3.88071 305 2.5 305C1.11929 305 0 303.881 0 302.5V299.5C0 298.119 1.11929 297 2.5 297Z" fill="#5449C2"/>
<path fill-rule="evenodd" clip-rule="evenodd" d="M4.5 311.5C4.5 312.605 3.60457 313.5 2.5 313.5C1.39543 313.5 0.5 312.605 0.5 311.5C0.5 310.395 1.39543 309.5 2.5 309.5C3.60457 309.5 4.5 310.395 4.5 311.5ZM2.5 309C3.88071 309 5 310.119 5 311.5C5 312.881 3.88071 314 2.5 314C1.11929 314 0 312.881 0 311.5C0 310.119 1.11929 309 2.5 309Z" fill="#5449C2"/>
<path fill-rule="evenodd" clip-rule="evenodd" d="M4.5 211.5C4.5 212.605 3.60457 213.5 2.5 213.5C1.39543 213.5 0.5 212.605 0.5 211.5C0.5 210.395 1.39543 209.5 2.5 209.5C3.60457 209.5 4.5 210.395 4.5 211.5ZM2.5 209C3.88071 209 5 210.119 5 211.5C5 212.881 3.88071 214 2.5 214C1.11929 214 0 212.881 0 211.5C0 210.119 1.11929 209 2.5 209Z" fill="#5449C2"/>
<path fill-rule="evenodd" clip-rule="evenodd" d="M4.5 203.5C4.5 204.605 3.60457 205.5 2.5 205.5C1.39543 205.5 0.5 204.605 0.5 203.5C0.5 202.395 1.39543 201.5 2.5 201.5C3.60457 201.5 4.5 202.395 4.5 203.5ZM2.5 201C3.88071 201 5 202.119 5 203.5C5 204.881 3.88071 206 2.5 206C1.11929 206 0 204.881 0 203.5C0 202.119 1.11929 201 2.5 201Z" fill="#5449C2"/>
<path fill-rule="evenodd" clip-rule="evenodd" d="M18.5 347.5V343.5C18.5 342.395 19.3954 341.5 20.5 341.5C21.6046 341.5 22.5 342.395 22.5 343.5V347.5C22.5 348.605 21.6046 349.5 20.5 349.5C19.3954 349.5 18.5 348.605 18.5 347.5ZM20.5 341C21.8807 341 23 342.119 23 343.5V347.5C23 348.881 21.8807 350 20.5 350C19.1193 350 18 348.881 18 347.5V343.5C18 342.119 19.1193 341 20.5 341Z" fill="#5449C2"/>
<path fill-rule="evenodd" clip-rule="evenodd" d="M34.5 689.5V686.5C34.5 685.395 35.3954 684.5 36.5 684.5C37.6046 684.5 38.5 685.395 38.5 686.5V689.5C38.5 690.605 37.6046 691.5 36.5 691.5C35.3954 691.5 34.5 690.605 34.5 689.5ZM36.5 684C37.8807 684 39 685.119 39 686.5V689.5C39 690.881 37.8807 692 36.5 692C35.1193 692 34 690.881 34 689.5V686.5C34 685.119 35.1193 684 36.5 684Z" fill="#5449C2"/>
<path fill-rule="evenodd" clip-rule="evenodd" d="M34.5 398.5V385.5C34.5 384.395 35.3954 383.5 36.5 383.5C37.6046 383.5 38.5 384.395 38.5 385.5V398.5C38.5 399.605 37.6046 400.5 36.5 400.5C35.3954 400.5 34.5 399.605 34.5 398.5ZM36.5 383C37.8807 383 39 384.119 39 385.5V398.5C39 399.881 37.8807 401 36.5 401C35.1193 401 34 399.881 34 398.5V385.5C34 384.119 35.1193 383 36.5 383Z" fill="#5449C2"/>
<path fill-rule="evenodd" clip-rule="evenodd" d="M34.5 299.5V279.5C34.5 278.395 35.3954 277.5 36.5 277.5C37.6046 277.5 38.5 278.395 38.5 279.5V299.5C38.5 300.605 37.6046 301.5 36.5 301.5C35.3954 301.5 34.5 300.605 34.5 299.5ZM36.5 277C37.8807 277 39 278.119 39 279.5V299.5C39 300.881 37.8807 302 36.5 302C35.1193 302 34 300.881 34 299.5V279.5C34 278.119 35.1193 277 36.5 277Z" fill="#5449C2"/>
<path fill-rule="evenodd" clip-rule="evenodd" d="M34.5 330.5V310.5C34.5 309.395 35.3954 308.5 36.5 308.5C37.6046 308.5 38.5 309.395 38.5 310.5V330.5C38.5 331.605 37.6046 332.5 36.5 332.5C35.3954 332.5 34.5 331.605 34.5 330.5ZM36.5 308C37.8807 308 39 309.119 39 310.5V330.5C39 331.881 37.8807 333 36.5 333C35.1193 333 34 331.881 34 330.5V310.5C34 309.119 35.1193 308 36.5 308Z" fill="#5449C2"/>
<path fill-rule="evenodd" clip-rule="evenodd" d="M34.5 351.5V347.5C34.5 346.395 35.3954 345.5 36.5 345.5C37.6046 345.5 38.5 346.395 38.5 347.5V351.5C38.5 352.605 37.6046 353.5 36.5 353.5C35.3954 353.5 34.5 352.605 34.5 351.5ZM36.5 345C37.8807 345 39 346.119 39 347.5V351.5C39 352.881 37.8807 354 36.5 354C35.1193 354 34 352.881 34 351.5V347.5C34 346.119 35.1193 345 36.5 345Z" fill="#5449C2"/>
<path fill-rule="evenodd" clip-rule="evenodd" d="M34.5 134.5V130.5C34.5 129.395 35.3954 128.5 36.5 128.5C37.6046 128.5 38.5 129.395 38.5 130.5V134.5C38.5 135.605 37.6046 136.5 36.5 136.5C35.3954 136.5 34.5 135.605 34.5 134.5ZM36.5 128C37.8807 128 39 129.119 39 130.5V134.5C39 135.881 37.8807 137 36.5 137C35.1193 137 34 135.881 34 134.5V130.5C34 129.119 35.1193 128 36.5 128Z" fill="#5449C2"/>
<path fill-rule="evenodd" clip-rule="evenodd" d="M34.5 145.5V141.5C34.5 140.395 35.3954 139.5 36.5 139.5C37.6046 139.5 38.5 140.395 38.5 141.5V145.5C38.5 146.605 37.6046 147.5 36.5 147.5C35.3954 147.5 34.5 146.605 34.5 145.5ZM36.5 139C37.8807 139 39 140.119 39 141.5V145.5C39 146.881 37.8807 148 36.5 148C35.1193 148 34 146.881 34 145.5V141.5C34 140.119 35.1193 139 36.5 139Z" fill="#5449C2"/>
<path fill-rule="evenodd" clip-rule="evenodd" d="M55.5 55.5V52.5C55.5 51.3954 56.3954 50.5 57.5 50.5C58.6046 50.5 59.5 51.3954 59.5 52.5V55.5C59.5 56.6046 58.6046 57.5 57.5 57.5C56.3954 57.5 55.5 56.6046 55.5 55.5ZM57.5 50C58.8807 50 60 51.1193 60 52.5V55.5C60 56.8807 58.8807 58 57.5 58C56.1193 58 55 56.8807 55 55.5V52.5C55 51.1193 56.1193 50 57.5 50Z" fill="#5449C2"/>
<path fill-rule="evenodd" clip-rule="evenodd" d="M55.5 43.5V39.5C55.5 38.3954 56.3954 37.5 57.5 37.5C58.6046 37.5 59.5 38.3954 59.5 39.5V43.5C59.5 44.6046 58.6046 45.5 57.5 45.5C56.3954 45.5 55.5 44.6046 55.5 43.5ZM57.5 37C58.8807 37 60 38.1193 60 39.5V43.5C60 44.8807 58.8807 46 57.5 46C56.1193 46 55 44.8807 55 43.5V39.5C55 38.1193 56.1193 37 57.5 37Z" fill="#5449C2"/>
<path fill-rule="evenodd" clip-rule="evenodd" d="M34.5 158.5V157.5C34.5 156.395 35.3954 155.5 36.5 155.5C37.6046 155.5 38.5 156.395 38.5 157.5V158.5C38.5 159.605 37.6046 160.5 36.5 160.5C35.3954 160.5 34.5 159.605 34.5 158.5ZM36.5 155C37.8807 155 39 156.119 39 157.5V158.5C39 159.881 37.8807 161 36.5 161C35.1193 161 34 159.881 34 158.5V157.5C34 156.119 35.1193 155 36.5 155Z" fill="#5449C2"/>
<path fill-rule="evenodd" clip-rule="evenodd" d="M34.5 925.5V921.5C34.5 920.395 35.3954 919.5 36.5 919.5C37.6046 919.5 38.5 920.395 38.5 921.5V925.5C38.5 926.605 37.6046 927.5 36.5 927.5C35.3954 927.5 34.5 926.605 34.5 925.5ZM36.5 919C37.8807 919 39 920.119 39 921.5V925.5C39 926.881 37.8807 928 36.5 928C35.1193 928 34 926.881 34 925.5V921.5C34 920.119 35.1193 919 36.5 919Z" fill="#5449C2"/>
<path fill-rule="evenodd" clip-rule="evenodd" d="M34.5 811.5V807.5C34.5 806.395 35.3954 805.5 36.5 805.5C37.6046 805.5 38.5 806.395 38.5 807.5V811.5C38.5 812.605 37.6046 813.5 36.5 813.5C35.3954 813.5 34.5 812.605 34.5 811.5ZM36.5 805C37.8807 805 39 806.119 39 807.5V811.5C39 812.881 37.8807 814 36.5 814C35.1193 814 34 812.881 34 811.5V807.5C34 806.119 35.1193 805 36.5 805Z" fill="#5449C2"/>
<path fill-rule="evenodd" clip-rule="evenodd" d="M34.5 529.5V526.5C34.5 525.395 35.3954 524.5 36.5 524.5C37.6046 524.5 38.5 525.395 38.5 526.5V529.5C38.5 530.605 37.6046 531.5 36.5 531.5C35.3954 531.5 34.5 530.605 34.5 529.5ZM36.5 524C37.8807 524 39 525.119 39 526.5V529.5C39 530.881 37.8807 532 36.5 532C35.1193 532 34 530.881 34 529.5V526.5C34 525.119 35.1193 524 36.5 524Z" fill="#5449C2"/>
<path fill-rule="evenodd" clip-rule="evenodd" d="M38.5 537.5C38.5 538.605 37.6046 539.5 36.5 539.5C35.3954 539.5 34.5 538.605 34.5 537.5C34.5 536.395 35.3954 535.5 36.5 535.5C37.6046 535.5 38.5 536.395 38.5 537.5ZM36.5 535C37.8807 535 39 536.119 39 537.5C39 538.881 37.8807 540 36.5 540C35.1193 540 34 538.881 34 537.5C34 536.119 35.1193 535 36.5 535Z" fill="#5449C2"/>
<path fill-rule="evenodd" clip-rule="evenodd" d="M9.5 496.5V495.5C9.5 494.395 10.3954 493.5 11.5 493.5C12.6046 493.5 13.5 494.395 13.5 495.5V496.5C13.5 497.605 12.6046 498.5 11.5 498.5C10.3954 498.5 9.5 497.605 9.5 496.5ZM11.5 493C12.8807 493 14 494.119 14 495.5V496.5C14 497.881 12.8807 499 11.5 499C10.1193 499 9 497.881 9 496.5V495.5C9 494.119 10.1193 493 11.5 493Z" fill="#5449C2"/>
<path fill-rule="evenodd" clip-rule="evenodd" d="M9.5 509.5V505.5C9.5 504.395 10.3954 503.5 11.5 503.5C12.6046 503.5 13.5 504.395 13.5 505.5V509.5C13.5 510.605 12.6046 511.5 11.5 511.5C10.3954 511.5 9.5 510.605 9.5 509.5ZM11.5 503C12.8807 503 14 504.119 14 505.5V509.5C14 510.881 12.8807 512 11.5 512C10.1193 512 9 510.881 9 509.5V505.5C9 504.119 10.1193 503 11.5 503Z" fill="#5449C2"/>
<path fill-rule="evenodd" clip-rule="evenodd" d="M18.75 149.151V37H19.25V149.151C19.25 154.017 21.2473 158.669 24.7749 162.02L30.5695 167.525C34.1964 170.97 36.25 175.753 36.25 180.756V278H35.75V180.756C35.75 175.891 33.7527 171.238 30.2251 167.887L24.4305 162.383C20.8036 158.937 18.75 154.154 18.75 149.151Z" fill="#5449C2"/>
<path fill-rule="evenodd" clip-rule="evenodd" d="M18.75 224V49H19.25V224H18.75Z" fill="#5449C2"/>
<path fill-rule="evenodd" clip-rule="evenodd" d="M18.75 255V233H19.25V255H18.75Z" fill="#5449C2"/>
<path fill-rule="evenodd" clip-rule="evenodd" d="M1.75 223V250.118C1.75 254.863 3.59801 259.421 6.90222 262.827L13.7389 269.873C16.9526 273.185 18.75 277.618 18.75 282.233V330H19.25V282.233C19.25 277.488 17.402 272.93 14.0978 269.524L7.26111 262.478C4.04742 259.166 2.25 254.733 2.25 250.118V223H1.75Z" fill="#5449C2"/>
<path fill-rule="evenodd" clip-rule="evenodd" d="M1.75 223V297H2.25V223H1.75Z" fill="#5449C2"/>
<path fill-rule="evenodd" clip-rule="evenodd" d="M19.25 922.826V912H18.75V922.826C18.75 927.839 20.8123 932.632 24.4528 936.078L30.2035 941.523C33.7442 944.875 35.75 949.536 35.75 954.412V1068H36.25V954.412C36.25 949.399 34.1877 944.607 30.5472 941.16L24.7965 935.715C21.2558 932.363 19.25 927.702 19.25 922.826Z" fill="#5449C2"/>
<path fill-rule="evenodd" clip-rule="evenodd" d="M35.75 823.772V813H36.25V823.772C36.25 828.792 34.1818 833.591 30.5322 837.038L24.8112 842.443C21.2616 845.796 19.25 850.463 19.25 855.346V876H18.75V855.346C18.75 850.326 20.8182 845.527 24.4678 842.079L30.1888 836.675C33.7384 833.322 35.75 828.655 35.75 823.772Z" fill="#5449C2"/>
<path fill-rule="evenodd" clip-rule="evenodd" d="M35.75 617.772V607H36.25V617.772C36.25 622.792 34.1818 627.591 30.5322 631.038L24.8112 636.443C21.2616 639.796 19.25 644.463 19.25 649.346V670H18.75V649.346C18.75 644.326 20.8182 639.527 24.4678 636.079L30.1888 630.675C33.7384 627.322 35.75 622.655 35.75 617.772Z" fill="#5449C2"/>
<path fill-rule="evenodd" clip-rule="evenodd" d="M31.75 568.087V557H32.25V568.087C32.25 573.051 30.2277 577.801 26.6493 581.242L24.6973 583.119C21.2169 586.465 19.25 591.085 19.25 595.913V617H18.75V595.913C18.75 590.949 20.7723 586.199 24.3507 582.758L26.3027 580.881C29.7831 577.535 31.75 572.915 31.75 568.087Z" fill="#5449C2"/>
<path fill-rule="evenodd" clip-rule="evenodd" d="M35.75 466.967V452H36.25V466.967C36.25 468.957 35.4321 470.859 33.988 472.229L21.356 484.204C20.0115 485.479 19.25 487.25 19.25 489.103V558H18.75V489.103C18.75 487.113 19.5679 485.211 21.012 483.842L33.644 471.866C34.9885 470.591 35.75 468.82 35.75 466.967Z" fill="#5449C2"/>
<path fill-rule="evenodd" clip-rule="evenodd" d="M19.25 739.055V728H18.75V739.055C18.75 744.038 20.7876 748.805 24.3896 752.248L30.2649 757.864C33.7683 761.213 35.75 765.848 35.75 770.695V798H36.25V770.695C36.25 765.712 34.2124 760.945 30.6104 757.502L24.7351 751.886C21.2317 748.537 19.25 743.902 19.25 739.055Z" fill="#5449C2"/>
<path fill-rule="evenodd" clip-rule="evenodd" d="M19.25 732.682V700H18.75V732.682C18.75 737.682 20.8015 742.463 24.4253 745.908L30.2301 751.427C33.7546 754.778 35.75 759.428 35.75 764.291V792H36.25V764.291C36.25 759.291 34.1985 754.51 30.5747 751.065L24.7699 745.546C21.2454 742.195 19.25 737.545 19.25 732.682Z" fill="#5449C2"/>
<path fill-rule="evenodd" clip-rule="evenodd" d="M36.25 525V507H35.75V525H36.25Z" fill="#5449C2"/>
<path fill-rule="evenodd" clip-rule="evenodd" d="M17.5 34.5V30.5C17.5 29.3954 18.3954 28.5 19.5 28.5C20.6046 28.5 21.5 29.3954 21.5 30.5V34.5C21.5 35.6046 20.6046 36.5 19.5 36.5C18.3954 36.5 17.5 35.6046 17.5 34.5ZM19.5 28C20.8807 28 22 29.1193 22 30.5V34.5C22 35.8807 20.8807 37 19.5 37C18.1193 37 17 35.8807 17 34.5V30.5C17 29.1193 18.1193 28 19.5 28Z" fill="#5449C2"/>
<path fill-rule="evenodd" clip-rule="evenodd" d="M35.75 47.9299V129H36.25V47.9299C36.25 43.313 38.0489 38.8778 41.265 35.5654L57.1793 19.1742L56.8207 18.8259L40.9062 35.2171C37.5996 38.6228 35.75 43.183 35.75 47.9299Z" fill="#5449C2"/>
<path fill-rule="evenodd" clip-rule="evenodd" d="M35.75 110.375V129H36.25V110.375C36.25 105.755 38.0512 101.318 41.2709 98.0047L52.0878 86.8743C55.3982 83.4679 57.25 78.9051 57.25 74.1552V58H56.75V74.1552C56.75 78.775 54.9488 83.2128 51.7291 86.5258L40.9122 97.6562C37.6018 101.063 35.75 105.625 35.75 110.375Z" fill="#5449C2"/>
<path fill-rule="evenodd" clip-rule="evenodd" d="M19.5 903.5C18.3954 903.5 17.5 902.605 17.5 901.5C17.5 900.395 18.3954 899.5 19.5 899.5C20.6046 899.5 21.5 900.395 21.5 901.5C21.5 902.605 20.6046 903.5 19.5 903.5ZM19.5 904C18.1193 904 17 902.881 17 901.5C17 900.119 18.1193 899 19.5 899C20.8807 899 22 900.119 22 901.5C22 902.881 20.8807 904 19.5 904Z" fill="#5449C2"/>
<path fill-rule="evenodd" clip-rule="evenodd" d="M6.5 738.5C5.39543 738.5 4.5 737.605 4.5 736.5C4.5 735.395 5.39543 734.5 6.5 734.5C7.60457 734.5 8.5 735.395 8.5 736.5C8.5 737.605 7.60457 738.5 6.5 738.5ZM6.5 739C5.11929 739 4 737.881 4 736.5C4 735.119 5.11929 734 6.5 734C7.88071 734 9 735.119 9 736.5C9 737.881 7.88071 739 6.5 739Z" fill="#5449C2"/>
<path fill-rule="evenodd" clip-rule="evenodd" d="M20.5 673.5C19.3954 673.5 18.5 672.605 18.5 671.5C18.5 670.395 19.3954 669.5 20.5 669.5C21.6046 669.5 22.5 670.395 22.5 671.5C22.5 672.605 21.6046 673.5 20.5 673.5ZM20.5 674C19.1193 674 18 672.881 18 671.5C18 670.119 19.1193 669 20.5 669C21.8807 669 23 670.119 23 671.5C23 672.881 21.8807 674 20.5 674Z" fill="#5449C2"/>
<path fill-rule="evenodd" clip-rule="evenodd" d="M19.5 912.5C18.3954 912.5 17.5 911.605 17.5 910.5C17.5 909.395 18.3954 908.5 19.5 908.5C20.6046 908.5 21.5 909.395 21.5 910.5C21.5 911.605 20.6046 912.5 19.5 912.5ZM19.5 913C18.1193 913 17 911.881 17 910.5C17 909.119 18.1193 908 19.5 908C20.8807 908 22 909.119 22 910.5C22 911.881 20.8807 913 19.5 913Z" fill="#5449C2"/>
<path fill-rule="evenodd" clip-rule="evenodd" d="M19.4431 242.797C14.2384 242.797 10.019 238.578 10.019 233.373C10.019 228.169 14.2384 223.949 19.4431 223.949C24.6479 223.949 28.8672 228.169 28.8672 233.373C28.8672 238.578 24.6479 242.797 19.4431 242.797ZM19.4431 243.297C13.9622 243.297 9.51904 238.854 9.51904 233.373C9.51904 227.892 13.9622 223.449 19.4431 223.449C24.924 223.449 29.3672 227.892 29.3672 233.373C29.3672 238.854 24.924 243.297 19.4431 243.297Z" fill="#5449C2"/>
<path fill-rule="evenodd" clip-rule="evenodd" d="M19.4429 238.483C16.6211 238.483 14.3336 236.195 14.3336 233.373C14.3336 230.552 16.6211 228.264 19.4429 228.264C22.2646 228.264 24.5521 230.552 24.5521 233.373C24.5521 236.195 22.2646 238.483 19.4429 238.483ZM19.4429 238.983C16.345 238.983 13.8336 236.471 13.8336 233.373C13.8336 230.275 16.345 227.764 19.4429 227.764C22.5408 227.764 25.0521 230.275 25.0521 233.373C25.0521 236.471 22.5408 238.983 19.4429 238.983Z" fill="#5449C2"/>
<path fill-rule="evenodd" clip-rule="evenodd" d="M19.5 258.5C16.7386 258.5 14.5 256.261 14.5 253.5C14.5 250.739 16.7386 248.5 19.5 248.5C22.2614 248.5 24.5 250.739 24.5 253.5C24.5 256.261 22.2614 258.5 19.5 258.5ZM19.5 259C16.4624 259 14 256.538 14 253.5C14 250.462 16.4624 248 19.5 248C22.5376 248 25 250.462 25 253.5C25 256.538 22.5376 259 19.5 259Z" fill="#5449C2"/>
<path fill-rule="evenodd" clip-rule="evenodd" d="M60.5 17.5C60.5 18.6046 59.6046 19.5 58.5 19.5C57.3954 19.5 56.5 18.6046 56.5 17.5C56.5 16.3954 57.3954 15.5 58.5 15.5C59.6046 15.5 60.5 16.3954 60.5 17.5ZM58.5 15C59.8807 15 61 16.1193 61 17.5C61 18.8807 59.8807 20 58.5 20C57.1193 20 56 18.8807 56 17.5C56 16.1193 57.1193 15 58.5 15Z" fill="#5449C2"/>
<path fill-rule="evenodd" clip-rule="evenodd" d="M60.5 10.5C60.5 11.6046 59.6046 12.5 58.5 12.5C57.3954 12.5 56.5 11.6046 56.5 10.5C56.5 9.39543 57.3954 8.5 58.5 8.5C59.6046 8.5 60.5 9.39543 60.5 10.5ZM58.5 8C59.8807 8 61 9.11929 61 10.5C61 11.8807 59.8807 13 58.5 13C57.1193 13 56 11.8807 56 10.5C56 9.11929 57.1193 8 58.5 8Z" fill="#5449C2"/>
<path fill-rule="evenodd" clip-rule="evenodd" d="M60.5 2.5C60.5 3.60457 59.6046 4.5 58.5 4.5C57.3954 4.5 56.5 3.60457 56.5 2.5C56.5 1.39543 57.3954 0.5 58.5 0.5C59.6046 0.5 60.5 1.39543 60.5 2.5ZM58.5 0C59.8807 0 61 1.11929 61 2.5C61 3.88071 59.8807 5 58.5 5C57.1193 5 56 3.88071 56 2.5C56 1.11929 57.1193 0 58.5 0Z" fill="#5449C2"/>
<path fill-rule="evenodd" clip-rule="evenodd" d="M31.5 1575V1553C31.5 1550.51 33.5147 1548.5 36 1548.5C38.4853 1548.5 40.5 1550.51 40.5 1553V1575C40.5 1577.49 38.4853 1579.5 36 1579.5C33.5147 1579.5 31.5 1577.49 31.5 1575ZM36 1548C38.7614 1548 41 1550.24 41 1553V1575C41 1577.76 38.7614 1580 36 1580C33.2386 1580 31 1577.76 31 1575V1553C31 1550.24 33.2386 1548 36 1548Z" fill="#5449C2"/>
<path fill-rule="evenodd" clip-rule="evenodd" d="M7 1416.5H28C29.3807 1416.5 30.5 1417.62 30.5 1419V1440C30.5 1441.38 29.3807 1442.5 28 1442.5H7C5.61929 1442.5 4.5 1441.38 4.5 1440V1419C4.5 1417.62 5.61929 1416.5 7 1416.5ZM28 1416C29.6569 1416 31 1417.34 31 1419V1440C31 1441.66 29.6569 1443 28 1443H7C5.34315 1443 4 1441.66 4 1440V1419C4 1417.34 5.34315 1416 7 1416H28Z" fill="#5449C2"/>
<path fill-rule="evenodd" clip-rule="evenodd" d="M13 1422.5H22C23.3807 1422.5 24.5 1423.62 24.5 1425V1434C24.5 1435.38 23.3807 1436.5 22 1436.5H13C11.6193 1436.5 10.5 1435.38 10.5 1434V1425C10.5 1423.62 11.6193 1422.5 13 1422.5ZM22 1422C23.6569 1422 25 1423.34 25 1425V1434C25 1435.66 23.6569 1437 22 1437H13C11.3431 1437 10 1435.66 10 1434V1425C10 1423.34 11.3431 1422 13 1422H22Z" fill="#5449C2"/>
<path fill-rule="evenodd" clip-rule="evenodd" d="M4.5 1916.5V1908.5C4.5 1907.4 5.39543 1906.5 6.5 1906.5C7.60457 1906.5 8.5 1907.4 8.5 1908.5V1916.5C8.5 1917.6 7.60457 1918.5 6.5 1918.5C5.39543 1918.5 4.5 1917.6 4.5 1916.5ZM6.5 1906C7.88071 1906 9 1907.12 9 1908.5V1916.5C9 1917.88 7.88071 1919 6.5 1919C5.11929 1919 4 1917.88 4 1916.5V1908.5C4 1907.12 5.11929 1906 6.5 1906Z" fill="#5449C2"/>
<path fill-rule="evenodd" clip-rule="evenodd" d="M18.5 1695.5V1691.5C18.5 1690.4 19.3954 1689.5 20.5 1689.5C21.6046 1689.5 22.5 1690.4 22.5 1691.5V1695.5C22.5 1696.6 21.6046 1697.5 20.5 1697.5C19.3954 1697.5 18.5 1696.6 18.5 1695.5ZM20.5 1689C21.8807 1689 23 1690.12 23 1691.5V1695.5C23 1696.88 21.8807 1698 20.5 1698C19.1193 1698 18 1696.88 18 1695.5V1691.5C18 1690.12 19.1193 1689 20.5 1689Z" fill="#5449C2"/>
<path fill-rule="evenodd" clip-rule="evenodd" d="M34.5 1733.5V1721.5C34.5 1720.4 35.3954 1719.5 36.5 1719.5C37.6046 1719.5 38.5 1720.4 38.5 1721.5V1733.5C38.5 1734.6 37.6046 1735.5 36.5 1735.5C35.3954 1735.5 34.5 1734.6 34.5 1733.5ZM36.5 1719C37.8807 1719 39 1720.12 39 1721.5V1733.5C39 1734.88 37.8807 1736 36.5 1736C35.1193 1736 34 1734.88 34 1733.5V1721.5C34 1720.12 35.1193 1719 36.5 1719Z" fill="#5449C2"/>
<path fill-rule="evenodd" clip-rule="evenodd" d="M34.5 1601.5V1588.5C34.5 1587.4 35.3954 1586.5 36.5 1586.5C37.6046 1586.5 38.5 1587.4 38.5 1588.5V1601.5C38.5 1602.6 37.6046 1603.5 36.5 1603.5C35.3954 1603.5 34.5 1602.6 34.5 1601.5ZM36.5 1586C37.8807 1586 39 1587.12 39 1588.5V1601.5C39 1602.88 37.8807 1604 36.5 1604C35.1193 1604 34 1602.88 34 1601.5V1588.5C34 1587.12 35.1193 1586 36.5 1586Z" fill="#5449C2"/>
<path fill-rule="evenodd" clip-rule="evenodd" d="M34.5 1640.5V1637.5C34.5 1636.4 35.3954 1635.5 36.5 1635.5C37.6046 1635.5 38.5 1636.4 38.5 1637.5V1640.5C38.5 1641.6 37.6046 1642.5 36.5 1642.5C35.3954 1642.5 34.5 1641.6 34.5 1640.5ZM36.5 1635C37.8807 1635 39 1636.12 39 1637.5V1640.5C39 1641.88 37.8807 1643 36.5 1643C35.1193 1643 34 1641.88 34 1640.5V1637.5C34 1636.12 35.1193 1635 36.5 1635Z" fill="#5449C2"/>
<path fill-rule="evenodd" clip-rule="evenodd" d="M34.5 1675.5V1671.5C34.5 1670.4 35.3954 1669.5 36.5 1669.5C37.6046 1669.5 38.5 1670.4 38.5 1671.5V1675.5C38.5 1676.6 37.6046 1677.5 36.5 1677.5C35.3954 1677.5 34.5 1676.6 34.5 1675.5ZM36.5 1669C37.8807 1669 39 1670.12 39 1671.5V1675.5C39 1676.88 37.8807 1678 36.5 1678C35.1193 1678 34 1676.88 34 1675.5V1671.5C34 1670.12 35.1193 1669 36.5 1669Z" fill="#5449C2"/>
<path fill-rule="evenodd" clip-rule="evenodd" d="M34.5 1867.5V1850.5C34.5 1849.4 35.3954 1848.5 36.5 1848.5C37.6046 1848.5 38.5 1849.4 38.5 1850.5V1867.5C38.5 1868.6 37.6046 1869.5 36.5 1869.5C35.3954 1869.5 34.5 1868.6 34.5 1867.5ZM36.5 1848C37.8807 1848 39 1849.12 39 1850.5V1867.5C39 1868.88 37.8807 1870 36.5 1870C35.1193 1870 34 1868.88 34 1867.5V1850.5C34 1849.12 35.1193 1848 36.5 1848Z" fill="#5449C2"/>
<path fill-rule="evenodd" clip-rule="evenodd" d="M34.5 1902.5V1885.5C34.5 1884.4 35.3954 1883.5 36.5 1883.5C37.6046 1883.5 38.5 1884.4 38.5 1885.5V1902.5C38.5 1903.6 37.6046 1904.5 36.5 1904.5C35.3954 1904.5 34.5 1903.6 34.5 1902.5ZM36.5 1883C37.8807 1883 39 1884.12 39 1885.5V1902.5C39 1903.88 37.8807 1905 36.5 1905C35.1193 1905 34 1903.88 34 1902.5V1885.5C34 1884.12 35.1193 1883 36.5 1883Z" fill="#5449C2"/>
<path fill-rule="evenodd" clip-rule="evenodd" d="M34.5 1501.5V1498.5C34.5 1497.4 35.3954 1496.5 36.5 1496.5C37.6046 1496.5 38.5 1497.4 38.5 1498.5V1501.5C38.5 1502.6 37.6046 1503.5 36.5 1503.5C35.3954 1503.5 34.5 1502.6 34.5 1501.5ZM36.5 1496C37.8807 1496 39 1497.12 39 1498.5V1501.5C39 1502.88 37.8807 1504 36.5 1504C35.1193 1504 34 1502.88 34 1501.5V1498.5C34 1497.12 35.1193 1496 36.5 1496Z" fill="#5449C2"/>
<path fill-rule="evenodd" clip-rule="evenodd" d="M34.5 1484.5V1480.5C34.5 1479.4 35.3954 1478.5 36.5 1478.5C37.6046 1478.5 38.5 1479.4 38.5 1480.5V1484.5C38.5 1485.6 37.6046 1486.5 36.5 1486.5C35.3954 1486.5 34.5 1485.6 34.5 1484.5ZM36.5 1478C37.8807 1478 39 1479.12 39 1480.5V1484.5C39 1485.88 37.8807 1487 36.5 1487C35.1193 1487 34 1485.88 34 1484.5V1480.5C34 1479.12 35.1193 1478 36.5 1478Z" fill="#5449C2"/>
<path fill-rule="evenodd" clip-rule="evenodd" d="M18.5 1396.5V1392.5C18.5 1391.4 19.3954 1390.5 20.5 1390.5C21.6046 1390.5 22.5 1391.4 22.5 1392.5V1396.5C22.5 1397.6 21.6046 1398.5 20.5 1398.5C19.3954 1398.5 18.5 1397.6 18.5 1396.5ZM20.5 1390C21.8807 1390 23 1391.12 23 1392.5V1396.5C23 1397.88 21.8807 1399 20.5 1399C19.1193 1399 18 1397.88 18 1396.5V1392.5C18 1391.12 19.1193 1390 20.5 1390Z" fill="#5449C2"/>
<path fill-rule="evenodd" clip-rule="evenodd" d="M18.5 1331.5V1328.5C18.5 1327.4 19.3954 1326.5 20.5 1326.5C21.6046 1326.5 22.5 1327.4 22.5 1328.5V1331.5C22.5 1332.6 21.6046 1333.5 20.5 1333.5C19.3954 1333.5 18.5 1332.6 18.5 1331.5ZM20.5 1326C21.8807 1326 23 1327.12 23 1328.5V1331.5C23 1332.88 21.8807 1334 20.5 1334C19.1193 1334 18 1332.88 18 1331.5V1328.5C18 1327.12 19.1193 1326 20.5 1326Z" fill="#5449C2"/>
<path fill-rule="evenodd" clip-rule="evenodd" d="M0.5 1218.5V1215.5C0.5 1214.4 1.39543 1213.5 2.5 1213.5C3.60457 1213.5 4.5 1214.4 4.5 1215.5V1218.5C4.5 1219.6 3.60457 1220.5 2.5 1220.5C1.39543 1220.5 0.5 1219.6 0.5 1218.5ZM2.5 1213C3.88071 1213 5 1214.12 5 1215.5V1218.5C5 1219.88 3.88071 1221 2.5 1221C1.11929 1221 0 1219.88 0 1218.5V1215.5C0 1214.12 1.11929 1213 2.5 1213Z" fill="#5449C2"/>
<path fill-rule="evenodd" clip-rule="evenodd" d="M0.5 1299.5V1295.5C0.5 1294.4 1.39543 1293.5 2.5 1293.5C3.60457 1293.5 4.5 1294.4 4.5 1295.5V1299.5C4.5 1300.6 3.60457 1301.5 2.5 1301.5C1.39543 1301.5 0.5 1300.6 0.5 1299.5ZM2.5 1293C3.88071 1293 5 1294.12 5 1295.5V1299.5C5 1300.88 3.88071 1302 2.5 1302C1.11929 1302 0 1300.88 0 1299.5V1295.5C0 1294.12 1.11929 1293 2.5 1293Z" fill="#5449C2"/>
<path fill-rule="evenodd" clip-rule="evenodd" d="M4.5 1308.5C4.5 1309.6 3.60457 1310.5 2.5 1310.5C1.39543 1310.5 0.5 1309.6 0.5 1308.5C0.5 1307.4 1.39543 1306.5 2.5 1306.5C3.60457 1306.5 4.5 1307.4 4.5 1308.5ZM2.5 1306C3.88071 1306 5 1307.12 5 1308.5C5 1309.88 3.88071 1311 2.5 1311C1.11929 1311 0 1309.88 0 1308.5C0 1307.12 1.11929 1306 2.5 1306Z" fill="#5449C2"/>
<path fill-rule="evenodd" clip-rule="evenodd" d="M0.5 1374.5V1367.5C0.5 1366.4 1.39543 1365.5 2.5 1365.5C3.60457 1365.5 4.5 1366.4 4.5 1367.5V1374.5C4.5 1375.6 3.60457 1376.5 2.5 1376.5C1.39543 1376.5 0.5 1375.6 0.5 1374.5ZM2.5 1365C3.88071 1365 5 1366.12 5 1367.5V1374.5C5 1375.88 3.88071 1377 2.5 1377C1.11929 1377 0 1375.88 0 1374.5V1367.5C0 1366.12 1.11929 1365 2.5 1365Z" fill="#5449C2"/>
<path fill-rule="evenodd" clip-rule="evenodd" d="M4.5 1207.5C4.5 1208.6 3.60457 1209.5 2.5 1209.5C1.39543 1209.5 0.5 1208.6 0.5 1207.5C0.5 1206.4 1.39543 1205.5 2.5 1205.5C3.60457 1205.5 4.5 1206.4 4.5 1207.5ZM2.5 1205C3.88071 1205 5 1206.12 5 1207.5C5 1208.88 3.88071 1210 2.5 1210C1.11929 1210 0 1208.88 0 1207.5C0 1206.12 1.11929 1205 2.5 1205Z" fill="#5449C2"/>
<path fill-rule="evenodd" clip-rule="evenodd" d="M4.5 1200.5C4.5 1201.6 3.60457 1202.5 2.5 1202.5C1.39543 1202.5 0.5 1201.6 0.5 1200.5C0.5 1199.4 1.39543 1198.5 2.5 1198.5C3.60457 1198.5 4.5 1199.4 4.5 1200.5ZM2.5 1198C3.88071 1198 5 1199.12 5 1200.5C5 1201.88 3.88071 1203 2.5 1203C1.11929 1203 0 1201.88 0 1200.5C0 1199.12 1.11929 1198 2.5 1198Z" fill="#5449C2"/>
<path fill-rule="evenodd" clip-rule="evenodd" d="M18.5 1344.5V1340.5C18.5 1339.4 19.3954 1338.5 20.5 1338.5C21.6046 1338.5 22.5 1339.4 22.5 1340.5V1344.5C22.5 1345.6 21.6046 1346.5 20.5 1346.5C19.3954 1346.5 18.5 1345.6 18.5 1344.5ZM20.5 1338C21.8807 1338 23 1339.12 23 1340.5V1344.5C23 1345.88 21.8807 1347 20.5 1347C19.1193 1347 18 1345.88 18 1344.5V1340.5C18 1339.12 19.1193 1338 20.5 1338Z" fill="#5449C2"/>
<path fill-rule="evenodd" clip-rule="evenodd" d="M34.5 1686.5V1682.5C34.5 1681.4 35.3954 1680.5 36.5 1680.5C37.6046 1680.5 38.5 1681.4 38.5 1682.5V1686.5C38.5 1687.6 37.6046 1688.5 36.5 1688.5C35.3954 1688.5 34.5 1687.6 34.5 1686.5ZM36.5 1680C37.8807 1680 39 1681.12 39 1682.5V1686.5C39 1687.88 37.8807 1689 36.5 1689C35.1193 1689 34 1687.88 34 1686.5V1682.5C34 1681.12 35.1193 1680 36.5 1680Z" fill="#5449C2"/>
<path fill-rule="evenodd" clip-rule="evenodd" d="M34.5 1395.5V1382.5C34.5 1381.4 35.3954 1380.5 36.5 1380.5C37.6046 1380.5 38.5 1381.4 38.5 1382.5V1395.5C38.5 1396.6 37.6046 1397.5 36.5 1397.5C35.3954 1397.5 34.5 1396.6 34.5 1395.5ZM36.5 1380C37.8807 1380 39 1381.12 39 1382.5V1395.5C39 1396.88 37.8807 1398 36.5 1398C35.1193 1398 34 1396.88 34 1395.5V1382.5C34 1381.12 35.1193 1380 36.5 1380Z" fill="#5449C2"/>
<path fill-rule="evenodd" clip-rule="evenodd" d="M34.5 1295.5V1276.5C34.5 1275.4 35.3954 1274.5 36.5 1274.5C37.6046 1274.5 38.5 1275.4 38.5 1276.5V1295.5C38.5 1296.6 37.6046 1297.5 36.5 1297.5C35.3954 1297.5 34.5 1296.6 34.5 1295.5ZM36.5 1274C37.8807 1274 39 1275.12 39 1276.5V1295.5C39 1296.88 37.8807 1298 36.5 1298C35.1193 1298 34 1296.88 34 1295.5V1276.5C34 1275.12 35.1193 1274 36.5 1274Z" fill="#5449C2"/>
<path fill-rule="evenodd" clip-rule="evenodd" d="M34.5 1326.5V1307.5C34.5 1306.4 35.3954 1305.5 36.5 1305.5C37.6046 1305.5 38.5 1306.4 38.5 1307.5V1326.5C38.5 1327.6 37.6046 1328.5 36.5 1328.5C35.3954 1328.5 34.5 1327.6 34.5 1326.5ZM36.5 1305C37.8807 1305 39 1306.12 39 1307.5V1326.5C39 1327.88 37.8807 1329 36.5 1329C35.1193 1329 34 1327.88 34 1326.5V1307.5C34 1306.12 35.1193 1305 36.5 1305Z" fill="#5449C2"/>
<path fill-rule="evenodd" clip-rule="evenodd" d="M34.5 1347.5V1344.5C34.5 1343.4 35.3954 1342.5 36.5 1342.5C37.6046 1342.5 38.5 1343.4 38.5 1344.5V1347.5C38.5 1348.6 37.6046 1349.5 36.5 1349.5C35.3954 1349.5 34.5 1348.6 34.5 1347.5ZM36.5 1342C37.8807 1342 39 1343.12 39 1344.5V1347.5C39 1348.88 37.8807 1350 36.5 1350C35.1193 1350 34 1348.88 34 1347.5V1344.5C34 1343.12 35.1193 1342 36.5 1342Z" fill="#5449C2"/>
<path fill-rule="evenodd" clip-rule="evenodd" d="M34.5 1130.5V1127.5C34.5 1126.4 35.3954 1125.5 36.5 1125.5C37.6046 1125.5 38.5 1126.4 38.5 1127.5V1130.5C38.5 1131.6 37.6046 1132.5 36.5 1132.5C35.3954 1132.5 34.5 1131.6 34.5 1130.5ZM36.5 1125C37.8807 1125 39 1126.12 39 1127.5V1130.5C39 1131.88 37.8807 1133 36.5 1133C35.1193 1133 34 1131.88 34 1130.5V1127.5C34 1126.12 35.1193 1125 36.5 1125Z" fill="#5449C2"/>
<path fill-rule="evenodd" clip-rule="evenodd" d="M34.5 1142.5V1138.5C34.5 1137.4 35.3954 1136.5 36.5 1136.5C37.6046 1136.5 38.5 1137.4 38.5 1138.5V1142.5C38.5 1143.6 37.6046 1144.5 36.5 1144.5C35.3954 1144.5 34.5 1143.6 34.5 1142.5ZM36.5 1136C37.8807 1136 39 1137.12 39 1138.5V1142.5C39 1143.88 37.8807 1145 36.5 1145C35.1193 1145 34 1143.88 34 1142.5V1138.5C34 1137.12 35.1193 1136 36.5 1136Z" fill="#5449C2"/>
<path fill-rule="evenodd" clip-rule="evenodd" d="M55.5 1052.5V1049.5C55.5 1048.4 56.3954 1047.5 57.5 1047.5C58.6046 1047.5 59.5 1048.4 59.5 1049.5V1052.5C59.5 1053.6 58.6046 1054.5 57.5 1054.5C56.3954 1054.5 55.5 1053.6 55.5 1052.5ZM57.5 1047C58.8807 1047 60 1048.12 60 1049.5V1052.5C60 1053.88 58.8807 1055 57.5 1055C56.1193 1055 55 1053.88 55 1052.5V1049.5C55 1048.12 56.1193 1047 57.5 1047Z" fill="#5449C2"/>
<path fill-rule="evenodd" clip-rule="evenodd" d="M55.5 1040.5V1036.5C55.5 1035.4 56.3954 1034.5 57.5 1034.5C58.6046 1034.5 59.5 1035.4 59.5 1036.5V1040.5C59.5 1041.6 58.6046 1042.5 57.5 1042.5C56.3954 1042.5 55.5 1041.6 55.5 1040.5ZM57.5 1034C58.8807 1034 60 1035.12 60 1036.5V1040.5C60 1041.88 58.8807 1043 57.5 1043C56.1193 1043 55 1041.88 55 1040.5V1036.5C55 1035.12 56.1193 1034 57.5 1034Z" fill="#5449C2"/>
<path fill-rule="evenodd" clip-rule="evenodd" d="M34.5 1155.5V1154.5C34.5 1153.4 35.3954 1152.5 36.5 1152.5C37.6046 1152.5 38.5 1153.4 38.5 1154.5V1155.5C38.5 1156.6 37.6046 1157.5 36.5 1157.5C35.3954 1157.5 34.5 1156.6 34.5 1155.5ZM36.5 1152C37.8807 1152 39 1153.12 39 1154.5V1155.5C39 1156.88 37.8807 1158 36.5 1158C35.1193 1158 34 1156.88 34 1155.5V1154.5C34 1153.12 35.1193 1152 36.5 1152Z" fill="#5449C2"/>
<path fill-rule="evenodd" clip-rule="evenodd" d="M34.5 1922.5V1918.5C34.5 1917.4 35.3954 1916.5 36.5 1916.5C37.6046 1916.5 38.5 1917.4 38.5 1918.5V1922.5C38.5 1923.6 37.6046 1924.5 36.5 1924.5C35.3954 1924.5 34.5 1923.6 34.5 1922.5ZM36.5 1916C37.8807 1916 39 1917.12 39 1918.5V1922.5C39 1923.88 37.8807 1925 36.5 1925C35.1193 1925 34 1923.88 34 1922.5V1918.5C34 1917.12 35.1193 1916 36.5 1916Z" fill="#5449C2"/>
<path fill-rule="evenodd" clip-rule="evenodd" d="M34.5 1808.5V1804.5C34.5 1803.4 35.3954 1802.5 36.5 1802.5C37.6046 1802.5 38.5 1803.4 38.5 1804.5V1808.5C38.5 1809.6 37.6046 1810.5 36.5 1810.5C35.3954 1810.5 34.5 1809.6 34.5 1808.5ZM36.5 1802C37.8807 1802 39 1803.12 39 1804.5V1808.5C39 1809.88 37.8807 1811 36.5 1811C35.1193 1811 34 1809.88 34 1808.5V1804.5C34 1803.12 35.1193 1802 36.5 1802Z" fill="#5449C2"/>
<path fill-rule="evenodd" clip-rule="evenodd" d="M51.5 1709.5V1705.5C51.5 1704.4 52.3954 1703.5 53.5 1703.5C54.6046 1703.5 55.5 1704.4 55.5 1705.5V1709.5C55.5 1710.6 54.6046 1711.5 53.5 1711.5C52.3954 1711.5 51.5 1710.6 51.5 1709.5ZM53.5 1703C54.8807 1703 56 1704.12 56 1705.5V1709.5C56 1710.88 54.8807 1712 53.5 1712C52.1193 1712 51 1710.88 51 1709.5V1705.5C51 1704.12 52.1193 1703 53.5 1703Z" fill="#5449C2"/>
<path fill-rule="evenodd" clip-rule="evenodd" d="M34.5 1526.5V1522.5C34.5 1521.4 35.3954 1520.5 36.5 1520.5C37.6046 1520.5 38.5 1521.4 38.5 1522.5V1526.5C38.5 1527.6 37.6046 1528.5 36.5 1528.5C35.3954 1528.5 34.5 1527.6 34.5 1526.5ZM36.5 1520C37.8807 1520 39 1521.12 39 1522.5V1526.5C39 1527.88 37.8807 1529 36.5 1529C35.1193 1529 34 1527.88 34 1526.5V1522.5C34 1521.12 35.1193 1520 36.5 1520Z" fill="#5449C2"/>
<path fill-rule="evenodd" clip-rule="evenodd" d="M38.5 1534.5C38.5 1535.6 37.6046 1536.5 36.5 1536.5C35.3954 1536.5 34.5 1535.6 34.5 1534.5C34.5 1533.4 35.3954 1532.5 36.5 1532.5C37.6046 1532.5 38.5 1533.4 38.5 1534.5ZM36.5 1532C37.8807 1532 39 1533.12 39 1534.5C39 1535.88 37.8807 1537 36.5 1537C35.1193 1537 34 1535.88 34 1534.5C34 1533.12 35.1193 1532 36.5 1532Z" fill="#5449C2"/>
<path fill-rule="evenodd" clip-rule="evenodd" d="M9.5 1494.5V1492.5C9.5 1491.4 10.3954 1490.5 11.5 1490.5C12.6046 1490.5 13.5 1491.4 13.5 1492.5V1494.5C13.5 1495.6 12.6046 1496.5 11.5 1496.5C10.3954 1496.5 9.5 1495.6 9.5 1494.5ZM11.5 1490C12.8807 1490 14 1491.12 14 1492.5V1494.5C14 1495.88 12.8807 1497 11.5 1497C10.1193 1497 9 1495.88 9 1494.5V1492.5C9 1491.12 10.1193 1490 11.5 1490Z" fill="#5449C2"/>
<path fill-rule="evenodd" clip-rule="evenodd" d="M9.5 1507.5V1502.5C9.5 1501.4 10.3954 1500.5 11.5 1500.5C12.6046 1500.5 13.5 1501.4 13.5 1502.5V1507.5C13.5 1508.6 12.6046 1509.5 11.5 1509.5C10.3954 1509.5 9.5 1508.6 9.5 1507.5ZM11.5 1500C12.8807 1500 14 1501.12 14 1502.5V1507.5C14 1508.88 12.8807 1510 11.5 1510C10.1193 1510 9 1508.88 9 1507.5V1502.5C9 1501.12 10.1193 1500 11.5 1500Z" fill="#5449C2"/>
<path fill-rule="evenodd" clip-rule="evenodd" d="M18.75 1146.15V1034H19.25V1146.15C19.25 1151.02 21.2473 1155.67 24.7749 1159.02L30.5695 1164.52C34.1964 1167.97 36.25 1172.75 36.25 1177.76V1275H35.75V1177.76C35.75 1172.89 33.7527 1168.24 30.2251 1164.89L24.4305 1159.38C20.8036 1155.94 18.75 1151.15 18.75 1146.15Z" fill="#5449C2"/>
<path fill-rule="evenodd" clip-rule="evenodd" d="M18.75 1221V1045H19.25V1221H18.75Z" fill="#5449C2"/>
<path fill-rule="evenodd" clip-rule="evenodd" d="M18.75 1252V1230H19.25V1252H18.75Z" fill="#5449C2"/>
<path fill-rule="evenodd" clip-rule="evenodd" d="M1.75 1220V1246.75C1.75 1251.52 3.62114 1256.11 6.96204 1259.52L13.6808 1266.38C16.9302 1269.69 18.75 1274.15 18.75 1278.8V1326H19.25V1278.8C19.25 1274.02 17.3789 1269.44 14.038 1266.03L7.31921 1259.17C4.06985 1255.85 2.25 1251.39 2.25 1246.75V1220H1.75Z" fill="#5449C2"/>
<path fill-rule="evenodd" clip-rule="evenodd" d="M1.75 1220V1294H2.25V1220H1.75Z" fill="#5449C2"/>
<path fill-rule="evenodd" clip-rule="evenodd" d="M19.25 1919.83V1909H18.75V1919.83C18.75 1924.84 20.8123 1929.63 24.4528 1933.08L30.2035 1938.52C33.7442 1941.88 35.75 1946.54 35.75 1951.41V1976H36.25V1951.41C36.25 1946.4 34.1877 1941.61 30.5472 1938.16L24.7965 1932.72C21.2558 1929.36 19.25 1924.7 19.25 1919.83Z" fill="#5449C2"/>
<path fill-rule="evenodd" clip-rule="evenodd" d="M53.5735 1802.44V1711.5H54.0735V1802.44C54.0735 1807.34 52.1005 1812.04 48.5991 1815.47L24.5743 1839.02C21.1689 1842.36 19.25 1846.93 19.25 1851.7V1873H18.75V1851.7C18.75 1846.8 20.723 1842.1 24.2244 1838.67L48.2491 1815.11C51.6546 1811.78 53.5735 1807.21 53.5735 1802.44Z" fill="#5449C2"/>
<path fill-rule="evenodd" clip-rule="evenodd" d="M35.75 1614.77V1604H36.25V1614.77C36.25 1619.79 34.1818 1624.59 30.5322 1628.04L24.8112 1633.44C21.2616 1636.8 19.25 1641.46 19.25 1646.35V1667H18.75V1646.35C18.75 1641.33 20.8182 1636.53 24.4678 1633.08L30.1888 1627.67C33.7384 1624.32 35.75 1619.65 35.75 1614.77Z" fill="#5449C2"/>
<path fill-rule="evenodd" clip-rule="evenodd" d="M31.75 1564.68V1554H32.25V1564.68C32.25 1569.7 30.1842 1574.5 26.5383 1577.95L24.8052 1579.58C21.2592 1582.94 19.25 1587.6 19.25 1592.48V1613H18.75V1592.48C18.75 1587.46 20.8158 1582.67 24.4617 1579.22L26.1948 1577.58C29.7408 1574.23 31.75 1569.56 31.75 1564.68Z" fill="#5449C2"/>
<path fill-rule="evenodd" clip-rule="evenodd" d="M35.75 1463.97V1398H36.25V1463.97C36.25 1465.96 35.4321 1467.86 33.988 1469.23L21.356 1481.2C20.0115 1482.48 19.25 1484.25 19.25 1486.1V1555H18.75V1486.1C18.75 1484.11 19.5679 1482.21 21.012 1480.84L33.644 1468.87C34.9885 1467.59 35.75 1465.82 35.75 1463.97Z" fill="#5449C2"/>
<path fill-rule="evenodd" clip-rule="evenodd" d="M27.75 1458.17V1442.5H28.25V1458.17C28.25 1459.87 27.5603 1461.49 26.3394 1462.67L13.0078 1475.53C11.8845 1476.62 11.25 1478.11 11.25 1479.67V1491H10.75V1479.67C10.75 1477.98 11.4397 1476.35 12.6606 1475.17L25.9922 1462.31C27.1155 1461.23 27.75 1459.74 27.75 1458.17Z" fill="#5449C2"/>
<path fill-rule="evenodd" clip-rule="evenodd" d="M19.25 1736.06V1725H18.75V1736.06C18.75 1741.04 20.7876 1745.8 24.3896 1749.25L30.2649 1754.86C33.7683 1758.21 35.75 1762.85 35.75 1767.69V1795H36.25V1767.69C36.25 1762.71 34.2124 1757.95 30.6104 1754.5L24.7351 1748.89C21.2317 1745.54 19.25 1740.9 19.25 1736.06Z" fill="#5449C2"/>
<path fill-rule="evenodd" clip-rule="evenodd" d="M19.25 1729.68V1697H18.75V1729.68C18.75 1734.68 20.8015 1739.46 24.4253 1742.91L30.2301 1748.43C33.7546 1751.78 35.75 1756.43 35.75 1761.29V1789H36.25V1761.29C36.25 1756.29 34.1985 1751.51 30.5747 1748.06L24.7699 1742.55C21.2454 1739.2 19.25 1734.54 19.25 1729.68Z" fill="#5449C2"/>
<path fill-rule="evenodd" clip-rule="evenodd" d="M36.25 1522V1504H35.75V1522H36.25Z" fill="#5449C2"/>
<path fill-rule="evenodd" clip-rule="evenodd" d="M17.5 1031.5V1026.5C17.5 1025.4 18.3954 1024.5 19.5 1024.5C20.6046 1024.5 21.5 1025.4 21.5 1026.5V1031.5C21.5 1032.6 20.6046 1033.5 19.5 1033.5C18.3954 1033.5 17.5 1032.6 17.5 1031.5ZM19.5 1024C20.8807 1024 22 1025.12 22 1026.5V1031.5C22 1032.88 20.8807 1034 19.5 1034C18.1193 1034 17 1032.88 17 1031.5V1026.5C17 1025.12 18.1193 1024 19.5 1024Z" fill="#5449C2"/>
<path fill-rule="evenodd" clip-rule="evenodd" d="M35.75 1044.93V1126H36.25V1044.93C36.25 1040.31 38.0489 1035.88 41.265 1032.57L57.1793 1016.17L56.8207 1015.83L40.9062 1032.22C37.5996 1035.62 35.75 1040.18 35.75 1044.93Z" fill="#5449C2"/>
<path fill-rule="evenodd" clip-rule="evenodd" d="M35.75 1107.38V1126H36.25V1107.38C36.25 1102.76 38.0512 1098.32 41.2709 1095L52.0878 1083.87C55.3982 1080.47 57.25 1075.91 57.25 1071.16V1055H56.75V1071.16C56.75 1075.77 54.9488 1080.21 51.7291 1083.53L40.9122 1094.66C37.6018 1098.06 35.75 1102.63 35.75 1107.38Z" fill="#5449C2"/>
<path fill-rule="evenodd" clip-rule="evenodd" d="M20.5 1894.5C19.3954 1894.5 18.5 1893.6 18.5 1892.5C18.5 1891.4 19.3954 1890.5 20.5 1890.5C21.6046 1890.5 22.5 1891.4 22.5 1892.5C22.5 1893.6 21.6046 1894.5 20.5 1894.5ZM20.5 1895C19.1193 1895 18 1893.88 18 1892.5C18 1891.12 19.1193 1890 20.5 1890C21.8807 1890 23 1891.12 23 1892.5C23 1893.88 21.8807 1895 20.5 1895Z" fill="#5449C2"/>
<path fill-rule="evenodd" clip-rule="evenodd" d="M6.5 1735.5C5.39543 1735.5 4.5 1734.6 4.5 1733.5C4.5 1732.4 5.39543 1731.5 6.5 1731.5C7.60457 1731.5 8.5 1732.4 8.5 1733.5C8.5 1734.6 7.60457 1735.5 6.5 1735.5ZM6.5 1736C5.11929 1736 4 1734.88 4 1733.5C4 1732.12 5.11929 1731 6.5 1731C7.88071 1731 9 1732.12 9 1733.5C9 1734.88 7.88071 1736 6.5 1736Z" fill="#5449C2"/>
<path fill-rule="evenodd" clip-rule="evenodd" d="M20.5 1669.5C19.2855 1669.5 18.5 1668.73 18.5 1668C18.5 1667.27 19.2855 1666.5 20.5 1666.5C21.7145 1666.5 22.5 1667.27 22.5 1668C22.5 1668.73 21.7145 1669.5 20.5 1669.5ZM20.5 1670C19.1193 1670 18 1669.1 18 1668C18 1666.9 19.1193 1666 20.5 1666C21.8807 1666 23 1666.9 23 1668C23 1669.1 21.8807 1670 20.5 1670Z" fill="#5449C2"/>
<path fill-rule="evenodd" clip-rule="evenodd" d="M20.5 1903.5C19.3954 1903.5 18.5 1902.6 18.5 1901.5C18.5 1900.4 19.3954 1899.5 20.5 1899.5C21.6046 1899.5 22.5 1900.4 22.5 1901.5C22.5 1902.6 21.6046 1903.5 20.5 1903.5ZM20.5 1904C19.1193 1904 18 1902.88 18 1901.5C18 1900.12 19.1193 1899 20.5 1899C21.8807 1899 23 1900.12 23 1901.5C23 1902.88 21.8807 1904 20.5 1904Z" fill="#5449C2"/>
<path fill-rule="evenodd" clip-rule="evenodd" d="M19.4431 1239.54C14.2384 1239.54 10.019 1235.33 10.019 1230.12C10.019 1224.92 14.2384 1220.7 19.4431 1220.7C24.6479 1220.7 28.8672 1224.92 28.8672 1230.12C28.8672 1235.33 24.6479 1239.54 19.4431 1239.54ZM19.4431 1240.04C13.9622 1240.04 9.51904 1235.6 9.51904 1230.12C9.51904 1224.64 13.9622 1220.2 19.4431 1220.2C24.924 1220.2 29.3672 1224.64 29.3672 1230.12C29.3672 1235.6 24.924 1240.04 19.4431 1240.04Z" fill="#5449C2"/>
<path fill-rule="evenodd" clip-rule="evenodd" d="M19.4429 1235.23C16.6211 1235.23 14.3336 1232.94 14.3336 1230.12C14.3336 1227.3 16.6211 1225.01 19.4429 1225.01C22.2646 1225.01 24.5521 1227.3 24.5521 1230.12C24.5521 1232.94 22.2646 1235.23 19.4429 1235.23ZM19.4429 1235.73C16.345 1235.73 13.8336 1233.22 13.8336 1230.12C13.8336 1227.02 16.345 1224.51 19.4429 1224.51C22.5408 1224.51 25.0521 1227.02 25.0521 1230.12C25.0521 1233.22 22.5408 1235.73 19.4429 1235.73Z" fill="#5449C2"/>
<path fill-rule="evenodd" clip-rule="evenodd" d="M19.5 1255.5C16.7386 1255.5 14.5 1253.26 14.5 1250.5C14.5 1247.74 16.7386 1245.5 19.5 1245.5C22.2614 1245.5 24.5 1247.74 24.5 1250.5C24.5 1253.26 22.2614 1255.5 19.5 1255.5ZM19.5 1256C16.4624 1256 14 1253.54 14 1250.5C14 1247.46 16.4624 1245 19.5 1245C22.5376 1245 25 1247.46 25 1250.5C25 1253.54 22.5376 1256 19.5 1256Z" fill="#5449C2"/>
<path fill-rule="evenodd" clip-rule="evenodd" d="M60.5 1014.5C60.5 1015.6 59.6046 1016.5 58.5 1016.5C57.3954 1016.5 56.5 1015.6 56.5 1014.5C56.5 1013.4 57.3954 1012.5 58.5 1012.5C59.6046 1012.5 60.5 1013.4 60.5 1014.5ZM58.5 1012C59.8807 1012 61 1013.12 61 1014.5C61 1015.88 59.8807 1017 58.5 1017C57.1193 1017 56 1015.88 56 1014.5C56 1013.12 57.1193 1012 58.5 1012Z" fill="#5449C2"/>
<path fill-rule="evenodd" clip-rule="evenodd" d="M60.5 1006.5C60.5 1007.6 59.6046 1008.5 58.5 1008.5C57.3954 1008.5 56.5 1007.6 56.5 1006.5C56.5 1005.4 57.3954 1004.5 58.5 1004.5C59.6046 1004.5 60.5 1005.4 60.5 1006.5ZM58.5 1004C59.8807 1004 61 1005.12 61 1006.5C61 1007.88 59.8807 1009 58.5 1009C57.1193 1009 56 1007.88 56 1006.5C56 1005.12 57.1193 1004 58.5 1004Z" fill="#5449C2"/>
<path fill-rule="evenodd" clip-rule="evenodd" d="M60.5 999.5C60.5 1000.6 59.6046 1001.5 58.5 1001.5C57.3954 1001.5 56.5 1000.6 56.5 999.5C56.5 998.395 57.3954 997.5 58.5 997.5C59.6046 997.5 60.5 998.395 60.5 999.5ZM58.5 997C59.8807 997 61 998.119 61 999.5C61 1000.88 59.8807 1002 58.5 1002C57.1193 1002 56 1000.88 56 999.5C56 998.119 57.1193 997 58.5 997Z" fill="#5449C2"/>
<path fill-rule="evenodd" clip-rule="evenodd" d="M4 2483.5H8C9.38071 2483.5 10.5 2484.62 10.5 2486V2490C10.5 2491.38 9.38071 2492.5 8 2492.5H4C2.61929 2492.5 1.5 2491.38 1.5 2490V2486C1.5 2484.62 2.61929 2483.5 4 2483.5ZM8 2483C9.65685 2483 11 2484.34 11 2486V2490C11 2491.66 9.65685 2493 8 2493H4C2.34315 2493 1 2491.66 1 2490V2486C1 2484.34 2.34315 2483 4 2483H8Z" fill="#5449C2"/>
<path fill-rule="evenodd" clip-rule="evenodd" d="M16.5 2190.5V2182.5C16.5 2181.4 17.3954 2180.5 18.5 2180.5C19.6046 2180.5 20.5 2181.4 20.5 2182.5V2190.5C20.5 2191.6 19.6046 2192.5 18.5 2192.5C17.3954 2192.5 16.5 2191.6 16.5 2190.5ZM18.5 2180C19.8807 2180 21 2181.12 21 2182.5V2190.5C21 2191.88 19.8807 2193 18.5 2193C17.1193 2193 16 2191.88 16 2190.5V2182.5C16 2181.12 17.1193 2180 18.5 2180Z" fill="#5449C2"/>
<path fill-rule="evenodd" clip-rule="evenodd" d="M16.5 2003.5V1990.5C16.5 1989.4 17.3954 1988.5 18.5 1988.5C19.6046 1988.5 20.5 1989.4 20.5 1990.5V2003.5C20.5 2004.6 19.6046 2005.5 18.5 2005.5C17.3954 2005.5 16.5 2004.6 16.5 2003.5ZM18.5 1988C19.8807 1988 21 1989.12 21 1990.5V2003.5C21 2004.88 19.8807 2006 18.5 2006C17.1193 2006 16 2004.88 16 2003.5V1990.5C16 1989.12 17.1193 1988 18.5 1988Z" fill="#5449C2"/>
<path fill-rule="evenodd" clip-rule="evenodd" d="M34.5 2041.5V2029.5C34.5 2028.4 35.3954 2027.5 36.5 2027.5C37.6046 2027.5 38.5 2028.4 38.5 2029.5V2041.5C38.5 2042.6 37.6046 2043.5 36.5 2043.5C35.3954 2043.5 34.5 2042.6 34.5 2041.5ZM36.5 2027C37.8807 2027 39 2028.12 39 2029.5V2041.5C39 2042.88 37.8807 2044 36.5 2044C35.1193 2044 34 2042.88 34 2041.5V2029.5C34 2028.12 35.1193 2027 36.5 2027Z" fill="#5449C2"/>
<path fill-rule="evenodd" clip-rule="evenodd" d="M34.5 2019.5V2007.5C34.5 2006.4 35.3954 2005.5 36.5 2005.5C37.6046 2005.5 38.5 2006.4 38.5 2007.5V2019.5C38.5 2020.6 37.6046 2021.5 36.5 2021.5C35.3954 2021.5 34.5 2020.6 34.5 2019.5ZM36.5 2005C37.8807 2005 39 2006.12 39 2007.5V2019.5C39 2020.88 37.8807 2022 36.5 2022C35.1193 2022 34 2020.88 34 2019.5V2007.5C34 2006.12 35.1193 2005 36.5 2005Z" fill="#5449C2"/>
<path fill-rule="evenodd" clip-rule="evenodd" d="M34.5 2175.5V2158.5C34.5 2157.4 35.3954 2156.5 36.5 2156.5C37.6046 2156.5 38.5 2157.4 38.5 2158.5V2175.5C38.5 2176.6 37.6046 2177.5 36.5 2177.5C35.3954 2177.5 34.5 2176.6 34.5 2175.5ZM36.5 2156C37.8807 2156 39 2157.12 39 2158.5V2175.5C39 2176.88 37.8807 2178 36.5 2178C35.1193 2178 34 2176.88 34 2175.5V2158.5C34 2157.12 35.1193 2156 36.5 2156Z" fill="#5449C2"/>
<path fill-rule="evenodd" clip-rule="evenodd" d="M34.5 2210.5V2193.5C34.5 2192.4 35.3954 2191.5 36.5 2191.5C37.6046 2191.5 38.5 2192.4 38.5 2193.5V2210.5C38.5 2211.6 37.6046 2212.5 36.5 2212.5C35.3954 2212.5 34.5 2211.6 34.5 2210.5ZM36.5 2191C37.8807 2191 39 2192.12 39 2193.5V2210.5C39 2211.88 37.8807 2213 36.5 2213C35.1193 2213 34 2211.88 34 2210.5V2193.5C34 2192.12 35.1193 2191 36.5 2191Z" fill="#5449C2"/>
<path fill-rule="evenodd" clip-rule="evenodd" d="M34.5 1997.5V1977.5C34.5 1976.4 35.3954 1975.5 36.5 1975.5C37.6046 1975.5 38.5 1976.4 38.5 1977.5V1997.5C38.5 1998.6 37.6046 1999.5 36.5 1999.5C35.3954 1999.5 34.5 1998.6 34.5 1997.5ZM36.5 1975C37.8807 1975 39 1976.12 39 1977.5V1997.5C39 1998.88 37.8807 2000 36.5 2000C35.1193 2000 34 1998.88 34 1997.5V1977.5C34 1976.12 35.1193 1975 36.5 1975Z" fill="#5449C2"/>
<path fill-rule="evenodd" clip-rule="evenodd" d="M22.5 1980.5V1977.5C22.5 1976.4 23.3954 1975.5 24.5 1975.5C25.6046 1975.5 26.5 1976.4 26.5 1977.5V1980.5C26.5 1981.6 25.6046 1982.5 24.5 1982.5C23.3954 1982.5 22.5 1981.6 22.5 1980.5ZM24.5 1975C25.8807 1975 27 1976.12 27 1977.5V1980.5C27 1981.88 25.8807 1983 24.5 1983C23.1193 1983 22 1981.88 22 1980.5V1977.5C22 1976.12 23.1193 1975 24.5 1975Z" fill="#5449C2"/>
<path fill-rule="evenodd" clip-rule="evenodd" d="M34.5 2230.5V2226.5C34.5 2225.4 35.3954 2224.5 36.5 2224.5C37.6046 2224.5 38.5 2225.4 38.5 2226.5V2230.5C38.5 2231.6 37.6046 2232.5 36.5 2232.5C35.3954 2232.5 34.5 2231.6 34.5 2230.5ZM36.5 2224C37.8807 2224 39 2225.12 39 2226.5V2230.5C39 2231.88 37.8807 2233 36.5 2233C35.1193 2233 34 2231.88 34 2230.5V2226.5C34 2225.12 35.1193 2224 36.5 2224Z" fill="#5449C2"/>
<path fill-rule="evenodd" clip-rule="evenodd" d="M34.5 2116.5V2112.5C34.5 2111.4 35.3954 2110.5 36.5 2110.5C37.6046 2110.5 38.5 2111.4 38.5 2112.5V2116.5C38.5 2117.6 37.6046 2118.5 36.5 2118.5C35.3954 2118.5 34.5 2117.6 34.5 2116.5ZM36.5 2110C37.8807 2110 39 2111.12 39 2112.5V2116.5C39 2117.88 37.8807 2119 36.5 2119C35.1193 2119 34 2117.88 34 2116.5V2112.5C34 2111.12 35.1193 2110 36.5 2110Z" fill="#5449C2"/>
<path fill-rule="evenodd" clip-rule="evenodd" d="M19.25 2227.83V2217H18.75V2227.83C18.75 2232.84 20.8123 2237.63 24.4528 2241.08L30.2035 2246.52C33.7442 2249.88 35.75 2254.54 35.75 2259.41V2373H36.25V2259.41C36.25 2254.4 34.1877 2249.61 30.5472 2246.16L24.7965 2240.72C21.2558 2237.36 19.25 2232.7 19.25 2227.83Z" fill="#5449C2"/>
<path fill-rule="evenodd" clip-rule="evenodd" d="M35.75 2128.77V2118H36.25V2128.77C36.25 2133.79 34.1818 2138.59 30.5322 2142.04L24.8112 2147.44C21.2616 2150.8 19.25 2155.46 19.25 2160.35V2181H18.75V2160.35C18.75 2155.33 20.8182 2150.53 24.4678 2147.08L30.1888 2141.67C33.7384 2138.32 35.75 2133.65 35.75 2128.77Z" fill="#5449C2"/>
<path fill-rule="evenodd" clip-rule="evenodd" d="M19.25 2044.06V2033H18.75V2044.06C18.75 2049.04 20.7876 2053.8 24.3896 2057.25L30.2649 2062.86C33.7683 2066.21 35.75 2070.85 35.75 2075.69V2103H36.25V2075.69C36.25 2070.71 34.2124 2065.95 30.6104 2062.5L24.7351 2056.89C21.2317 2053.54 19.25 2048.9 19.25 2044.06Z" fill="#5449C2"/>
<path fill-rule="evenodd" clip-rule="evenodd" d="M19.25 2037.68V2005H18.75V2037.68C18.75 2042.68 20.8015 2047.46 24.4253 2050.91L30.2301 2056.43C33.7546 2059.78 35.75 2064.43 35.75 2069.29V2097H36.25V2069.29C36.25 2064.29 34.1985 2059.51 30.5747 2056.06L24.7699 2050.55C21.2454 2047.2 19.25 2042.54 19.25 2037.68Z" fill="#5449C2"/>
<path fill-rule="evenodd" clip-rule="evenodd" d="M20.5 2208.5C19.3954 2208.5 18.5 2207.6 18.5 2206.5C18.5 2205.4 19.3954 2204.5 20.5 2204.5C21.6046 2204.5 22.5 2205.4 22.5 2206.5C22.5 2207.6 21.6046 2208.5 20.5 2208.5ZM20.5 2209C19.1193 2209 18 2207.88 18 2206.5C18 2205.12 19.1193 2204 20.5 2204C21.8807 2204 23 2205.12 23 2206.5C23 2207.88 21.8807 2209 20.5 2209Z" fill="#5449C2"/>
<path fill-rule="evenodd" clip-rule="evenodd" d="M6.5 2043.5C5.39543 2043.5 4.5 2042.6 4.5 2041.5C4.5 2040.4 5.39543 2039.5 6.5 2039.5C7.60457 2039.5 8.5 2040.4 8.5 2041.5C8.5 2042.6 7.60457 2043.5 6.5 2043.5ZM6.5 2044C5.11929 2044 4 2042.88 4 2041.5C4 2040.12 5.11929 2039 6.5 2039C7.88071 2039 9 2040.12 9 2041.5C9 2042.88 7.88071 2044 6.5 2044Z" fill="#5449C2"/>
<path fill-rule="evenodd" clip-rule="evenodd" d="M20.5 2217.5C19.3954 2217.5 18.5 2216.6 18.5 2215.5C18.5 2214.4 19.3954 2213.5 20.5 2213.5C21.6046 2213.5 22.5 2214.4 22.5 2215.5C22.5 2216.6 21.6046 2217.5 20.5 2217.5ZM20.5 2218C19.1193 2218 18 2216.88 18 2215.5C18 2214.12 19.1193 2213 20.5 2213C21.8807 2213 23 2214.12 23 2215.5C23 2216.88 21.8807 2218 20.5 2218Z" fill="#5449C2"/>
<path fill-rule="evenodd" clip-rule="evenodd" d="M19.5 2339.5C17.8431 2339.5 16.5 2338.16 16.5 2336.5C16.5 2334.84 17.8431 2333.5 19.5 2333.5C21.1569 2333.5 22.5 2334.84 22.5 2336.5C22.5 2338.16 21.1569 2339.5 19.5 2339.5ZM19.5 2340C17.567 2340 16 2338.43 16 2336.5C16 2334.57 17.567 2333 19.5 2333C21.433 2333 23 2334.57 23 2336.5C23 2338.43 21.433 2340 19.5 2340Z" fill="#5449C2"/>
<path fill-rule="evenodd" clip-rule="evenodd" d="M55.5 2357.5V2354.5C55.5 2353.4 56.3954 2352.5 57.5 2352.5C58.6046 2352.5 59.5 2353.4 59.5 2354.5V2357.5C59.5 2358.6 58.6046 2359.5 57.5 2359.5C56.3954 2359.5 55.5 2358.6 55.5 2357.5ZM57.5 2352C58.8807 2352 60 2353.12 60 2354.5V2357.5C60 2358.88 58.8807 2360 57.5 2360C56.1193 2360 55 2358.88 55 2357.5V2354.5C55 2353.12 56.1193 2352 57.5 2352Z" fill="#5449C2"/>
<path fill-rule="evenodd" clip-rule="evenodd" d="M55.5 2345.5V2341.5C55.5 2340.4 56.3954 2339.5 57.5 2339.5C58.6046 2339.5 59.5 2340.4 59.5 2341.5V2345.5C59.5 2346.6 58.6046 2347.5 57.5 2347.5C56.3954 2347.5 55.5 2346.6 55.5 2345.5ZM57.5 2339C58.8807 2339 60 2340.12 60 2341.5V2345.5C60 2346.88 58.8807 2348 57.5 2348C56.1193 2348 55 2346.88 55 2345.5V2341.5C55 2340.12 56.1193 2339 57.5 2339Z" fill="#5449C2"/>
<path fill-rule="evenodd" clip-rule="evenodd" d="M18.75 2451.15V2339H19.25V2451.15C19.25 2456.02 21.2473 2460.67 24.7749 2464.02L30.5695 2469.52C34.1964 2472.97 36.25 2477.75 36.25 2482.76V2580H35.75V2482.76C35.75 2477.89 33.7527 2473.24 30.2251 2469.89L24.4305 2464.38C20.8036 2460.94 18.75 2456.15 18.75 2451.15Z" fill="#5449C2"/>
<path fill-rule="evenodd" clip-rule="evenodd" d="M18.75 2526V2350H19.25V2526H18.75Z" fill="#5449C2"/>
<path fill-rule="evenodd" clip-rule="evenodd" d="M4.5 2407V2394C4.5 2393.17 5.17157 2392.5 6 2392.5C6.82843 2392.5 7.5 2393.17 7.5 2394V2407C7.5 2407.83 6.82843 2408.5 6 2408.5C5.17157 2408.5 4.5 2407.83 4.5 2407ZM6 2392C7.10457 2392 8 2392.9 8 2394V2407C8 2408.1 7.10457 2409 6 2409C4.89543 2409 4 2408.1 4 2407V2394C4 2392.9 4.89543 2392 6 2392Z" fill="#5449C2"/>
<path fill-rule="evenodd" clip-rule="evenodd" d="M4.5 2427V2414C4.5 2413.17 5.17157 2412.5 6 2412.5C6.82843 2412.5 7.5 2413.17 7.5 2414V2427C7.5 2427.83 6.82843 2428.5 6 2428.5C5.17157 2428.5 4.5 2427.83 4.5 2427ZM6 2412C7.10457 2412 8 2412.9 8 2414V2427C8 2428.1 7.10457 2429 6 2429C4.89543 2429 4 2428.1 4 2427V2414C4 2412.9 4.89543 2412 6 2412Z" fill="#5449C2"/>
<path fill-rule="evenodd" clip-rule="evenodd" d="M4.5 2435V2434C4.5 2433.17 5.17157 2432.5 6 2432.5C6.82843 2432.5 7.5 2433.17 7.5 2434V2435C7.5 2435.83 6.82843 2436.5 6 2436.5C5.17157 2436.5 4.5 2435.83 4.5 2435ZM6 2432C7.10457 2432 8 2432.9 8 2434V2435C8 2436.1 7.10457 2437 6 2437C4.89543 2437 4 2436.1 4 2435V2434C4 2432.9 4.89543 2432 6 2432Z" fill="#5449C2"/>
<path fill-rule="evenodd" clip-rule="evenodd" d="M17.5 2540V2527C17.5 2526.17 18.1716 2525.5 19 2525.5C19.8284 2525.5 20.5 2526.17 20.5 2527V2540C20.5 2540.83 19.8284 2541.5 19 2541.5C18.1716 2541.5 17.5 2540.83 17.5 2540ZM19 2525C20.1046 2525 21 2525.9 21 2527V2540C21 2541.1 20.1046 2542 19 2542C17.8954 2542 17 2541.1 17 2540V2527C17 2525.9 17.8954 2525 19 2525Z" fill="#5449C2"/>
<path fill-rule="evenodd" clip-rule="evenodd" d="M17.5 2548V2547C17.5 2546.17 18.1716 2545.5 19 2545.5C19.8284 2545.5 20.5 2546.17 20.5 2547V2548C20.5 2548.83 19.8284 2549.5 19 2549.5C18.1716 2549.5 17.5 2548.83 17.5 2548ZM19 2545C20.1046 2545 21 2545.9 21 2547V2548C21 2549.1 20.1046 2550 19 2550C17.8954 2550 17 2549.1 17 2548V2547C17 2545.9 17.8954 2545 19 2545Z" fill="#5449C2"/>
<path fill-rule="evenodd" clip-rule="evenodd" d="M34.5 2433V2432C34.5 2431.17 35.1716 2430.5 36 2430.5C36.8284 2430.5 37.5 2431.17 37.5 2432V2433C37.5 2433.83 36.8284 2434.5 36 2434.5C35.1716 2434.5 34.5 2433.83 34.5 2433ZM36 2430C37.1046 2430 38 2430.9 38 2432V2433C38 2434.1 37.1046 2435 36 2435C34.8954 2435 34 2434.1 34 2433V2432C34 2430.9 34.8954 2430 36 2430Z" fill="#5449C2"/>
<path fill-rule="evenodd" clip-rule="evenodd" d="M34.5 2583V2582C34.5 2581.17 35.1716 2580.5 36 2580.5C36.8284 2580.5 37.5 2581.17 37.5 2582V2583C37.5 2583.83 36.8284 2584.5 36 2584.5C35.1716 2584.5 34.5 2583.83 34.5 2583ZM36 2580C37.1046 2580 38 2580.9 38 2582V2583C38 2584.1 37.1046 2585 36 2585C34.8954 2585 34 2584.1 34 2583V2582C34 2580.9 34.8954 2580 36 2580Z" fill="#5449C2"/>
<path fill-rule="evenodd" clip-rule="evenodd" d="M4.5 2443V2442C4.5 2441.17 5.17157 2440.5 6 2440.5C6.82843 2440.5 7.5 2441.17 7.5 2442V2443C7.5 2443.83 6.82843 2444.5 6 2444.5C5.17157 2444.5 4.5 2443.83 4.5 2443ZM6 2440C7.10457 2440 8 2440.9 8 2442V2443C8 2444.1 7.10457 2445 6 2445C4.89543 2445 4 2444.1 4 2443V2442C4 2440.9 4.89543 2440 6 2440Z" fill="#5449C2"/>
<path fill-rule="evenodd" clip-rule="evenodd" d="M35.75 2349.93V2431H36.25V2349.93C36.25 2345.31 38.0489 2340.88 41.265 2337.57L57.1793 2321.17L56.8207 2320.83L40.9062 2337.22C37.5996 2340.62 35.75 2345.18 35.75 2349.93Z" fill="#5449C2"/>
<path fill-rule="evenodd" clip-rule="evenodd" d="M35.75 2412.38V2431H36.25V2412.38C36.25 2407.76 38.0512 2403.32 41.2709 2400L52.0878 2388.87C55.3982 2385.47 57.25 2380.91 57.25 2376.16V2360H56.75V2376.16C56.75 2380.78 54.9488 2385.21 51.7291 2388.53L40.9122 2399.66C37.6018 2403.06 35.75 2407.63 35.75 2412.38Z" fill="#5449C2"/>
<path fill-rule="evenodd" clip-rule="evenodd" d="M60.5 2319.5C60.5 2320.6 59.6046 2321.5 58.5 2321.5C57.3954 2321.5 56.5 2320.6 56.5 2319.5C56.5 2318.4 57.3954 2317.5 58.5 2317.5C59.6046 2317.5 60.5 2318.4 60.5 2319.5ZM58.5 2317C59.8807 2317 61 2318.12 61 2319.5C61 2320.88 59.8807 2322 58.5 2322C57.1193 2322 56 2320.88 56 2319.5C56 2318.12 57.1193 2317 58.5 2317Z" fill="#5449C2"/>
<path fill-rule="evenodd" clip-rule="evenodd" d="M60.5 2311.5C60.5 2312.6 59.6046 2313.5 58.5 2313.5C57.3954 2313.5 56.5 2312.6 56.5 2311.5C56.5 2310.4 57.3954 2309.5 58.5 2309.5C59.6046 2309.5 60.5 2310.4 60.5 2311.5ZM58.5 2309C59.8807 2309 61 2310.12 61 2311.5C61 2312.88 59.8807 2314 58.5 2314C57.1193 2314 56 2312.88 56 2311.5C56 2310.12 57.1193 2309 58.5 2309Z" fill="#5449C2"/>
<path fill-rule="evenodd" clip-rule="evenodd" d="M60.5 2304.5C60.5 2305.6 59.6046 2306.5 58.5 2306.5C57.3954 2306.5 56.5 2305.6 56.5 2304.5C56.5 2303.4 57.3954 2302.5 58.5 2302.5C59.6046 2302.5 60.5 2303.4 60.5 2304.5ZM58.5 2302C59.8807 2302 61 2303.12 61 2304.5C61 2305.88 59.8807 2307 58.5 2307C57.1193 2307 56 2305.88 56 2304.5C56 2303.12 57.1193 2302 58.5 2302Z" fill="#5449C2"/>
</svg>
