<svg width="61" height="2585" viewBox="0 0 61 2585" fill="none" xmlns="http://www.w3.org/2000/svg">
<path fill-rule="evenodd" clip-rule="evenodd" d="M29.5 578V556C29.5 553.515 27.4853 551.5 25 551.5C22.5147 551.5 20.5 553.515 20.5 556V578C20.5 580.485 22.5147 582.5 25 582.5C27.4853 582.5 29.5 580.485 29.5 578ZM25 551C22.2386 551 20 553.239 20 556V578C20 580.761 22.2386 583 25 583C27.7614 583 30 580.761 30 578V556C30 553.239 27.7614 551 25 551Z" fill="#5449C2"/>
<path fill-rule="evenodd" clip-rule="evenodd" d="M35 424.5H14C12.6193 424.5 11.5 425.619 11.5 427V449C11.5 450.381 12.6193 451.5 14 451.5H35C36.3807 451.5 37.5 450.381 37.5 449V427C37.5 425.619 36.3807 424.5 35 424.5ZM14 424C12.3431 424 11 425.343 11 427V449C11 450.657 12.3431 452 14 452H35C36.6569 452 38 450.657 38 449V427C38 425.343 36.6569 424 35 424H14Z" fill="#5449C2"/>
<path fill-rule="evenodd" clip-rule="evenodd" d="M29 431.5H20C18.6193 431.5 17.5 432.619 17.5 434V443C17.5 444.381 18.6193 445.5 20 445.5H29C30.3807 445.5 31.5 444.381 31.5 443V434C31.5 432.619 30.3807 431.5 29 431.5ZM20 431C18.3431 431 17 432.343 17 434V443C17 444.657 18.3431 446 20 446H29C30.6569 446 32 444.657 32 443V434C32 432.343 30.6569 431 29 431H20Z" fill="#5449C2"/>
<path fill-rule="evenodd" clip-rule="evenodd" d="M43.5 879.5V877.5C43.5 876.395 42.6046 875.5 41.5 875.5C40.3954 875.5 39.5 876.395 39.5 877.5V879.5C39.5 880.605 40.3954 881.5 41.5 881.5C42.6046 881.5 43.5 880.605 43.5 879.5ZM41.5 875C40.1193 875 39 876.119 39 877.5V879.5C39 880.881 40.1193 882 41.5 882C42.8807 882 44 880.881 44 879.5V877.5C44 876.119 42.8807 875 41.5 875Z" fill="#5449C2"/>
<path fill-rule="evenodd" clip-rule="evenodd" d="M42.5 698.5V694.5C42.5 693.395 41.6046 692.5 40.5 692.5C39.3954 692.5 38.5 693.395 38.5 694.5V698.5C38.5 699.605 39.3954 700.5 40.5 700.5C41.6046 700.5 42.5 699.605 42.5 698.5ZM40.5 692C39.1193 692 38 693.119 38 694.5V698.5C38 699.881 39.1193 701 40.5 701C41.8807 701 43 699.881 43 698.5V694.5C43 693.119 41.8807 692 40.5 692Z" fill="#5449C2"/>
<path fill-rule="evenodd" clip-rule="evenodd" d="M26.5 736.5V724.5C26.5 723.395 25.6046 722.5 24.5 722.5C23.3954 722.5 22.5 723.395 22.5 724.5V736.5C22.5 737.605 23.3954 738.5 24.5 738.5C25.6046 738.5 26.5 737.605 26.5 736.5ZM24.5 722C23.1193 722 22 723.119 22 724.5V736.5C22 737.881 23.1193 739 24.5 739C25.8807 739 27 737.881 27 736.5V724.5C27 723.119 25.8807 722 24.5 722Z" fill="#5449C2"/>
<path fill-rule="evenodd" clip-rule="evenodd" d="M26.5 604.5V591.5C26.5 590.395 25.6046 589.5 24.5 589.5C23.3954 589.5 22.5 590.395 22.5 591.5V604.5C22.5 605.605 23.3954 606.5 24.5 606.5C25.6046 606.5 26.5 605.605 26.5 604.5ZM24.5 589C23.1193 589 22 590.119 22 591.5V604.5C22 605.881 23.1193 607 24.5 607C25.8807 607 27 605.881 27 604.5V591.5C27 590.119 25.8807 589 24.5 589Z" fill="#5449C2"/>
<path fill-rule="evenodd" clip-rule="evenodd" d="M26.5 643.5V640.5C26.5 639.395 25.6046 638.5 24.5 638.5C23.3954 638.5 22.5 639.395 22.5 640.5V643.5C22.5 644.605 23.3954 645.5 24.5 645.5C25.6046 645.5 26.5 644.605 26.5 643.5ZM24.5 638C23.1193 638 22 639.119 22 640.5V643.5C22 644.881 23.1193 646 24.5 646C25.8807 646 27 644.881 27 643.5V640.5C27 639.119 25.8807 638 24.5 638Z" fill="#5449C2"/>
<path fill-rule="evenodd" clip-rule="evenodd" d="M26.5 678.5V675.5C26.5 674.395 25.6046 673.5 24.5 673.5C23.3954 673.5 22.5 674.395 22.5 675.5V678.5C22.5 679.605 23.3954 680.5 24.5 680.5C25.6046 680.5 26.5 679.605 26.5 678.5ZM24.5 673C23.1193 673 22 674.119 22 675.5V678.5C22 679.881 23.1193 681 24.5 681C25.8807 681 27 679.881 27 678.5V675.5C27 674.119 25.8807 673 24.5 673Z" fill="#5449C2"/>
<path fill-rule="evenodd" clip-rule="evenodd" d="M26.5 870.5V853.5C26.5 852.395 25.6046 851.5 24.5 851.5C23.3954 851.5 22.5 852.395 22.5 853.5V870.5C22.5 871.605 23.3954 872.5 24.5 872.5C25.6046 872.5 26.5 871.605 26.5 870.5ZM24.5 851C23.1193 851 22 852.119 22 853.5V870.5C22 871.881 23.1193 873 24.5 873C25.8807 873 27 871.881 27 870.5V853.5C27 852.119 25.8807 851 24.5 851Z" fill="#5449C2"/>
<path fill-rule="evenodd" clip-rule="evenodd" d="M26.5 905.5V888.5C26.5 887.395 25.6046 886.5 24.5 886.5C23.3954 886.5 22.5 887.395 22.5 888.5V905.5C22.5 906.605 23.3954 907.5 24.5 907.5C25.6046 907.5 26.5 906.605 26.5 905.5ZM24.5 886C23.1193 886 22 887.119 22 888.5V905.5C22 906.881 23.1193 908 24.5 908C25.8807 908 27 906.881 27 905.5V888.5C27 887.119 25.8807 886 24.5 886Z" fill="#5449C2"/>
<path fill-rule="evenodd" clip-rule="evenodd" d="M26.5 505.5V501.5C26.5 500.395 25.6046 499.5 24.5 499.5C23.3954 499.5 22.5 500.395 22.5 501.5V505.5C22.5 506.605 23.3954 507.5 24.5 507.5C25.6046 507.5 26.5 506.605 26.5 505.5ZM24.5 499C23.1193 499 22 500.119 22 501.5V505.5C22 506.881 23.1193 508 24.5 508C25.8807 508 27 506.881 27 505.5V501.5C27 500.119 25.8807 499 24.5 499Z" fill="#5449C2"/>
<path fill-rule="evenodd" clip-rule="evenodd" d="M26.5 487.5V483.5C26.5 482.395 25.6046 481.5 24.5 481.5C23.3954 481.5 22.5 482.395 22.5 483.5V487.5C22.5 488.605 23.3954 489.5 24.5 489.5C25.6046 489.5 26.5 488.605 26.5 487.5ZM24.5 481C23.1193 481 22 482.119 22 483.5V487.5C22 488.881 23.1193 490 24.5 490C25.8807 490 27 488.881 27 487.5V483.5C27 482.119 25.8807 481 24.5 481Z" fill="#5449C2"/>
<path fill-rule="evenodd" clip-rule="evenodd" d="M42.5 399.5V395.5C42.5 394.395 41.6046 393.5 40.5 393.5C39.3954 393.5 38.5 394.395 38.5 395.5V399.5C38.5 400.605 39.3954 401.5 40.5 401.5C41.6046 401.5 42.5 400.605 42.5 399.5ZM40.5 393C39.1193 393 38 394.119 38 395.5V399.5C38 400.881 39.1193 402 40.5 402C41.8807 402 43 400.881 43 399.5V395.5C43 394.119 41.8807 393 40.5 393Z" fill="#5449C2"/>
<path fill-rule="evenodd" clip-rule="evenodd" d="M42.5 335.5V331.5C42.5 330.395 41.6046 329.5 40.5 329.5C39.3954 329.5 38.5 330.395 38.5 331.5V335.5C38.5 336.605 39.3954 337.5 40.5 337.5C41.6046 337.5 42.5 336.605 42.5 335.5ZM40.5 329C39.1193 329 38 330.119 38 331.5V335.5C38 336.881 39.1193 338 40.5 338C41.8807 338 43 336.881 43 335.5V331.5C43 330.119 41.8807 329 40.5 329Z" fill="#5449C2"/>
<path fill-rule="evenodd" clip-rule="evenodd" d="M60.5 222.5V218.5C60.5 217.395 59.6046 216.5 58.5 216.5C57.3954 216.5 56.5 217.395 56.5 218.5V222.5C56.5 223.605 57.3954 224.5 58.5 224.5C59.6046 224.5 60.5 223.605 60.5 222.5ZM58.5 216C57.1193 216 56 217.119 56 218.5V222.5C56 223.881 57.1193 225 58.5 225C59.8807 225 61 223.881 61 222.5V218.5C61 217.119 59.8807 216 58.5 216Z" fill="#5449C2"/>
<path fill-rule="evenodd" clip-rule="evenodd" d="M60.5 302.5V299.5C60.5 298.395 59.6046 297.5 58.5 297.5C57.3954 297.5 56.5 298.395 56.5 299.5V302.5C56.5 303.605 57.3954 304.5 58.5 304.5C59.6046 304.5 60.5 303.605 60.5 302.5ZM58.5 297C57.1193 297 56 298.119 56 299.5V302.5C56 303.881 57.1193 305 58.5 305C59.8807 305 61 303.881 61 302.5V299.5C61 298.119 59.8807 297 58.5 297Z" fill="#5449C2"/>
<path fill-rule="evenodd" clip-rule="evenodd" d="M56.5 311.5C56.5 312.605 57.3954 313.5 58.5 313.5C59.6046 313.5 60.5 312.605 60.5 311.5C60.5 310.395 59.6046 309.5 58.5 309.5C57.3954 309.5 56.5 310.395 56.5 311.5ZM58.5 309C57.1193 309 56 310.119 56 311.5C56 312.881 57.1193 314 58.5 314C59.8807 314 61 312.881 61 311.5C61 310.119 59.8807 309 58.5 309Z" fill="#5449C2"/>
<path fill-rule="evenodd" clip-rule="evenodd" d="M56.5 211.5C56.5 212.605 57.3954 213.5 58.5 213.5C59.6046 213.5 60.5 212.605 60.5 211.5C60.5 210.395 59.6046 209.5 58.5 209.5C57.3954 209.5 56.5 210.395 56.5 211.5ZM58.5 209C57.1193 209 56 210.119 56 211.5C56 212.881 57.1193 214 58.5 214C59.8807 214 61 212.881 61 211.5C61 210.119 59.8807 209 58.5 209Z" fill="#5449C2"/>
<path fill-rule="evenodd" clip-rule="evenodd" d="M56.5 203.5C56.5 204.605 57.3954 205.5 58.5 205.5C59.6046 205.5 60.5 204.605 60.5 203.5C60.5 202.395 59.6046 201.5 58.5 201.5C57.3954 201.5 56.5 202.395 56.5 203.5ZM58.5 201C57.1193 201 56 202.119 56 203.5C56 204.881 57.1193 206 58.5 206C59.8807 206 61 204.881 61 203.5C61 202.119 59.8807 201 58.5 201Z" fill="#5449C2"/>
<path fill-rule="evenodd" clip-rule="evenodd" d="M42.5 347.5V343.5C42.5 342.395 41.6046 341.5 40.5 341.5C39.3954 341.5 38.5 342.395 38.5 343.5V347.5C38.5 348.605 39.3954 349.5 40.5 349.5C41.6046 349.5 42.5 348.605 42.5 347.5ZM40.5 341C39.1193 341 38 342.119 38 343.5V347.5C38 348.881 39.1193 350 40.5 350C41.8807 350 43 348.881 43 347.5V343.5C43 342.119 41.8807 341 40.5 341Z" fill="#5449C2"/>
<path fill-rule="evenodd" clip-rule="evenodd" d="M26.5 689.5V686.5C26.5 685.395 25.6046 684.5 24.5 684.5C23.3954 684.5 22.5 685.395 22.5 686.5V689.5C22.5 690.605 23.3954 691.5 24.5 691.5C25.6046 691.5 26.5 690.605 26.5 689.5ZM24.5 684C23.1193 684 22 685.119 22 686.5V689.5C22 690.881 23.1193 692 24.5 692C25.8807 692 27 690.881 27 689.5V686.5C27 685.119 25.8807 684 24.5 684Z" fill="#5449C2"/>
<path fill-rule="evenodd" clip-rule="evenodd" d="M26.5 398.5V385.5C26.5 384.395 25.6046 383.5 24.5 383.5C23.3954 383.5 22.5 384.395 22.5 385.5V398.5C22.5 399.605 23.3954 400.5 24.5 400.5C25.6046 400.5 26.5 399.605 26.5 398.5ZM24.5 383C23.1193 383 22 384.119 22 385.5V398.5C22 399.881 23.1193 401 24.5 401C25.8807 401 27 399.881 27 398.5V385.5C27 384.119 25.8807 383 24.5 383Z" fill="#5449C2"/>
<path fill-rule="evenodd" clip-rule="evenodd" d="M26.5 299.5V279.5C26.5 278.395 25.6046 277.5 24.5 277.5C23.3954 277.5 22.5 278.395 22.5 279.5V299.5C22.5 300.605 23.3954 301.5 24.5 301.5C25.6046 301.5 26.5 300.605 26.5 299.5ZM24.5 277C23.1193 277 22 278.119 22 279.5V299.5C22 300.881 23.1193 302 24.5 302C25.8807 302 27 300.881 27 299.5V279.5C27 278.119 25.8807 277 24.5 277Z" fill="#5449C2"/>
<path fill-rule="evenodd" clip-rule="evenodd" d="M26.5 330.5V310.5C26.5 309.395 25.6046 308.5 24.5 308.5C23.3954 308.5 22.5 309.395 22.5 310.5V330.5C22.5 331.605 23.3954 332.5 24.5 332.5C25.6046 332.5 26.5 331.605 26.5 330.5ZM24.5 308C23.1193 308 22 309.119 22 310.5V330.5C22 331.881 23.1193 333 24.5 333C25.8807 333 27 331.881 27 330.5V310.5C27 309.119 25.8807 308 24.5 308Z" fill="#5449C2"/>
<path fill-rule="evenodd" clip-rule="evenodd" d="M26.5 351.5V347.5C26.5 346.395 25.6046 345.5 24.5 345.5C23.3954 345.5 22.5 346.395 22.5 347.5V351.5C22.5 352.605 23.3954 353.5 24.5 353.5C25.6046 353.5 26.5 352.605 26.5 351.5ZM24.5 345C23.1193 345 22 346.119 22 347.5V351.5C22 352.881 23.1193 354 24.5 354C25.8807 354 27 352.881 27 351.5V347.5C27 346.119 25.8807 345 24.5 345Z" fill="#5449C2"/>
<path fill-rule="evenodd" clip-rule="evenodd" d="M26.5 134.5V130.5C26.5 129.395 25.6046 128.5 24.5 128.5C23.3954 128.5 22.5 129.395 22.5 130.5V134.5C22.5 135.605 23.3954 136.5 24.5 136.5C25.6046 136.5 26.5 135.605 26.5 134.5ZM24.5 128C23.1193 128 22 129.119 22 130.5V134.5C22 135.881 23.1193 137 24.5 137C25.8807 137 27 135.881 27 134.5V130.5C27 129.119 25.8807 128 24.5 128Z" fill="#5449C2"/>
<path fill-rule="evenodd" clip-rule="evenodd" d="M26.5 145.5V141.5C26.5 140.395 25.6046 139.5 24.5 139.5C23.3954 139.5 22.5 140.395 22.5 141.5V145.5C22.5 146.605 23.3954 147.5 24.5 147.5C25.6046 147.5 26.5 146.605 26.5 145.5ZM24.5 139C23.1193 139 22 140.119 22 141.5V145.5C22 146.881 23.1193 148 24.5 148C25.8807 148 27 146.881 27 145.5V141.5C27 140.119 25.8807 139 24.5 139Z" fill="#5449C2"/>
<path fill-rule="evenodd" clip-rule="evenodd" d="M5.5 55.5V52.5C5.5 51.3954 4.60457 50.5 3.5 50.5C2.39543 50.5 1.5 51.3954 1.5 52.5V55.5C1.5 56.6046 2.39543 57.5 3.5 57.5C4.60457 57.5 5.5 56.6046 5.5 55.5ZM3.5 50C2.11929 50 1 51.1193 1 52.5V55.5C1 56.8807 2.11929 58 3.5 58C4.88071 58 6 56.8807 6 55.5V52.5C6 51.1193 4.88071 50 3.5 50Z" fill="#5449C2"/>
<path fill-rule="evenodd" clip-rule="evenodd" d="M5.5 43.5V39.5C5.5 38.3954 4.60457 37.5 3.5 37.5C2.39543 37.5 1.5 38.3954 1.5 39.5V43.5C1.5 44.6046 2.39543 45.5 3.5 45.5C4.60457 45.5 5.5 44.6046 5.5 43.5ZM3.5 37C2.11929 37 1 38.1193 1 39.5V43.5C1 44.8807 2.11929 46 3.5 46C4.88071 46 6 44.8807 6 43.5V39.5C6 38.1193 4.88071 37 3.5 37Z" fill="#5449C2"/>
<path fill-rule="evenodd" clip-rule="evenodd" d="M26.5 158.5V157.5C26.5 156.395 25.6046 155.5 24.5 155.5C23.3954 155.5 22.5 156.395 22.5 157.5V158.5C22.5 159.605 23.3954 160.5 24.5 160.5C25.6046 160.5 26.5 159.605 26.5 158.5ZM24.5 155C23.1193 155 22 156.119 22 157.5V158.5C22 159.881 23.1193 161 24.5 161C25.8807 161 27 159.881 27 158.5V157.5C27 156.119 25.8807 155 24.5 155Z" fill="#5449C2"/>
<path fill-rule="evenodd" clip-rule="evenodd" d="M26.5 925.5V921.5C26.5 920.395 25.6046 919.5 24.5 919.5C23.3954 919.5 22.5 920.395 22.5 921.5V925.5C22.5 926.605 23.3954 927.5 24.5 927.5C25.6046 927.5 26.5 926.605 26.5 925.5ZM24.5 919C23.1193 919 22 920.119 22 921.5V925.5C22 926.881 23.1193 928 24.5 928C25.8807 928 27 926.881 27 925.5V921.5C27 920.119 25.8807 919 24.5 919Z" fill="#5449C2"/>
<path fill-rule="evenodd" clip-rule="evenodd" d="M26.5 811.5V807.5C26.5 806.395 25.6046 805.5 24.5 805.5C23.3954 805.5 22.5 806.395 22.5 807.5V811.5C22.5 812.605 23.3954 813.5 24.5 813.5C25.6046 813.5 26.5 812.605 26.5 811.5ZM24.5 805C23.1193 805 22 806.119 22 807.5V811.5C22 812.881 23.1193 814 24.5 814C25.8807 814 27 812.881 27 811.5V807.5C27 806.119 25.8807 805 24.5 805Z" fill="#5449C2"/>
<path fill-rule="evenodd" clip-rule="evenodd" d="M26.5 529.5V526.5C26.5 525.395 25.6046 524.5 24.5 524.5C23.3954 524.5 22.5 525.395 22.5 526.5V529.5C22.5 530.605 23.3954 531.5 24.5 531.5C25.6046 531.5 26.5 530.605 26.5 529.5ZM24.5 524C23.1193 524 22 525.119 22 526.5V529.5C22 530.881 23.1193 532 24.5 532C25.8807 532 27 530.881 27 529.5V526.5C27 525.119 25.8807 524 24.5 524Z" fill="#5449C2"/>
<path fill-rule="evenodd" clip-rule="evenodd" d="M22.5 537.5C22.5 538.605 23.3954 539.5 24.5 539.5C25.6046 539.5 26.5 538.605 26.5 537.5C26.5 536.395 25.6046 535.5 24.5 535.5C23.3954 535.5 22.5 536.395 22.5 537.5ZM24.5 535C23.1193 535 22 536.119 22 537.5C22 538.881 23.1193 540 24.5 540C25.8807 540 27 538.881 27 537.5C27 536.119 25.8807 535 24.5 535Z" fill="#5449C2"/>
<path fill-rule="evenodd" clip-rule="evenodd" d="M51.5 496.5V495.5C51.5 494.395 50.6046 493.5 49.5 493.5C48.3954 493.5 47.5 494.395 47.5 495.5V496.5C47.5 497.605 48.3954 498.5 49.5 498.5C50.6046 498.5 51.5 497.605 51.5 496.5ZM49.5 493C48.1193 493 47 494.119 47 495.5V496.5C47 497.881 48.1193 499 49.5 499C50.8807 499 52 497.881 52 496.5V495.5C52 494.119 50.8807 493 49.5 493Z" fill="#5449C2"/>
<path fill-rule="evenodd" clip-rule="evenodd" d="M51.5 509.5V505.5C51.5 504.395 50.6046 503.5 49.5 503.5C48.3954 503.5 47.5 504.395 47.5 505.5V509.5C47.5 510.605 48.3954 511.5 49.5 511.5C50.6046 511.5 51.5 510.605 51.5 509.5ZM49.5 503C48.1193 503 47 504.119 47 505.5V509.5C47 510.881 48.1193 512 49.5 512C50.8807 512 52 510.881 52 509.5V505.5C52 504.119 50.8807 503 49.5 503Z" fill="#5449C2"/>
<path fill-rule="evenodd" clip-rule="evenodd" d="M42.25 149.151V37H41.75V149.151C41.75 154.017 39.7527 158.669 36.2251 162.02L30.4305 167.525C26.8036 170.97 24.75 175.753 24.75 180.756V278H25.25V180.756C25.25 175.891 27.2473 171.238 30.7749 167.887L36.5695 162.383C40.1964 158.937 42.25 154.154 42.25 149.151Z" fill="#5449C2"/>
<path fill-rule="evenodd" clip-rule="evenodd" d="M42.25 224V49H41.75V224H42.25Z" fill="#5449C2"/>
<path fill-rule="evenodd" clip-rule="evenodd" d="M42.25 255V233H41.75V255H42.25Z" fill="#5449C2"/>
<path fill-rule="evenodd" clip-rule="evenodd" d="M59.25 223V250.118C59.25 254.863 57.402 259.421 54.0978 262.827L47.2611 269.873C44.0474 273.185 42.25 277.618 42.25 282.233V330H41.75V282.233C41.75 277.488 43.598 272.93 46.9022 269.524L53.7389 262.478C56.9526 259.166 58.75 254.733 58.75 250.118V223H59.25Z" fill="#5449C2"/>
<path fill-rule="evenodd" clip-rule="evenodd" d="M59.25 223V297H58.75V223H59.25Z" fill="#5449C2"/>
<path fill-rule="evenodd" clip-rule="evenodd" d="M41.75 922.826V912H42.25V922.826C42.25 927.839 40.1877 932.632 36.5472 936.078L30.7965 941.523C27.2558 944.875 25.25 949.536 25.25 954.412V1068H24.75V954.412C24.75 949.399 26.8123 944.607 30.4528 941.16L36.2035 935.715C39.7442 932.363 41.75 927.702 41.75 922.826Z" fill="#5449C2"/>
<path fill-rule="evenodd" clip-rule="evenodd" d="M25.25 823.772V813H24.75V823.772C24.75 828.792 26.8182 833.591 30.4678 837.038L36.1889 842.443C39.7385 845.796 41.75 850.463 41.75 855.346V876H42.25V855.346C42.25 850.326 40.1818 845.527 36.5322 842.079L30.8111 836.675C27.2615 833.322 25.25 828.655 25.25 823.772Z" fill="#5449C2"/>
<path fill-rule="evenodd" clip-rule="evenodd" d="M25.25 617.772V607H24.75V617.772C24.75 622.792 26.8182 627.591 30.4678 631.038L36.1889 636.443C39.7385 639.796 41.75 644.463 41.75 649.346V670H42.25V649.346C42.25 644.326 40.1818 639.527 36.5322 636.079L30.8111 630.675C27.2615 627.322 25.25 622.655 25.25 617.772Z" fill="#5449C2"/>
<path fill-rule="evenodd" clip-rule="evenodd" d="M29.25 568.087V557H28.75V568.087C28.75 573.051 30.7723 577.801 34.3508 581.242L36.3027 583.119C39.7831 586.465 41.75 591.085 41.75 595.913V617H42.25V595.913C42.25 590.949 40.2277 586.199 36.6492 582.758L34.6973 580.881C31.2169 577.535 29.25 572.915 29.25 568.087Z" fill="#5449C2"/>
<path fill-rule="evenodd" clip-rule="evenodd" d="M25.25 466.967V452H24.75V466.967C24.75 468.957 25.5679 470.859 27.0119 472.229L39.6441 484.204C40.9885 485.479 41.75 487.25 41.75 489.103V558H42.25V489.103C42.25 487.113 41.4321 485.211 39.9881 483.842L27.3559 471.866C26.0115 470.591 25.25 468.82 25.25 466.967Z" fill="#5449C2"/>
<path fill-rule="evenodd" clip-rule="evenodd" d="M41.75 739.055V728H42.25V739.055C42.25 744.038 40.2125 748.805 36.6104 752.248L30.7351 757.864C27.2317 761.213 25.25 765.848 25.25 770.695V798H24.75V770.695C24.75 765.712 26.7875 760.945 30.3896 757.502L36.2649 751.886C39.7683 748.537 41.75 743.902 41.75 739.055Z" fill="#5449C2"/>
<path fill-rule="evenodd" clip-rule="evenodd" d="M41.75 732.682V700H42.25V732.682C42.25 737.682 40.1985 742.463 36.5746 745.908L30.7699 751.427C27.2453 754.778 25.25 759.428 25.25 764.291V792H24.75V764.291C24.75 759.291 26.8015 754.51 30.4254 751.065L36.2301 745.546C39.7547 742.195 41.75 737.545 41.75 732.682Z" fill="#5449C2"/>
<path fill-rule="evenodd" clip-rule="evenodd" d="M24.75 525V507H25.25V525H24.75Z" fill="#5449C2"/>
<path fill-rule="evenodd" clip-rule="evenodd" d="M43.5 34.5V30.5C43.5 29.3954 42.6046 28.5 41.5 28.5C40.3954 28.5 39.5 29.3954 39.5 30.5V34.5C39.5 35.6046 40.3954 36.5 41.5 36.5C42.6046 36.5 43.5 35.6046 43.5 34.5ZM41.5 28C40.1193 28 39 29.1193 39 30.5V34.5C39 35.8807 40.1193 37 41.5 37C42.8807 37 44 35.8807 44 34.5V30.5C44 29.1193 42.8807 28 41.5 28Z" fill="#5449C2"/>
<path fill-rule="evenodd" clip-rule="evenodd" d="M25.25 47.9299V129H24.75V47.9299C24.75 43.313 22.9511 38.8778 19.735 35.5654L3.82063 19.1742L4.17937 18.8259L20.0937 35.2171C23.4004 38.6228 25.25 43.183 25.25 47.9299Z" fill="#5449C2"/>
<path fill-rule="evenodd" clip-rule="evenodd" d="M25.25 110.375V129H24.75V110.375C24.75 105.755 22.9488 101.318 19.7291 98.0047L8.91228 86.8743C5.6019 83.4679 3.75 78.9051 3.75 74.1552V58H4.25V74.1552C4.25 78.775 6.05116 83.2128 9.27085 86.5258L20.0877 97.6562C23.3981 101.063 25.25 105.625 25.25 110.375Z" fill="#5449C2"/>
<path fill-rule="evenodd" clip-rule="evenodd" d="M41.5 903.5C42.6046 903.5 43.5 902.605 43.5 901.5C43.5 900.395 42.6046 899.5 41.5 899.5C40.3954 899.5 39.5 900.395 39.5 901.5C39.5 902.605 40.3954 903.5 41.5 903.5ZM41.5 904C42.8807 904 44 902.881 44 901.5C44 900.119 42.8807 899 41.5 899C40.1193 899 39 900.119 39 901.5C39 902.881 40.1193 904 41.5 904Z" fill="#5449C2"/>
<path fill-rule="evenodd" clip-rule="evenodd" d="M54.5 738.5C55.6046 738.5 56.5 737.605 56.5 736.5C56.5 735.395 55.6046 734.5 54.5 734.5C53.3954 734.5 52.5 735.395 52.5 736.5C52.5 737.605 53.3954 738.5 54.5 738.5ZM54.5 739C55.8807 739 57 737.881 57 736.5C57 735.119 55.8807 734 54.5 734C53.1193 734 52 735.119 52 736.5C52 737.881 53.1193 739 54.5 739Z" fill="#5449C2"/>
<path fill-rule="evenodd" clip-rule="evenodd" d="M40.5 673.5C41.6046 673.5 42.5 672.605 42.5 671.5C42.5 670.395 41.6046 669.5 40.5 669.5C39.3954 669.5 38.5 670.395 38.5 671.5C38.5 672.605 39.3954 673.5 40.5 673.5ZM40.5 674C41.8807 674 43 672.881 43 671.5C43 670.119 41.8807 669 40.5 669C39.1193 669 38 670.119 38 671.5C38 672.881 39.1193 674 40.5 674Z" fill="#5449C2"/>
<path fill-rule="evenodd" clip-rule="evenodd" d="M41.5 912.5C42.6046 912.5 43.5 911.605 43.5 910.5C43.5 909.395 42.6046 908.5 41.5 908.5C40.3954 908.5 39.5 909.395 39.5 910.5C39.5 911.605 40.3954 912.5 41.5 912.5ZM41.5 913C42.8807 913 44 911.881 44 910.5C44 909.119 42.8807 908 41.5 908C40.1193 908 39 909.119 39 910.5C39 911.881 40.1193 913 41.5 913Z" fill="#5449C2"/>
<path fill-rule="evenodd" clip-rule="evenodd" d="M41.5569 242.797C46.7616 242.797 50.9809 238.578 50.9809 233.373C50.9809 228.169 46.7616 223.949 41.5569 223.949C36.3521 223.949 32.1328 228.169 32.1328 233.373C32.1328 238.578 36.3521 242.797 41.5569 242.797ZM41.5569 243.297C47.0378 243.297 51.4809 238.854 51.4809 233.373C51.4809 227.892 47.0378 223.449 41.5569 223.449C36.076 223.449 31.6328 227.892 31.6328 233.373C31.6328 238.854 36.076 243.297 41.5569 243.297Z" fill="#5449C2"/>
<path fill-rule="evenodd" clip-rule="evenodd" d="M41.5572 238.483C44.3789 238.483 46.6664 236.195 46.6664 233.373C46.6664 230.552 44.3789 228.264 41.5572 228.264C38.7354 228.264 36.4479 230.552 36.4479 233.373C36.4479 236.195 38.7354 238.483 41.5572 238.483ZM41.5572 238.983C44.6551 238.983 47.1664 236.471 47.1664 233.373C47.1664 230.275 44.6551 227.764 41.5572 227.764C38.4593 227.764 35.9479 230.275 35.9479 233.373C35.9479 236.471 38.4593 238.983 41.5572 238.983Z" fill="#5449C2"/>
<path fill-rule="evenodd" clip-rule="evenodd" d="M41.5 258.5C44.2614 258.5 46.5 256.261 46.5 253.5C46.5 250.739 44.2614 248.5 41.5 248.5C38.7386 248.5 36.5 250.739 36.5 253.5C36.5 256.261 38.7386 258.5 41.5 258.5ZM41.5 259C44.5376 259 47 256.538 47 253.5C47 250.462 44.5376 248 41.5 248C38.4624 248 36 250.462 36 253.5C36 256.538 38.4624 259 41.5 259Z" fill="#5449C2"/>
<path fill-rule="evenodd" clip-rule="evenodd" d="M0.5 17.5C0.5 18.6046 1.39543 19.5 2.5 19.5C3.60457 19.5 4.5 18.6046 4.5 17.5C4.5 16.3954 3.60457 15.5 2.5 15.5C1.39543 15.5 0.5 16.3954 0.5 17.5ZM2.5 15C1.11929 15 0 16.1193 0 17.5C0 18.8807 1.11929 20 2.5 20C3.88071 20 5 18.8807 5 17.5C5 16.1193 3.88071 15 2.5 15Z" fill="#5449C2"/>
<path fill-rule="evenodd" clip-rule="evenodd" d="M0.5 10.5C0.5 11.6046 1.39543 12.5 2.5 12.5C3.60457 12.5 4.5 11.6046 4.5 10.5C4.5 9.39543 3.60457 8.5 2.5 8.5C1.39543 8.5 0.5 9.39543 0.5 10.5ZM2.5 8C1.11929 8 0 9.11929 0 10.5C0 11.8807 1.11929 13 2.5 13C3.88071 13 5 11.8807 5 10.5C5 9.11929 3.88071 8 2.5 8Z" fill="#5449C2"/>
<path fill-rule="evenodd" clip-rule="evenodd" d="M0.5 2.5C0.5 3.60457 1.39543 4.5 2.5 4.5C3.60457 4.5 4.5 3.60457 4.5 2.5C4.5 1.39543 3.60457 0.5 2.5 0.5C1.39543 0.5 0.5 1.39543 0.5 2.5ZM2.5 0C1.11929 0 0 1.11929 0 2.5C0 3.88071 1.11929 5 2.5 5C3.88071 5 5 3.88071 5 2.5C5 1.11929 3.88071 0 2.5 0Z" fill="#5449C2"/>
<path fill-rule="evenodd" clip-rule="evenodd" d="M29.5 1575V1553C29.5 1550.51 27.4853 1548.5 25 1548.5C22.5147 1548.5 20.5 1550.51 20.5 1553V1575C20.5 1577.49 22.5147 1579.5 25 1579.5C27.4853 1579.5 29.5 1577.49 29.5 1575ZM25 1548C22.2386 1548 20 1550.24 20 1553V1575C20 1577.76 22.2386 1580 25 1580C27.7614 1580 30 1577.76 30 1575V1553C30 1550.24 27.7614 1548 25 1548Z" fill="#5449C2"/>
<path fill-rule="evenodd" clip-rule="evenodd" d="M54 1416.5H33C31.6193 1416.5 30.5 1417.62 30.5 1419V1440C30.5 1441.38 31.6193 1442.5 33 1442.5H54C55.3807 1442.5 56.5 1441.38 56.5 1440V1419C56.5 1417.62 55.3807 1416.5 54 1416.5ZM33 1416C31.3431 1416 30 1417.34 30 1419V1440C30 1441.66 31.3431 1443 33 1443H54C55.6569 1443 57 1441.66 57 1440V1419C57 1417.34 55.6569 1416 54 1416H33Z" fill="#5449C2"/>
<path fill-rule="evenodd" clip-rule="evenodd" d="M48 1422.5H39C37.6193 1422.5 36.5 1423.62 36.5 1425V1434C36.5 1435.38 37.6193 1436.5 39 1436.5H48C49.3807 1436.5 50.5 1435.38 50.5 1434V1425C50.5 1423.62 49.3807 1422.5 48 1422.5ZM39 1422C37.3431 1422 36 1423.34 36 1425V1434C36 1435.66 37.3431 1437 39 1437H48C49.6569 1437 51 1435.66 51 1434V1425C51 1423.34 49.6569 1422 48 1422H39Z" fill="#5449C2"/>
<path fill-rule="evenodd" clip-rule="evenodd" d="M56.5 1916.5V1908.5C56.5 1907.4 55.6046 1906.5 54.5 1906.5C53.3954 1906.5 52.5 1907.4 52.5 1908.5V1916.5C52.5 1917.6 53.3954 1918.5 54.5 1918.5C55.6046 1918.5 56.5 1917.6 56.5 1916.5ZM54.5 1906C53.1193 1906 52 1907.12 52 1908.5V1916.5C52 1917.88 53.1193 1919 54.5 1919C55.8807 1919 57 1917.88 57 1916.5V1908.5C57 1907.12 55.8807 1906 54.5 1906Z" fill="#5449C2"/>
<path fill-rule="evenodd" clip-rule="evenodd" d="M42.5 1695.5V1691.5C42.5 1690.4 41.6046 1689.5 40.5 1689.5C39.3954 1689.5 38.5 1690.4 38.5 1691.5V1695.5C38.5 1696.6 39.3954 1697.5 40.5 1697.5C41.6046 1697.5 42.5 1696.6 42.5 1695.5ZM40.5 1689C39.1193 1689 38 1690.12 38 1691.5V1695.5C38 1696.88 39.1193 1698 40.5 1698C41.8807 1698 43 1696.88 43 1695.5V1691.5C43 1690.12 41.8807 1689 40.5 1689Z" fill="#5449C2"/>
<path fill-rule="evenodd" clip-rule="evenodd" d="M26.5 1733.5V1721.5C26.5 1720.4 25.6046 1719.5 24.5 1719.5C23.3954 1719.5 22.5 1720.4 22.5 1721.5V1733.5C22.5 1734.6 23.3954 1735.5 24.5 1735.5C25.6046 1735.5 26.5 1734.6 26.5 1733.5ZM24.5 1719C23.1193 1719 22 1720.12 22 1721.5V1733.5C22 1734.88 23.1193 1736 24.5 1736C25.8807 1736 27 1734.88 27 1733.5V1721.5C27 1720.12 25.8807 1719 24.5 1719Z" fill="#5449C2"/>
<path fill-rule="evenodd" clip-rule="evenodd" d="M26.5 1601.5V1588.5C26.5 1587.4 25.6046 1586.5 24.5 1586.5C23.3954 1586.5 22.5 1587.4 22.5 1588.5V1601.5C22.5 1602.6 23.3954 1603.5 24.5 1603.5C25.6046 1603.5 26.5 1602.6 26.5 1601.5ZM24.5 1586C23.1193 1586 22 1587.12 22 1588.5V1601.5C22 1602.88 23.1193 1604 24.5 1604C25.8807 1604 27 1602.88 27 1601.5V1588.5C27 1587.12 25.8807 1586 24.5 1586Z" fill="#5449C2"/>
<path fill-rule="evenodd" clip-rule="evenodd" d="M26.5 1640.5V1637.5C26.5 1636.4 25.6046 1635.5 24.5 1635.5C23.3954 1635.5 22.5 1636.4 22.5 1637.5V1640.5C22.5 1641.6 23.3954 1642.5 24.5 1642.5C25.6046 1642.5 26.5 1641.6 26.5 1640.5ZM24.5 1635C23.1193 1635 22 1636.12 22 1637.5V1640.5C22 1641.88 23.1193 1643 24.5 1643C25.8807 1643 27 1641.88 27 1640.5V1637.5C27 1636.12 25.8807 1635 24.5 1635Z" fill="#5449C2"/>
<path fill-rule="evenodd" clip-rule="evenodd" d="M26.5 1675.5V1671.5C26.5 1670.4 25.6046 1669.5 24.5 1669.5C23.3954 1669.5 22.5 1670.4 22.5 1671.5V1675.5C22.5 1676.6 23.3954 1677.5 24.5 1677.5C25.6046 1677.5 26.5 1676.6 26.5 1675.5ZM24.5 1669C23.1193 1669 22 1670.12 22 1671.5V1675.5C22 1676.88 23.1193 1678 24.5 1678C25.8807 1678 27 1676.88 27 1675.5V1671.5C27 1670.12 25.8807 1669 24.5 1669Z" fill="#5449C2"/>
<path fill-rule="evenodd" clip-rule="evenodd" d="M26.5 1867.5V1850.5C26.5 1849.4 25.6046 1848.5 24.5 1848.5C23.3954 1848.5 22.5 1849.4 22.5 1850.5V1867.5C22.5 1868.6 23.3954 1869.5 24.5 1869.5C25.6046 1869.5 26.5 1868.6 26.5 1867.5ZM24.5 1848C23.1193 1848 22 1849.12 22 1850.5V1867.5C22 1868.88 23.1193 1870 24.5 1870C25.8807 1870 27 1868.88 27 1867.5V1850.5C27 1849.12 25.8807 1848 24.5 1848Z" fill="#5449C2"/>
<path fill-rule="evenodd" clip-rule="evenodd" d="M26.5 1902.5V1885.5C26.5 1884.4 25.6046 1883.5 24.5 1883.5C23.3954 1883.5 22.5 1884.4 22.5 1885.5V1902.5C22.5 1903.6 23.3954 1904.5 24.5 1904.5C25.6046 1904.5 26.5 1903.6 26.5 1902.5ZM24.5 1883C23.1193 1883 22 1884.12 22 1885.5V1902.5C22 1903.88 23.1193 1905 24.5 1905C25.8807 1905 27 1903.88 27 1902.5V1885.5C27 1884.12 25.8807 1883 24.5 1883Z" fill="#5449C2"/>
<path fill-rule="evenodd" clip-rule="evenodd" d="M26.5 1501.5V1498.5C26.5 1497.4 25.6046 1496.5 24.5 1496.5C23.3954 1496.5 22.5 1497.4 22.5 1498.5V1501.5C22.5 1502.6 23.3954 1503.5 24.5 1503.5C25.6046 1503.5 26.5 1502.6 26.5 1501.5ZM24.5 1496C23.1193 1496 22 1497.12 22 1498.5V1501.5C22 1502.88 23.1193 1504 24.5 1504C25.8807 1504 27 1502.88 27 1501.5V1498.5C27 1497.12 25.8807 1496 24.5 1496Z" fill="#5449C2"/>
<path fill-rule="evenodd" clip-rule="evenodd" d="M26.5 1484.5V1480.5C26.5 1479.4 25.6046 1478.5 24.5 1478.5C23.3954 1478.5 22.5 1479.4 22.5 1480.5V1484.5C22.5 1485.6 23.3954 1486.5 24.5 1486.5C25.6046 1486.5 26.5 1485.6 26.5 1484.5ZM24.5 1478C23.1193 1478 22 1479.12 22 1480.5V1484.5C22 1485.88 23.1193 1487 24.5 1487C25.8807 1487 27 1485.88 27 1484.5V1480.5C27 1479.12 25.8807 1478 24.5 1478Z" fill="#5449C2"/>
<path fill-rule="evenodd" clip-rule="evenodd" d="M42.5 1396.5V1392.5C42.5 1391.4 41.6046 1390.5 40.5 1390.5C39.3954 1390.5 38.5 1391.4 38.5 1392.5V1396.5C38.5 1397.6 39.3954 1398.5 40.5 1398.5C41.6046 1398.5 42.5 1397.6 42.5 1396.5ZM40.5 1390C39.1193 1390 38 1391.12 38 1392.5V1396.5C38 1397.88 39.1193 1399 40.5 1399C41.8807 1399 43 1397.88 43 1396.5V1392.5C43 1391.12 41.8807 1390 40.5 1390Z" fill="#5449C2"/>
<path fill-rule="evenodd" clip-rule="evenodd" d="M42.5 1331.5V1328.5C42.5 1327.4 41.6046 1326.5 40.5 1326.5C39.3954 1326.5 38.5 1327.4 38.5 1328.5V1331.5C38.5 1332.6 39.3954 1333.5 40.5 1333.5C41.6046 1333.5 42.5 1332.6 42.5 1331.5ZM40.5 1326C39.1193 1326 38 1327.12 38 1328.5V1331.5C38 1332.88 39.1193 1334 40.5 1334C41.8807 1334 43 1332.88 43 1331.5V1328.5C43 1327.12 41.8807 1326 40.5 1326Z" fill="#5449C2"/>
<path fill-rule="evenodd" clip-rule="evenodd" d="M60.5 1218.5V1215.5C60.5 1214.4 59.6046 1213.5 58.5 1213.5C57.3954 1213.5 56.5 1214.4 56.5 1215.5V1218.5C56.5 1219.6 57.3954 1220.5 58.5 1220.5C59.6046 1220.5 60.5 1219.6 60.5 1218.5ZM58.5 1213C57.1193 1213 56 1214.12 56 1215.5V1218.5C56 1219.88 57.1193 1221 58.5 1221C59.8807 1221 61 1219.88 61 1218.5V1215.5C61 1214.12 59.8807 1213 58.5 1213Z" fill="#5449C2"/>
<path fill-rule="evenodd" clip-rule="evenodd" d="M60.5 1299.5V1295.5C60.5 1294.4 59.6046 1293.5 58.5 1293.5C57.3954 1293.5 56.5 1294.4 56.5 1295.5V1299.5C56.5 1300.6 57.3954 1301.5 58.5 1301.5C59.6046 1301.5 60.5 1300.6 60.5 1299.5ZM58.5 1293C57.1193 1293 56 1294.12 56 1295.5V1299.5C56 1300.88 57.1193 1302 58.5 1302C59.8807 1302 61 1300.88 61 1299.5V1295.5C61 1294.12 59.8807 1293 58.5 1293Z" fill="#5449C2"/>
<path fill-rule="evenodd" clip-rule="evenodd" d="M56.5 1308.5C56.5 1309.6 57.3954 1310.5 58.5 1310.5C59.6046 1310.5 60.5 1309.6 60.5 1308.5C60.5 1307.4 59.6046 1306.5 58.5 1306.5C57.3954 1306.5 56.5 1307.4 56.5 1308.5ZM58.5 1306C57.1193 1306 56 1307.12 56 1308.5C56 1309.88 57.1193 1311 58.5 1311C59.8807 1311 61 1309.88 61 1308.5C61 1307.12 59.8807 1306 58.5 1306Z" fill="#5449C2"/>
<path fill-rule="evenodd" clip-rule="evenodd" d="M60.5 1374.5V1367.5C60.5 1366.4 59.6046 1365.5 58.5 1365.5C57.3954 1365.5 56.5 1366.4 56.5 1367.5V1374.5C56.5 1375.6 57.3954 1376.5 58.5 1376.5C59.6046 1376.5 60.5 1375.6 60.5 1374.5ZM58.5 1365C57.1193 1365 56 1366.12 56 1367.5V1374.5C56 1375.88 57.1193 1377 58.5 1377C59.8807 1377 61 1375.88 61 1374.5V1367.5C61 1366.12 59.8807 1365 58.5 1365Z" fill="#5449C2"/>
<path fill-rule="evenodd" clip-rule="evenodd" d="M56.5 1207.5C56.5 1208.6 57.3954 1209.5 58.5 1209.5C59.6046 1209.5 60.5 1208.6 60.5 1207.5C60.5 1206.4 59.6046 1205.5 58.5 1205.5C57.3954 1205.5 56.5 1206.4 56.5 1207.5ZM58.5 1205C57.1193 1205 56 1206.12 56 1207.5C56 1208.88 57.1193 1210 58.5 1210C59.8807 1210 61 1208.88 61 1207.5C61 1206.12 59.8807 1205 58.5 1205Z" fill="#5449C2"/>
<path fill-rule="evenodd" clip-rule="evenodd" d="M56.5 1200.5C56.5 1201.6 57.3954 1202.5 58.5 1202.5C59.6046 1202.5 60.5 1201.6 60.5 1200.5C60.5 1199.4 59.6046 1198.5 58.5 1198.5C57.3954 1198.5 56.5 1199.4 56.5 1200.5ZM58.5 1198C57.1193 1198 56 1199.12 56 1200.5C56 1201.88 57.1193 1203 58.5 1203C59.8807 1203 61 1201.88 61 1200.5C61 1199.12 59.8807 1198 58.5 1198Z" fill="#5449C2"/>
<path fill-rule="evenodd" clip-rule="evenodd" d="M42.5 1344.5V1340.5C42.5 1339.4 41.6046 1338.5 40.5 1338.5C39.3954 1338.5 38.5 1339.4 38.5 1340.5V1344.5C38.5 1345.6 39.3954 1346.5 40.5 1346.5C41.6046 1346.5 42.5 1345.6 42.5 1344.5ZM40.5 1338C39.1193 1338 38 1339.12 38 1340.5V1344.5C38 1345.88 39.1193 1347 40.5 1347C41.8807 1347 43 1345.88 43 1344.5V1340.5C43 1339.12 41.8807 1338 40.5 1338Z" fill="#5449C2"/>
<path fill-rule="evenodd" clip-rule="evenodd" d="M26.5 1686.5V1682.5C26.5 1681.4 25.6046 1680.5 24.5 1680.5C23.3954 1680.5 22.5 1681.4 22.5 1682.5V1686.5C22.5 1687.6 23.3954 1688.5 24.5 1688.5C25.6046 1688.5 26.5 1687.6 26.5 1686.5ZM24.5 1680C23.1193 1680 22 1681.12 22 1682.5V1686.5C22 1687.88 23.1193 1689 24.5 1689C25.8807 1689 27 1687.88 27 1686.5V1682.5C27 1681.12 25.8807 1680 24.5 1680Z" fill="#5449C2"/>
<path fill-rule="evenodd" clip-rule="evenodd" d="M26.5 1395.5V1382.5C26.5 1381.4 25.6046 1380.5 24.5 1380.5C23.3954 1380.5 22.5 1381.4 22.5 1382.5V1395.5C22.5 1396.6 23.3954 1397.5 24.5 1397.5C25.6046 1397.5 26.5 1396.6 26.5 1395.5ZM24.5 1380C23.1193 1380 22 1381.12 22 1382.5V1395.5C22 1396.88 23.1193 1398 24.5 1398C25.8807 1398 27 1396.88 27 1395.5V1382.5C27 1381.12 25.8807 1380 24.5 1380Z" fill="#5449C2"/>
<path fill-rule="evenodd" clip-rule="evenodd" d="M26.5 1295.5V1276.5C26.5 1275.4 25.6046 1274.5 24.5 1274.5C23.3954 1274.5 22.5 1275.4 22.5 1276.5V1295.5C22.5 1296.6 23.3954 1297.5 24.5 1297.5C25.6046 1297.5 26.5 1296.6 26.5 1295.5ZM24.5 1274C23.1193 1274 22 1275.12 22 1276.5V1295.5C22 1296.88 23.1193 1298 24.5 1298C25.8807 1298 27 1296.88 27 1295.5V1276.5C27 1275.12 25.8807 1274 24.5 1274Z" fill="#5449C2"/>
<path fill-rule="evenodd" clip-rule="evenodd" d="M26.5 1326.5V1307.5C26.5 1306.4 25.6046 1305.5 24.5 1305.5C23.3954 1305.5 22.5 1306.4 22.5 1307.5V1326.5C22.5 1327.6 23.3954 1328.5 24.5 1328.5C25.6046 1328.5 26.5 1327.6 26.5 1326.5ZM24.5 1305C23.1193 1305 22 1306.12 22 1307.5V1326.5C22 1327.88 23.1193 1329 24.5 1329C25.8807 1329 27 1327.88 27 1326.5V1307.5C27 1306.12 25.8807 1305 24.5 1305Z" fill="#5449C2"/>
<path fill-rule="evenodd" clip-rule="evenodd" d="M26.5 1347.5V1344.5C26.5 1343.4 25.6046 1342.5 24.5 1342.5C23.3954 1342.5 22.5 1343.4 22.5 1344.5V1347.5C22.5 1348.6 23.3954 1349.5 24.5 1349.5C25.6046 1349.5 26.5 1348.6 26.5 1347.5ZM24.5 1342C23.1193 1342 22 1343.12 22 1344.5V1347.5C22 1348.88 23.1193 1350 24.5 1350C25.8807 1350 27 1348.88 27 1347.5V1344.5C27 1343.12 25.8807 1342 24.5 1342Z" fill="#5449C2"/>
<path fill-rule="evenodd" clip-rule="evenodd" d="M26.5 1130.5V1127.5C26.5 1126.4 25.6046 1125.5 24.5 1125.5C23.3954 1125.5 22.5 1126.4 22.5 1127.5V1130.5C22.5 1131.6 23.3954 1132.5 24.5 1132.5C25.6046 1132.5 26.5 1131.6 26.5 1130.5ZM24.5 1125C23.1193 1125 22 1126.12 22 1127.5V1130.5C22 1131.88 23.1193 1133 24.5 1133C25.8807 1133 27 1131.88 27 1130.5V1127.5C27 1126.12 25.8807 1125 24.5 1125Z" fill="#5449C2"/>
<path fill-rule="evenodd" clip-rule="evenodd" d="M26.5 1142.5V1138.5C26.5 1137.4 25.6046 1136.5 24.5 1136.5C23.3954 1136.5 22.5 1137.4 22.5 1138.5V1142.5C22.5 1143.6 23.3954 1144.5 24.5 1144.5C25.6046 1144.5 26.5 1143.6 26.5 1142.5ZM24.5 1136C23.1193 1136 22 1137.12 22 1138.5V1142.5C22 1143.88 23.1193 1145 24.5 1145C25.8807 1145 27 1143.88 27 1142.5V1138.5C27 1137.12 25.8807 1136 24.5 1136Z" fill="#5449C2"/>
<path fill-rule="evenodd" clip-rule="evenodd" d="M5.5 1052.5V1049.5C5.5 1048.4 4.60457 1047.5 3.5 1047.5C2.39543 1047.5 1.5 1048.4 1.5 1049.5V1052.5C1.5 1053.6 2.39543 1054.5 3.5 1054.5C4.60457 1054.5 5.5 1053.6 5.5 1052.5ZM3.5 1047C2.11929 1047 1 1048.12 1 1049.5V1052.5C1 1053.88 2.11929 1055 3.5 1055C4.88071 1055 6 1053.88 6 1052.5V1049.5C6 1048.12 4.88071 1047 3.5 1047Z" fill="#5449C2"/>
<path fill-rule="evenodd" clip-rule="evenodd" d="M5.5 1040.5V1036.5C5.5 1035.4 4.60457 1034.5 3.5 1034.5C2.39543 1034.5 1.5 1035.4 1.5 1036.5V1040.5C1.5 1041.6 2.39543 1042.5 3.5 1042.5C4.60457 1042.5 5.5 1041.6 5.5 1040.5ZM3.5 1034C2.11929 1034 1 1035.12 1 1036.5V1040.5C1 1041.88 2.11929 1043 3.5 1043C4.88071 1043 6 1041.88 6 1040.5V1036.5C6 1035.12 4.88071 1034 3.5 1034Z" fill="#5449C2"/>
<path fill-rule="evenodd" clip-rule="evenodd" d="M26.5 1155.5V1154.5C26.5 1153.4 25.6046 1152.5 24.5 1152.5C23.3954 1152.5 22.5 1153.4 22.5 1154.5V1155.5C22.5 1156.6 23.3954 1157.5 24.5 1157.5C25.6046 1157.5 26.5 1156.6 26.5 1155.5ZM24.5 1152C23.1193 1152 22 1153.12 22 1154.5V1155.5C22 1156.88 23.1193 1158 24.5 1158C25.8807 1158 27 1156.88 27 1155.5V1154.5C27 1153.12 25.8807 1152 24.5 1152Z" fill="#5449C2"/>
<path fill-rule="evenodd" clip-rule="evenodd" d="M26.5 1922.5V1918.5C26.5 1917.4 25.6046 1916.5 24.5 1916.5C23.3954 1916.5 22.5 1917.4 22.5 1918.5V1922.5C22.5 1923.6 23.3954 1924.5 24.5 1924.5C25.6046 1924.5 26.5 1923.6 26.5 1922.5ZM24.5 1916C23.1193 1916 22 1917.12 22 1918.5V1922.5C22 1923.88 23.1193 1925 24.5 1925C25.8807 1925 27 1923.88 27 1922.5V1918.5C27 1917.12 25.8807 1916 24.5 1916Z" fill="#5449C2"/>
<path fill-rule="evenodd" clip-rule="evenodd" d="M26.5 1808.5V1804.5C26.5 1803.4 25.6046 1802.5 24.5 1802.5C23.3954 1802.5 22.5 1803.4 22.5 1804.5V1808.5C22.5 1809.6 23.3954 1810.5 24.5 1810.5C25.6046 1810.5 26.5 1809.6 26.5 1808.5ZM24.5 1802C23.1193 1802 22 1803.12 22 1804.5V1808.5C22 1809.88 23.1193 1811 24.5 1811C25.8807 1811 27 1809.88 27 1808.5V1804.5C27 1803.12 25.8807 1802 24.5 1802Z" fill="#5449C2"/>
<path fill-rule="evenodd" clip-rule="evenodd" d="M9.5 1709.5V1705.5C9.5 1704.4 8.60457 1703.5 7.5 1703.5C6.39543 1703.5 5.5 1704.4 5.5 1705.5V1709.5C5.5 1710.6 6.39543 1711.5 7.5 1711.5C8.60457 1711.5 9.5 1710.6 9.5 1709.5ZM7.5 1703C6.11929 1703 5 1704.12 5 1705.5V1709.5C5 1710.88 6.11929 1712 7.5 1712C8.88071 1712 10 1710.88 10 1709.5V1705.5C10 1704.12 8.88071 1703 7.5 1703Z" fill="#5449C2"/>
<path fill-rule="evenodd" clip-rule="evenodd" d="M26.5 1526.5V1522.5C26.5 1521.4 25.6046 1520.5 24.5 1520.5C23.3954 1520.5 22.5 1521.4 22.5 1522.5V1526.5C22.5 1527.6 23.3954 1528.5 24.5 1528.5C25.6046 1528.5 26.5 1527.6 26.5 1526.5ZM24.5 1520C23.1193 1520 22 1521.12 22 1522.5V1526.5C22 1527.88 23.1193 1529 24.5 1529C25.8807 1529 27 1527.88 27 1526.5V1522.5C27 1521.12 25.8807 1520 24.5 1520Z" fill="#5449C2"/>
<path fill-rule="evenodd" clip-rule="evenodd" d="M22.5 1534.5C22.5 1535.6 23.3954 1536.5 24.5 1536.5C25.6046 1536.5 26.5 1535.6 26.5 1534.5C26.5 1533.4 25.6046 1532.5 24.5 1532.5C23.3954 1532.5 22.5 1533.4 22.5 1534.5ZM24.5 1532C23.1193 1532 22 1533.12 22 1534.5C22 1535.88 23.1193 1537 24.5 1537C25.8807 1537 27 1535.88 27 1534.5C27 1533.12 25.8807 1532 24.5 1532Z" fill="#5449C2"/>
<path fill-rule="evenodd" clip-rule="evenodd" d="M51.5 1494.5V1492.5C51.5 1491.4 50.6046 1490.5 49.5 1490.5C48.3954 1490.5 47.5 1491.4 47.5 1492.5V1494.5C47.5 1495.6 48.3954 1496.5 49.5 1496.5C50.6046 1496.5 51.5 1495.6 51.5 1494.5ZM49.5 1490C48.1193 1490 47 1491.12 47 1492.5V1494.5C47 1495.88 48.1193 1497 49.5 1497C50.8807 1497 52 1495.88 52 1494.5V1492.5C52 1491.12 50.8807 1490 49.5 1490Z" fill="#5449C2"/>
<path fill-rule="evenodd" clip-rule="evenodd" d="M51.5 1507.5V1502.5C51.5 1501.4 50.6046 1500.5 49.5 1500.5C48.3954 1500.5 47.5 1501.4 47.5 1502.5V1507.5C47.5 1508.6 48.3954 1509.5 49.5 1509.5C50.6046 1509.5 51.5 1508.6 51.5 1507.5ZM49.5 1500C48.1193 1500 47 1501.12 47 1502.5V1507.5C47 1508.88 48.1193 1510 49.5 1510C50.8807 1510 52 1508.88 52 1507.5V1502.5C52 1501.12 50.8807 1500 49.5 1500Z" fill="#5449C2"/>
<path fill-rule="evenodd" clip-rule="evenodd" d="M42.25 1146.15V1034H41.75V1146.15C41.75 1151.02 39.7527 1155.67 36.2251 1159.02L30.4305 1164.52C26.8036 1167.97 24.75 1172.75 24.75 1177.76V1275H25.25V1177.76C25.25 1172.89 27.2473 1168.24 30.7749 1164.89L36.5695 1159.38C40.1964 1155.94 42.25 1151.15 42.25 1146.15Z" fill="#5449C2"/>
<path fill-rule="evenodd" clip-rule="evenodd" d="M42.25 1221V1045H41.75V1221H42.25Z" fill="#5449C2"/>
<path fill-rule="evenodd" clip-rule="evenodd" d="M42.25 1252V1230H41.75V1252H42.25Z" fill="#5449C2"/>
<path fill-rule="evenodd" clip-rule="evenodd" d="M59.25 1220V1246.75C59.25 1251.52 57.3789 1256.11 54.038 1259.52L47.3192 1266.38C44.0699 1269.69 42.25 1274.15 42.25 1278.8V1326H41.75V1278.8C41.75 1274.02 43.6211 1269.44 46.962 1266.03L53.6808 1259.17C56.9301 1255.85 58.75 1251.39 58.75 1246.75V1220H59.25Z" fill="#5449C2"/>
<path fill-rule="evenodd" clip-rule="evenodd" d="M59.25 1220V1294H58.75V1220H59.25Z" fill="#5449C2"/>
<path fill-rule="evenodd" clip-rule="evenodd" d="M41.75 1919.83V1909H42.25V1919.83C42.25 1924.84 40.1877 1929.63 36.5472 1933.08L30.7965 1938.52C27.2558 1941.88 25.25 1946.54 25.25 1951.41V1976H24.75V1951.41C24.75 1946.4 26.8123 1941.61 30.4528 1938.16L36.2035 1932.72C39.7442 1929.36 41.75 1924.7 41.75 1919.83Z" fill="#5449C2"/>
<path fill-rule="evenodd" clip-rule="evenodd" d="M7.42647 1802.44V1711.5H6.92647V1802.44C6.92647 1807.34 8.89944 1812.04 12.4008 1815.47L36.4256 1839.02C39.8311 1842.36 41.75 1846.93 41.75 1851.7V1873H42.25V1851.7C42.25 1846.8 40.277 1842.1 36.7756 1838.67L12.7509 1815.11C9.34538 1811.78 7.42647 1807.21 7.42647 1802.44Z" fill="#5449C2"/>
<path fill-rule="evenodd" clip-rule="evenodd" d="M25.25 1614.77V1604H24.75V1614.77C24.75 1619.79 26.8182 1624.59 30.4678 1628.04L36.1889 1633.44C39.7385 1636.8 41.75 1641.46 41.75 1646.35V1667H42.25V1646.35C42.25 1641.33 40.1818 1636.53 36.5322 1633.08L30.8111 1627.67C27.2615 1624.32 25.25 1619.65 25.25 1614.77Z" fill="#5449C2"/>
<path fill-rule="evenodd" clip-rule="evenodd" d="M29.25 1564.68V1554H28.75V1564.68C28.75 1569.7 30.8158 1574.5 34.4616 1577.95L36.1949 1579.58C39.7408 1582.94 41.75 1587.6 41.75 1592.48V1613H42.25V1592.48C42.25 1587.46 40.1842 1582.67 36.5384 1579.22L34.8052 1577.58C31.2592 1574.23 29.25 1569.56 29.25 1564.68Z" fill="#5449C2"/>
<path fill-rule="evenodd" clip-rule="evenodd" d="M25.25 1463.97V1398H24.75V1463.97C24.75 1465.96 25.5679 1467.86 27.0119 1469.23L39.6441 1481.2C40.9885 1482.48 41.75 1484.25 41.75 1486.1V1555H42.25V1486.1C42.25 1484.11 41.4321 1482.21 39.9881 1480.84L27.3559 1468.87C26.0115 1467.59 25.25 1465.82 25.25 1463.97Z" fill="#5449C2"/>
<path fill-rule="evenodd" clip-rule="evenodd" d="M33.25 1458.17V1442.5H32.75V1458.17C32.75 1459.87 33.4397 1461.49 34.6607 1462.67L47.9922 1475.53C49.1155 1476.62 49.75 1478.11 49.75 1479.67V1491H50.25V1479.67C50.25 1477.98 49.5603 1476.35 48.3393 1475.17L35.0078 1462.31C33.8845 1461.23 33.25 1459.74 33.25 1458.17Z" fill="#5449C2"/>
<path fill-rule="evenodd" clip-rule="evenodd" d="M41.75 1736.06V1725H42.25V1736.06C42.25 1741.04 40.2125 1745.8 36.6104 1749.25L30.7351 1754.86C27.2317 1758.21 25.25 1762.85 25.25 1767.69V1795H24.75V1767.69C24.75 1762.71 26.7875 1757.95 30.3896 1754.5L36.2649 1748.89C39.7683 1745.54 41.75 1740.9 41.75 1736.06Z" fill="#5449C2"/>
<path fill-rule="evenodd" clip-rule="evenodd" d="M41.75 1729.68V1697H42.25V1729.68C42.25 1734.68 40.1985 1739.46 36.5746 1742.91L30.7699 1748.43C27.2453 1751.78 25.25 1756.43 25.25 1761.29V1789H24.75V1761.29C24.75 1756.29 26.8015 1751.51 30.4254 1748.06L36.2301 1742.55C39.7547 1739.2 41.75 1734.54 41.75 1729.68Z" fill="#5449C2"/>
<path fill-rule="evenodd" clip-rule="evenodd" d="M24.75 1522V1504H25.25V1522H24.75Z" fill="#5449C2"/>
<path fill-rule="evenodd" clip-rule="evenodd" d="M43.5 1031.5V1026.5C43.5 1025.4 42.6046 1024.5 41.5 1024.5C40.3954 1024.5 39.5 1025.4 39.5 1026.5V1031.5C39.5 1032.6 40.3954 1033.5 41.5 1033.5C42.6046 1033.5 43.5 1032.6 43.5 1031.5ZM41.5 1024C40.1193 1024 39 1025.12 39 1026.5V1031.5C39 1032.88 40.1193 1034 41.5 1034C42.8807 1034 44 1032.88 44 1031.5V1026.5C44 1025.12 42.8807 1024 41.5 1024Z" fill="#5449C2"/>
<path fill-rule="evenodd" clip-rule="evenodd" d="M25.25 1044.93V1126H24.75V1044.93C24.75 1040.31 22.9511 1035.88 19.735 1032.57L3.82063 1016.17L4.17937 1015.83L20.0937 1032.22C23.4004 1035.62 25.25 1040.18 25.25 1044.93Z" fill="#5449C2"/>
<path fill-rule="evenodd" clip-rule="evenodd" d="M25.25 1107.38V1126H24.75V1107.38C24.75 1102.76 22.9488 1098.32 19.7291 1095L8.91228 1083.87C5.6019 1080.47 3.75 1075.91 3.75 1071.16V1055H4.25V1071.16C4.25 1075.77 6.05116 1080.21 9.27085 1083.53L20.0877 1094.66C23.3981 1098.06 25.25 1102.63 25.25 1107.38Z" fill="#5449C2"/>
<path fill-rule="evenodd" clip-rule="evenodd" d="M40.5 1894.5C41.6046 1894.5 42.5 1893.6 42.5 1892.5C42.5 1891.4 41.6046 1890.5 40.5 1890.5C39.3954 1890.5 38.5 1891.4 38.5 1892.5C38.5 1893.6 39.3954 1894.5 40.5 1894.5ZM40.5 1895C41.8807 1895 43 1893.88 43 1892.5C43 1891.12 41.8807 1890 40.5 1890C39.1193 1890 38 1891.12 38 1892.5C38 1893.88 39.1193 1895 40.5 1895Z" fill="#5449C2"/>
<path fill-rule="evenodd" clip-rule="evenodd" d="M54.5 1735.5C55.6046 1735.5 56.5 1734.6 56.5 1733.5C56.5 1732.4 55.6046 1731.5 54.5 1731.5C53.3954 1731.5 52.5 1732.4 52.5 1733.5C52.5 1734.6 53.3954 1735.5 54.5 1735.5ZM54.5 1736C55.8807 1736 57 1734.88 57 1733.5C57 1732.12 55.8807 1731 54.5 1731C53.1193 1731 52 1732.12 52 1733.5C52 1734.88 53.1193 1736 54.5 1736Z" fill="#5449C2"/>
<path fill-rule="evenodd" clip-rule="evenodd" d="M40.5 1669.5C41.7145 1669.5 42.5 1668.73 42.5 1668C42.5 1667.27 41.7145 1666.5 40.5 1666.5C39.2855 1666.5 38.5 1667.27 38.5 1668C38.5 1668.73 39.2855 1669.5 40.5 1669.5ZM40.5 1670C41.8807 1670 43 1669.1 43 1668C43 1666.9 41.8807 1666 40.5 1666C39.1193 1666 38 1666.9 38 1668C38 1669.1 39.1193 1670 40.5 1670Z" fill="#5449C2"/>
<path fill-rule="evenodd" clip-rule="evenodd" d="M40.5 1903.5C41.6046 1903.5 42.5 1902.6 42.5 1901.5C42.5 1900.4 41.6046 1899.5 40.5 1899.5C39.3954 1899.5 38.5 1900.4 38.5 1901.5C38.5 1902.6 39.3954 1903.5 40.5 1903.5ZM40.5 1904C41.8807 1904 43 1902.88 43 1901.5C43 1900.12 41.8807 1899 40.5 1899C39.1193 1899 38 1900.12 38 1901.5C38 1902.88 39.1193 1904 40.5 1904Z" fill="#5449C2"/>
<path fill-rule="evenodd" clip-rule="evenodd" d="M41.5569 1239.54C46.7616 1239.54 50.9809 1235.33 50.9809 1230.12C50.9809 1224.92 46.7616 1220.7 41.5569 1220.7C36.3521 1220.7 32.1328 1224.92 32.1328 1230.12C32.1328 1235.33 36.3521 1239.54 41.5569 1239.54ZM41.5569 1240.04C47.0378 1240.04 51.4809 1235.6 51.4809 1230.12C51.4809 1224.64 47.0378 1220.2 41.5569 1220.2C36.076 1220.2 31.6328 1224.64 31.6328 1230.12C31.6328 1235.6 36.076 1240.04 41.5569 1240.04Z" fill="#5449C2"/>
<path fill-rule="evenodd" clip-rule="evenodd" d="M41.5572 1235.23C44.3789 1235.23 46.6664 1232.94 46.6664 1230.12C46.6664 1227.3 44.3789 1225.01 41.5572 1225.01C38.7354 1225.01 36.4479 1227.3 36.4479 1230.12C36.4479 1232.94 38.7354 1235.23 41.5572 1235.23ZM41.5572 1235.73C44.6551 1235.73 47.1664 1233.22 47.1664 1230.12C47.1664 1227.02 44.6551 1224.51 41.5572 1224.51C38.4593 1224.51 35.9479 1227.02 35.9479 1230.12C35.9479 1233.22 38.4593 1235.73 41.5572 1235.73Z" fill="#5449C2"/>
<path fill-rule="evenodd" clip-rule="evenodd" d="M41.5 1255.5C44.2614 1255.5 46.5 1253.26 46.5 1250.5C46.5 1247.74 44.2614 1245.5 41.5 1245.5C38.7386 1245.5 36.5 1247.74 36.5 1250.5C36.5 1253.26 38.7386 1255.5 41.5 1255.5ZM41.5 1256C44.5376 1256 47 1253.54 47 1250.5C47 1247.46 44.5376 1245 41.5 1245C38.4624 1245 36 1247.46 36 1250.5C36 1253.54 38.4624 1256 41.5 1256Z" fill="#5449C2"/>
<path fill-rule="evenodd" clip-rule="evenodd" d="M0.5 1014.5C0.5 1015.6 1.39543 1016.5 2.5 1016.5C3.60457 1016.5 4.5 1015.6 4.5 1014.5C4.5 1013.4 3.60457 1012.5 2.5 1012.5C1.39543 1012.5 0.5 1013.4 0.5 1014.5ZM2.5 1012C1.11929 1012 0 1013.12 0 1014.5C0 1015.88 1.11929 1017 2.5 1017C3.88071 1017 5 1015.88 5 1014.5C5 1013.12 3.88071 1012 2.5 1012Z" fill="#5449C2"/>
<path fill-rule="evenodd" clip-rule="evenodd" d="M0.5 1006.5C0.5 1007.6 1.39543 1008.5 2.5 1008.5C3.60457 1008.5 4.5 1007.6 4.5 1006.5C4.5 1005.4 3.60457 1004.5 2.5 1004.5C1.39543 1004.5 0.5 1005.4 0.5 1006.5ZM2.5 1004C1.11929 1004 0 1005.12 0 1006.5C0 1007.88 1.11929 1009 2.5 1009C3.88071 1009 5 1007.88 5 1006.5C5 1005.12 3.88071 1004 2.5 1004Z" fill="#5449C2"/>
<path fill-rule="evenodd" clip-rule="evenodd" d="M0.5 999.5C0.5 1000.6 1.39543 1001.5 2.5 1001.5C3.60457 1001.5 4.5 1000.6 4.5 999.5C4.5 998.395 3.60457 997.5 2.5 997.5C1.39543 997.5 0.5 998.395 0.5 999.5ZM2.5 997C1.11929 997 0 998.119 0 999.5C0 1000.88 1.11929 1002 2.5 1002C3.88071 1002 5 1000.88 5 999.5C5 998.119 3.88071 997 2.5 997Z" fill="#5449C2"/>
<path fill-rule="evenodd" clip-rule="evenodd" d="M57 2483.5H53C51.6193 2483.5 50.5 2484.62 50.5 2486V2490C50.5 2491.38 51.6193 2492.5 53 2492.5H57C58.3807 2492.5 59.5 2491.38 59.5 2490V2486C59.5 2484.62 58.3807 2483.5 57 2483.5ZM53 2483C51.3431 2483 50 2484.34 50 2486V2490C50 2491.66 51.3431 2493 53 2493H57C58.6569 2493 60 2491.66 60 2490V2486C60 2484.34 58.6569 2483 57 2483H53Z" fill="#5449C2"/>
<path fill-rule="evenodd" clip-rule="evenodd" d="M44.5 2190.5V2182.5C44.5 2181.4 43.6046 2180.5 42.5 2180.5C41.3954 2180.5 40.5 2181.4 40.5 2182.5V2190.5C40.5 2191.6 41.3954 2192.5 42.5 2192.5C43.6046 2192.5 44.5 2191.6 44.5 2190.5ZM42.5 2180C41.1193 2180 40 2181.12 40 2182.5V2190.5C40 2191.88 41.1193 2193 42.5 2193C43.8807 2193 45 2191.88 45 2190.5V2182.5C45 2181.12 43.8807 2180 42.5 2180Z" fill="#5449C2"/>
<path fill-rule="evenodd" clip-rule="evenodd" d="M44.5 2003.5V1990.5C44.5 1989.4 43.6046 1988.5 42.5 1988.5C41.3954 1988.5 40.5 1989.4 40.5 1990.5V2003.5C40.5 2004.6 41.3954 2005.5 42.5 2005.5C43.6046 2005.5 44.5 2004.6 44.5 2003.5ZM42.5 1988C41.1193 1988 40 1989.12 40 1990.5V2003.5C40 2004.88 41.1193 2006 42.5 2006C43.8807 2006 45 2004.88 45 2003.5V1990.5C45 1989.12 43.8807 1988 42.5 1988Z" fill="#5449C2"/>
<path fill-rule="evenodd" clip-rule="evenodd" d="M26.5 2041.5V2029.5C26.5 2028.4 25.6046 2027.5 24.5 2027.5C23.3954 2027.5 22.5 2028.4 22.5 2029.5V2041.5C22.5 2042.6 23.3954 2043.5 24.5 2043.5C25.6046 2043.5 26.5 2042.6 26.5 2041.5ZM24.5 2027C23.1193 2027 22 2028.12 22 2029.5V2041.5C22 2042.88 23.1193 2044 24.5 2044C25.8807 2044 27 2042.88 27 2041.5V2029.5C27 2028.12 25.8807 2027 24.5 2027Z" fill="#5449C2"/>
<path fill-rule="evenodd" clip-rule="evenodd" d="M26.5 2019.5V2007.5C26.5 2006.4 25.6046 2005.5 24.5 2005.5C23.3954 2005.5 22.5 2006.4 22.5 2007.5V2019.5C22.5 2020.6 23.3954 2021.5 24.5 2021.5C25.6046 2021.5 26.5 2020.6 26.5 2019.5ZM24.5 2005C23.1193 2005 22 2006.12 22 2007.5V2019.5C22 2020.88 23.1193 2022 24.5 2022C25.8807 2022 27 2020.88 27 2019.5V2007.5C27 2006.12 25.8807 2005 24.5 2005Z" fill="#5449C2"/>
<path fill-rule="evenodd" clip-rule="evenodd" d="M26.5 2175.5V2158.5C26.5 2157.4 25.6046 2156.5 24.5 2156.5C23.3954 2156.5 22.5 2157.4 22.5 2158.5V2175.5C22.5 2176.6 23.3954 2177.5 24.5 2177.5C25.6046 2177.5 26.5 2176.6 26.5 2175.5ZM24.5 2156C23.1193 2156 22 2157.12 22 2158.5V2175.5C22 2176.88 23.1193 2178 24.5 2178C25.8807 2178 27 2176.88 27 2175.5V2158.5C27 2157.12 25.8807 2156 24.5 2156Z" fill="#5449C2"/>
<path fill-rule="evenodd" clip-rule="evenodd" d="M26.5 2210.5V2193.5C26.5 2192.4 25.6046 2191.5 24.5 2191.5C23.3954 2191.5 22.5 2192.4 22.5 2193.5V2210.5C22.5 2211.6 23.3954 2212.5 24.5 2212.5C25.6046 2212.5 26.5 2211.6 26.5 2210.5ZM24.5 2191C23.1193 2191 22 2192.12 22 2193.5V2210.5C22 2211.88 23.1193 2213 24.5 2213C25.8807 2213 27 2211.88 27 2210.5V2193.5C27 2192.12 25.8807 2191 24.5 2191Z" fill="#5449C2"/>
<path fill-rule="evenodd" clip-rule="evenodd" d="M26.5 1997.5V1977.5C26.5 1976.4 25.6046 1975.5 24.5 1975.5C23.3954 1975.5 22.5 1976.4 22.5 1977.5V1997.5C22.5 1998.6 23.3954 1999.5 24.5 1999.5C25.6046 1999.5 26.5 1998.6 26.5 1997.5ZM24.5 1975C23.1193 1975 22 1976.12 22 1977.5V1997.5C22 1998.88 23.1193 2000 24.5 2000C25.8807 2000 27 1998.88 27 1997.5V1977.5C27 1976.12 25.8807 1975 24.5 1975Z" fill="#5449C2"/>
<path fill-rule="evenodd" clip-rule="evenodd" d="M38.5 1980.5V1977.5C38.5 1976.4 37.6046 1975.5 36.5 1975.5C35.3954 1975.5 34.5 1976.4 34.5 1977.5V1980.5C34.5 1981.6 35.3954 1982.5 36.5 1982.5C37.6046 1982.5 38.5 1981.6 38.5 1980.5ZM36.5 1975C35.1193 1975 34 1976.12 34 1977.5V1980.5C34 1981.88 35.1193 1983 36.5 1983C37.8807 1983 39 1981.88 39 1980.5V1977.5C39 1976.12 37.8807 1975 36.5 1975Z" fill="#5449C2"/>
<path fill-rule="evenodd" clip-rule="evenodd" d="M26.5 2230.5V2226.5C26.5 2225.4 25.6046 2224.5 24.5 2224.5C23.3954 2224.5 22.5 2225.4 22.5 2226.5V2230.5C22.5 2231.6 23.3954 2232.5 24.5 2232.5C25.6046 2232.5 26.5 2231.6 26.5 2230.5ZM24.5 2224C23.1193 2224 22 2225.12 22 2226.5V2230.5C22 2231.88 23.1193 2233 24.5 2233C25.8807 2233 27 2231.88 27 2230.5V2226.5C27 2225.12 25.8807 2224 24.5 2224Z" fill="#5449C2"/>
<path fill-rule="evenodd" clip-rule="evenodd" d="M26.5 2116.5V2112.5C26.5 2111.4 25.6046 2110.5 24.5 2110.5C23.3954 2110.5 22.5 2111.4 22.5 2112.5V2116.5C22.5 2117.6 23.3954 2118.5 24.5 2118.5C25.6046 2118.5 26.5 2117.6 26.5 2116.5ZM24.5 2110C23.1193 2110 22 2111.12 22 2112.5V2116.5C22 2117.88 23.1193 2119 24.5 2119C25.8807 2119 27 2117.88 27 2116.5V2112.5C27 2111.12 25.8807 2110 24.5 2110Z" fill="#5449C2"/>
<path fill-rule="evenodd" clip-rule="evenodd" d="M41.75 2227.83V2217H42.25V2227.83C42.25 2232.84 40.1877 2237.63 36.5472 2241.08L30.7965 2246.52C27.2558 2249.88 25.25 2254.54 25.25 2259.41V2373H24.75V2259.41C24.75 2254.4 26.8123 2249.61 30.4528 2246.16L36.2035 2240.72C39.7442 2237.36 41.75 2232.7 41.75 2227.83Z" fill="#5449C2"/>
<path fill-rule="evenodd" clip-rule="evenodd" d="M25.25 2128.77V2118H24.75V2128.77C24.75 2133.79 26.8182 2138.59 30.4678 2142.04L36.1889 2147.44C39.7385 2150.8 41.75 2155.46 41.75 2160.35V2181H42.25V2160.35C42.25 2155.33 40.1818 2150.53 36.5322 2147.08L30.8111 2141.67C27.2615 2138.32 25.25 2133.65 25.25 2128.77Z" fill="#5449C2"/>
<path fill-rule="evenodd" clip-rule="evenodd" d="M41.75 2044.06V2033H42.25V2044.06C42.25 2049.04 40.2125 2053.8 36.6104 2057.25L30.7351 2062.86C27.2317 2066.21 25.25 2070.85 25.25 2075.69V2103H24.75V2075.69C24.75 2070.71 26.7875 2065.95 30.3896 2062.5L36.2649 2056.89C39.7683 2053.54 41.75 2048.9 41.75 2044.06Z" fill="#5449C2"/>
<path fill-rule="evenodd" clip-rule="evenodd" d="M41.75 2037.68V2005H42.25V2037.68C42.25 2042.68 40.1985 2047.46 36.5746 2050.91L30.7699 2056.43C27.2453 2059.78 25.25 2064.43 25.25 2069.29V2097H24.75V2069.29C24.75 2064.29 26.8015 2059.51 30.4254 2056.06L36.2301 2050.55C39.7547 2047.2 41.75 2042.54 41.75 2037.68Z" fill="#5449C2"/>
<path fill-rule="evenodd" clip-rule="evenodd" d="M40.5 2208.5C41.6046 2208.5 42.5 2207.6 42.5 2206.5C42.5 2205.4 41.6046 2204.5 40.5 2204.5C39.3954 2204.5 38.5 2205.4 38.5 2206.5C38.5 2207.6 39.3954 2208.5 40.5 2208.5ZM40.5 2209C41.8807 2209 43 2207.88 43 2206.5C43 2205.12 41.8807 2204 40.5 2204C39.1193 2204 38 2205.12 38 2206.5C38 2207.88 39.1193 2209 40.5 2209Z" fill="#5449C2"/>
<path fill-rule="evenodd" clip-rule="evenodd" d="M54.5 2043.5C55.6046 2043.5 56.5 2042.6 56.5 2041.5C56.5 2040.4 55.6046 2039.5 54.5 2039.5C53.3954 2039.5 52.5 2040.4 52.5 2041.5C52.5 2042.6 53.3954 2043.5 54.5 2043.5ZM54.5 2044C55.8807 2044 57 2042.88 57 2041.5C57 2040.12 55.8807 2039 54.5 2039C53.1193 2039 52 2040.12 52 2041.5C52 2042.88 53.1193 2044 54.5 2044Z" fill="#5449C2"/>
<path fill-rule="evenodd" clip-rule="evenodd" d="M40.5 2217.5C41.6046 2217.5 42.5 2216.6 42.5 2215.5C42.5 2214.4 41.6046 2213.5 40.5 2213.5C39.3954 2213.5 38.5 2214.4 38.5 2215.5C38.5 2216.6 39.3954 2217.5 40.5 2217.5ZM40.5 2218C41.8807 2218 43 2216.88 43 2215.5C43 2214.12 41.8807 2213 40.5 2213C39.1193 2213 38 2214.12 38 2215.5C38 2216.88 39.1193 2218 40.5 2218Z" fill="#5449C2"/>
<path fill-rule="evenodd" clip-rule="evenodd" d="M41.5 2339.5C43.1569 2339.5 44.5 2338.16 44.5 2336.5C44.5 2334.84 43.1569 2333.5 41.5 2333.5C39.8431 2333.5 38.5 2334.84 38.5 2336.5C38.5 2338.16 39.8431 2339.5 41.5 2339.5ZM41.5 2340C43.433 2340 45 2338.43 45 2336.5C45 2334.57 43.433 2333 41.5 2333C39.567 2333 38 2334.57 38 2336.5C38 2338.43 39.567 2340 41.5 2340Z" fill="#5449C2"/>
<path fill-rule="evenodd" clip-rule="evenodd" d="M5.5 2357.5V2354.5C5.5 2353.4 4.60457 2352.5 3.5 2352.5C2.39543 2352.5 1.5 2353.4 1.5 2354.5V2357.5C1.5 2358.6 2.39543 2359.5 3.5 2359.5C4.60457 2359.5 5.5 2358.6 5.5 2357.5ZM3.5 2352C2.11929 2352 1 2353.12 1 2354.5V2357.5C1 2358.88 2.11929 2360 3.5 2360C4.88071 2360 6 2358.88 6 2357.5V2354.5C6 2353.12 4.88071 2352 3.5 2352Z" fill="#5449C2"/>
<path fill-rule="evenodd" clip-rule="evenodd" d="M5.5 2345.5V2341.5C5.5 2340.4 4.60457 2339.5 3.5 2339.5C2.39543 2339.5 1.5 2340.4 1.5 2341.5V2345.5C1.5 2346.6 2.39543 2347.5 3.5 2347.5C4.60457 2347.5 5.5 2346.6 5.5 2345.5ZM3.5 2339C2.11929 2339 1 2340.12 1 2341.5V2345.5C1 2346.88 2.11929 2348 3.5 2348C4.88071 2348 6 2346.88 6 2345.5V2341.5C6 2340.12 4.88071 2339 3.5 2339Z" fill="#5449C2"/>
<path fill-rule="evenodd" clip-rule="evenodd" d="M42.25 2451.15V2339H41.75V2451.15C41.75 2456.02 39.7527 2460.67 36.2251 2464.02L30.4305 2469.52C26.8036 2472.97 24.75 2477.75 24.75 2482.76V2580H25.25V2482.76C25.25 2477.89 27.2473 2473.24 30.7749 2469.89L36.5695 2464.38C40.1964 2460.94 42.25 2456.15 42.25 2451.15Z" fill="#5449C2"/>
<path fill-rule="evenodd" clip-rule="evenodd" d="M42.25 2526V2350H41.75V2526H42.25Z" fill="#5449C2"/>
<path fill-rule="evenodd" clip-rule="evenodd" d="M56.5 2407V2394C56.5 2393.17 55.8284 2392.5 55 2392.5C54.1716 2392.5 53.5 2393.17 53.5 2394V2407C53.5 2407.83 54.1716 2408.5 55 2408.5C55.8284 2408.5 56.5 2407.83 56.5 2407ZM55 2392C53.8954 2392 53 2392.9 53 2394V2407C53 2408.1 53.8954 2409 55 2409C56.1046 2409 57 2408.1 57 2407V2394C57 2392.9 56.1046 2392 55 2392Z" fill="#5449C2"/>
<path fill-rule="evenodd" clip-rule="evenodd" d="M56.5 2427V2414C56.5 2413.17 55.8284 2412.5 55 2412.5C54.1716 2412.5 53.5 2413.17 53.5 2414V2427C53.5 2427.83 54.1716 2428.5 55 2428.5C55.8284 2428.5 56.5 2427.83 56.5 2427ZM55 2412C53.8954 2412 53 2412.9 53 2414V2427C53 2428.1 53.8954 2429 55 2429C56.1046 2429 57 2428.1 57 2427V2414C57 2412.9 56.1046 2412 55 2412Z" fill="#5449C2"/>
<path fill-rule="evenodd" clip-rule="evenodd" d="M56.5 2435V2434C56.5 2433.17 55.8284 2432.5 55 2432.5C54.1716 2432.5 53.5 2433.17 53.5 2434V2435C53.5 2435.83 54.1716 2436.5 55 2436.5C55.8284 2436.5 56.5 2435.83 56.5 2435ZM55 2432C53.8954 2432 53 2432.9 53 2434V2435C53 2436.1 53.8954 2437 55 2437C56.1046 2437 57 2436.1 57 2435V2434C57 2432.9 56.1046 2432 55 2432Z" fill="#5449C2"/>
<path fill-rule="evenodd" clip-rule="evenodd" d="M43.5 2540V2527C43.5 2526.17 42.8284 2525.5 42 2525.5C41.1716 2525.5 40.5 2526.17 40.5 2527V2540C40.5 2540.83 41.1716 2541.5 42 2541.5C42.8284 2541.5 43.5 2540.83 43.5 2540ZM42 2525C40.8954 2525 40 2525.9 40 2527V2540C40 2541.1 40.8954 2542 42 2542C43.1046 2542 44 2541.1 44 2540V2527C44 2525.9 43.1046 2525 42 2525Z" fill="#5449C2"/>
<path fill-rule="evenodd" clip-rule="evenodd" d="M43.5 2548V2547C43.5 2546.17 42.8284 2545.5 42 2545.5C41.1716 2545.5 40.5 2546.17 40.5 2547V2548C40.5 2548.83 41.1716 2549.5 42 2549.5C42.8284 2549.5 43.5 2548.83 43.5 2548ZM42 2545C40.8954 2545 40 2545.9 40 2547V2548C40 2549.1 40.8954 2550 42 2550C43.1046 2550 44 2549.1 44 2548V2547C44 2545.9 43.1046 2545 42 2545Z" fill="#5449C2"/>
<path fill-rule="evenodd" clip-rule="evenodd" d="M26.5 2433V2432C26.5 2431.17 25.8284 2430.5 25 2430.5C24.1716 2430.5 23.5 2431.17 23.5 2432V2433C23.5 2433.83 24.1716 2434.5 25 2434.5C25.8284 2434.5 26.5 2433.83 26.5 2433ZM25 2430C23.8954 2430 23 2430.9 23 2432V2433C23 2434.1 23.8954 2435 25 2435C26.1046 2435 27 2434.1 27 2433V2432C27 2430.9 26.1046 2430 25 2430Z" fill="#5449C2"/>
<path fill-rule="evenodd" clip-rule="evenodd" d="M26.5 2583V2582C26.5 2581.17 25.8284 2580.5 25 2580.5C24.1716 2580.5 23.5 2581.17 23.5 2582V2583C23.5 2583.83 24.1716 2584.5 25 2584.5C25.8284 2584.5 26.5 2583.83 26.5 2583ZM25 2580C23.8954 2580 23 2580.9 23 2582V2583C23 2584.1 23.8954 2585 25 2585C26.1046 2585 27 2584.1 27 2583V2582C27 2580.9 26.1046 2580 25 2580Z" fill="#5449C2"/>
<path fill-rule="evenodd" clip-rule="evenodd" d="M56.5 2443V2442C56.5 2441.17 55.8284 2440.5 55 2440.5C54.1716 2440.5 53.5 2441.17 53.5 2442V2443C53.5 2443.83 54.1716 2444.5 55 2444.5C55.8284 2444.5 56.5 2443.83 56.5 2443ZM55 2440C53.8954 2440 53 2440.9 53 2442V2443C53 2444.1 53.8954 2445 55 2445C56.1046 2445 57 2444.1 57 2443V2442C57 2440.9 56.1046 2440 55 2440Z" fill="#5449C2"/>
<path fill-rule="evenodd" clip-rule="evenodd" d="M25.25 2349.93V2431H24.75V2349.93C24.75 2345.31 22.9511 2340.88 19.735 2337.57L3.82063 2321.17L4.17937 2320.83L20.0937 2337.22C23.4004 2340.62 25.25 2345.18 25.25 2349.93Z" fill="#5449C2"/>
<path fill-rule="evenodd" clip-rule="evenodd" d="M25.25 2412.38V2431H24.75V2412.38C24.75 2407.76 22.9488 2403.32 19.7291 2400L8.91228 2388.87C5.6019 2385.47 3.75 2380.91 3.75 2376.16V2360H4.25V2376.16C4.25 2380.78 6.05116 2385.21 9.27085 2388.53L20.0877 2399.66C23.3981 2403.06 25.25 2407.63 25.25 2412.38Z" fill="#5449C2"/>
<path fill-rule="evenodd" clip-rule="evenodd" d="M0.5 2319.5C0.5 2320.6 1.39543 2321.5 2.5 2321.5C3.60457 2321.5 4.5 2320.6 4.5 2319.5C4.5 2318.4 3.60457 2317.5 2.5 2317.5C1.39543 2317.5 0.5 2318.4 0.5 2319.5ZM2.5 2317C1.11929 2317 0 2318.12 0 2319.5C0 2320.88 1.11929 2322 2.5 2322C3.88071 2322 5 2320.88 5 2319.5C5 2318.12 3.88071 2317 2.5 2317Z" fill="#5449C2"/>
<path fill-rule="evenodd" clip-rule="evenodd" d="M0.5 2311.5C0.5 2312.6 1.39543 2313.5 2.5 2313.5C3.60457 2313.5 4.5 2312.6 4.5 2311.5C4.5 2310.4 3.60457 2309.5 2.5 2309.5C1.39543 2309.5 0.5 2310.4 0.5 2311.5ZM2.5 2309C1.11929 2309 0 2310.12 0 2311.5C0 2312.88 1.11929 2314 2.5 2314C3.88071 2314 5 2312.88 5 2311.5C5 2310.12 3.88071 2309 2.5 2309Z" fill="#5449C2"/>
<path fill-rule="evenodd" clip-rule="evenodd" d="M0.5 2304.5C0.5 2305.6 1.39543 2306.5 2.5 2306.5C3.60457 2306.5 4.5 2305.6 4.5 2304.5C4.5 2303.4 3.60457 2302.5 2.5 2302.5C1.39543 2302.5 0.5 2303.4 0.5 2304.5ZM2.5 2302C1.11929 2302 0 2303.12 0 2304.5C0 2305.88 1.11929 2307 2.5 2307C3.88071 2307 5 2305.88 5 2304.5C5 2303.12 3.88071 2302 2.5 2302Z" fill="#5449C2"/>
</svg>
